<svg width="140" height="138" viewBox="0 0 140 138" fill="none" xmlns="http://www.w3.org/2000/svg">
<path d="M4.10683 98.9187C-8.452 67.7601 9.34004 31.8924 36.49 14.8652C46.1057 8.37737 56.2842 1.71771 68.2286 0.965811C87.3483 -2.28668 104.913 2.5985 118.473 16.7943C130.279 27.5744 134.546 41.8132 137.807 57.023C140.961 69.0233 139.096 81.3029 134.258 92.5813C129.012 107.83 122.533 109.892 111.641 119.968C101.11 130.443 86.0336 136.548 71.2534 137.094C56.8428 137.399 43.5836 132.208 31.3642 125.029C20.6228 118.391 8.8889 111.28 4.10683 98.9187Z" fill="white"/>
<path d="M50.8405 40.8161C57.122 48.1203 45.6115 51.4845 46.5439 58.3805C52.3528 69.6546 42.2774 66.8361 43.5062 73.6547C44.5245 76.5678 48.3141 77.6075 49.0918 81.0276C50.6987 84.2113 47.4505 87.365 44.271 86.0331C33.4007 84.8902 32.5973 72.8512 32.1118 64.0605C31.9485 56.9411 35.9529 50.6467 39.4159 44.726C41.7446 42.0149 48.1852 35.6087 50.8405 40.8161Z" fill="#73D88B"/>
<path d="M90.184 30.3717C97.0069 34.3202 101.699 43.5621 97.7502 50.9952C97.269 51.9275 96.0316 53.0231 96.7105 54.1231C97.3936 55.137 98.2272 56.0307 98.3561 57.2939C98.6525 58.9438 97.1015 60.83 95.7094 59.0813C93.5611 55.4335 88.0443 53.5258 86.6479 58.8106C86.4245 61.4702 87.4729 64.2414 86.3816 66.828C84.9938 73.6595 79.5457 67.9064 78.5575 64.1211C78.2095 59.9836 74.6906 55.8889 70.7206 59.3133C70.016 61.1307 70.3339 63.1802 69.9601 65.0578C69.1438 71.1374 65.453 70.7164 63.3735 65.466C61.1909 61.1221 58.5743 56.151 59.7515 51.2444C62.6904 45.6202 56.224 39.0336 61.1694 34.114C61.1694 30.3717 65.6335 28.1332 68.9504 27.9399C75.9667 25.856 83.7564 26.8872 90.184 30.3717Z" fill="#73D88B"/>
<path d="M108.419 71.8119C108.874 72.0611 109.935 73.4574 108.848 73.436C110.236 79.3523 106.27 84.3577 103.516 89.2041C100.272 92.9034 93.0928 97.9905 88.0014 96.4438C84.3149 95.2064 83.7822 90.6564 84.6672 87.3738C86.287 83.4167 90.8844 82.1106 93.69 79.1675C100.895 76.0482 99.3314 66.669 106.984 70.9354C107.645 70.7678 108.006 71.4553 108.419 71.8119Z" fill="#73D88B"/>
<path d="M65.6936 105.939C34.3717 104.908 19.4197 60.8941 41.9036 39.9268C50.342 29.9674 64.2757 26.4399 76.8475 26.6633C97.5869 25.1423 109.574 43.45 109.931 62.4925C110.103 70.2993 110.829 78.6175 106.305 85.4319C98.2142 99.3227 81.6725 107.619 65.6936 105.939ZM62.9954 101.054C78.8926 103.155 96.9381 97.3936 105.445 83.0602C109.261 77.2039 108.672 70.0673 108.242 63.4205C107.813 51.36 101.987 38.8957 90.8757 33.2929C86.3815 31.106 81.2944 31.6516 76.4908 30.9685C76.4027 31.0216 76.2995 31.0445 76.1972 31.0336C76.0948 31.0227 75.9988 30.9788 75.9237 30.9083C72.538 30.2252 69.1308 32.3434 66.0416 32.1973C59.8847 34.4015 53.5386 36.3564 48.2152 40.2964C41.2462 46.2127 34.3373 54.2946 33.9678 63.8459C32.1934 81.3501 44.7651 99.8168 62.9954 101.054Z" fill="black"/>
<path d="M137.794 57.023C134.546 41.8132 130.279 27.5744 118.46 16.7943C104.913 2.5985 87.3483 -2.28668 68.2286 0.965811C56.2842 1.71771 46.1057 8.37737 36.49 14.8652C9.34004 31.8881 -8.45199 67.7601 4.10683 98.9187C8.8889 111.28 20.6228 118.391 31.3642 125.029C43.5664 132.23 56.8256 137.42 71.2233 137.115C86.0035 136.569 101.08 130.464 111.611 119.989C122.503 109.914 128.982 107.851 134.228 92.6028C139.062 81.3029 140.948 69.0233 137.794 57.023ZM129.708 98.6695C125.313 107.215 116.518 111.942 109.841 118.477C96.1261 131.276 76.1729 137.081 57.7665 133.291C46.3506 131.504 36.3052 125.128 26.5735 119.259C17.1855 113.299 7.57845 106.236 4.42908 94.9917C-2.53134 73.7409 4.12832 53.3924 16.8547 35.8925C26.638 23.338 39.9573 14.1133 54.166 7.30323C62.1103 3.7199 71.1159 2.92074 79.7391 3.11409C80.2547 3.11409 80.4093 2.55983 80.4265 2.09581C98.6869 0.596307 114.588 13.3528 125.244 27.0158C133.098 41.0183 138.439 57.3452 137.889 73.5562C136.754 82.2696 133.459 90.7295 129.708 98.6695Z" fill="black"/>
</svg>
