<svg width="770" height="770" viewBox="0 0 770 770" fill="none" xmlns="http://www.w3.org/2000/svg">
<path d="M113.66 114.892C113.078 108.139 115.608 95.2335 124.836 101.663C124.586 93.3393 133.907 95.3221 139.366 96.3616C136.359 89.2814 145.164 81.9202 151.879 84.261C151.998 75.0903 161.384 68.5415 169.716 67.0592C178.586 66.089 190.348 71.7139 189.89 81.8548C197.709 70.6012 220.848 72.7996 218.195 89.3623C242.292 81.4505 239.204 121.252 214.726 113.64C211.273 112.863 208.027 109.621 204.52 111.789C198.487 115.265 191.576 118.399 184.511 116.32C172.037 109.525 163.614 121.371 151.752 121.317C147.143 121.525 143.135 119.519 139.097 117.656C132.221 115.839 125.899 121.456 118.957 119.993C116.259 119.758 113.629 117.783 113.66 114.892Z" fill="white"/>
<path d="M472.645 60.6529C475.228 58.3236 480.819 58.4969 483.286 60.9686C483.129 50.9817 498.086 46.0729 504.207 53.7999C506.517 35.2587 541.795 26.923 545.964 48.4869C553.102 42.4732 566.327 49.3069 564.179 58.8472C568.248 57.8578 573.835 56.903 576.595 60.8916C581.931 69.5348 579.74 78.1165 568.668 78.8287C559.493 80.9347 550.042 79.8413 540.967 77.8547C531.904 78.0587 524.331 85.0349 515.161 84.8001C509.809 85.0311 504.993 82.8096 500.142 80.8846C492.303 78.3436 484.588 85.0657 476.58 83.2062C471.093 82.3823 470.127 76.3455 472.845 72.2452C469.041 69.4463 470.177 63.9639 472.645 60.6529Z" fill="white"/>
<path d="M577.442 163.217C583.452 157.785 589.808 151.378 598.047 149.815C605.67 148.487 613.37 154.046 615.396 161.33C632.948 153.569 639.589 185.978 613.748 177.658C605.143 172.769 599.78 184.711 588.927 180.361C578.051 175.144 569.815 188.631 558.427 184.222C553.257 183.241 548.902 178.401 543.389 180.234C536.505 183.295 518.245 189.67 522.253 175.294C520.997 167.055 529.514 165.157 535.581 168.414C534.384 159.76 546.369 158.728 550.823 163.848C554.13 151.859 572.122 153.284 577.442 163.217Z" fill="white"/>
<path d="M667.921 638.084C667.817 642.677 667.767 647.316 666.839 651.832C665.115 658.165 662.766 664.317 661.395 670.762C658.708 680.996 663.097 691.036 664.01 701.185C666.223 720.046 654.912 742.861 634.049 743.697C633.887 743.731 633.729 743.755 633.575 743.774C635.554 752.413 636.532 761.318 638.203 770H124.986C125.264 762.119 126.669 754.519 128.898 747.131C119.412 743.704 109.621 741.017 100.52 736.597C57.0338 715.495 65.2805 670.624 98.0517 643.531C106.787 634.869 117.81 627.134 121.968 615.076C130.711 582.497 97.9363 544.305 125.129 511.03C135.25 501.12 147.671 493.566 155.937 481.793C166.466 468.872 172.719 450.846 164.426 435.196C164.264 434.865 164.106 434.53 163.952 434.199C164.672 448.698 163.968 463.136 156.233 475.845C138.161 502.764 93.9284 519.215 99.9575 557.141C102.441 568.618 116.667 574.666 116.432 587.059C116.335 587.421 116.104 587.841 115.7 587.864C115.273 587.864 115.023 587.202 114.946 586.848C113.217 578.536 105.686 573.173 101.817 565.908C84.1032 524.559 137.079 501.928 156.021 473.046C163.063 460.479 163.586 445.453 162.709 431.385C151.983 405.721 157.272 378.239 178.678 359.255C178.405 357.827 179.98 355.505 182.451 352.799C182.374 352.849 182.301 352.895 182.224 352.941C165.196 363.498 145.746 371.255 132.532 386.867C125.098 394.787 120.216 403.799 120.709 414.945C120.717 415.095 120.667 415.369 120.493 415.415C120.297 415.469 120.205 415.165 120.197 415.022C120.089 381.161 156.348 365.881 180.95 350.423C188.542 345.53 195.83 340.04 202.352 333.791C202.356 333.795 202.356 333.787 202.356 333.787C202.421 333.703 202.483 333.622 202.541 333.541C215.612 318.649 225.036 299.695 224.705 279.529C224.601 279.629 224.463 279.622 224.301 279.41C223.697 278.474 223.073 276.58 224.282 276.295C224.316 275.964 224.386 275.633 224.467 275.325C226.068 270.524 234.288 268.584 238.692 267.175C243.955 265.7 249.449 265.6 254.824 264.78C259.783 263.729 264.776 263.24 269.793 263.005C268.703 251.432 267.972 239.824 267.452 228.193C265.685 228.463 263.887 228.555 262.046 228.401C256.73 229.768 251.428 226.372 247.139 223.55C241.414 219.781 239.455 212.62 239.897 206.087C239.736 198.91 243.651 192.404 243.582 185.293C240.694 177.092 236.132 168.568 239.274 159.686C240.752 155.413 243.305 151.601 244.795 147.324C246.111 143.455 244.679 139.451 244.675 135.505C244.309 128.702 249.099 123.52 252.341 118.068C254.319 113.656 252.679 108.628 253.472 103.988C254.435 97.8554 261.034 94.7716 266.574 93.863C275.075 92.8119 278.932 102.079 281.616 108.585C285.266 116.986 278.243 127.354 281.624 134.492C283.853 137.664 286.748 140.321 288.962 143.513C297.428 154.885 285.782 167.159 289.258 179.287C290.894 183.529 293.767 187.195 294.872 191.676C299.099 203.361 296.084 219.331 282.702 223.05C279.187 224.455 275.648 226.049 272.006 227.142C272.476 238.138 272.88 249.133 273.177 260.137C273.111 260.964 273.208 261.904 273.327 262.878C276.068 262.805 278.813 262.782 281.566 262.762C293.455 261.654 305.37 260.88 317.29 260.183C316.351 244.937 316.663 229.61 317.121 214.268C300.096 215.057 298.56 198.071 301.139 184.546C303.099 172.395 304.562 160.018 303.072 147.728C301.505 138.284 298.194 129.017 300.084 119.315C300.82 114.499 302.733 109.956 303.827 105.224C306.267 92.8312 295.23 80.2455 303.557 68.3837C302.129 65.2113 304.754 63.6867 306.807 61.7848C312.039 56.3409 321.721 56.7259 326.237 62.8859C334.565 70.8207 333.037 82.3977 332.848 92.7927C333.579 102.649 332.367 112.566 333.31 122.418C334.334 132.282 338.392 141.222 341.345 150.558C344.232 160.125 345.703 170.024 345.568 180.026C345.919 187.564 344.332 194.918 341.406 201.848C340.044 205.27 338.696 209.04 335.57 211.246C331.304 214.048 326.03 214.172 321.009 214.172C320.824 217.81 320.601 221.448 320.335 225.086C320.262 236.74 319.793 248.39 319.7 260.04C325.167 259.725 330.638 259.421 336.109 259.105C340.298 258.462 344.506 258.05 348.721 257.815C347.551 245.53 346.777 232.467 353.168 221.448C355.775 217.067 356.602 217.159 356.164 211.812C354.931 195.23 364.275 193.616 365.003 183.383C365.115 178.809 364.903 174.228 365.242 169.658C365.28 160.83 370.705 143.582 381.612 153.804C388.446 163.217 387.114 180.927 384.946 191.946C396.123 196.854 394.698 207.415 393.917 217.64C401.963 222.183 402.183 233.271 403.553 241.433C404.042 248.275 404.539 254.25 402.856 258.489C411.411 259.016 419.958 259.717 428.493 260.491C428.667 247.805 428.717 235.1 428.786 222.388C426.988 221.991 425.213 221.398 423.488 220.593C416.185 216.955 408.046 213.694 402.575 207.442C393.139 193.597 398.733 179.864 411.292 170.451C402.133 164.761 400.119 152.063 402.749 142.281C405.101 135.031 411.222 130.003 416.913 125.337C405.836 111.427 418.784 90.7714 433.356 85.4122C457.469 79.3446 465.457 108.343 448.206 122.23C467.113 128.521 468.483 152.887 452.406 163.352C459.863 167.702 464.175 176.026 465.326 184.4C466.112 190.787 466.466 197.517 464.225 203.665C458.974 215.554 445.699 223.854 432.771 222.965C432.675 235.589 432.521 248.213 432.147 260.826C433.214 260.93 434.28 261.03 435.346 261.13C448.14 262.42 460.999 261.8 473.839 261.615C474.035 251.798 474.459 241.984 475.028 232.163C461.988 241.072 453.538 235.32 469.596 214.391C466.89 215.966 462.778 214.922 463.983 211.134C465.403 207.034 467.806 203.349 469.246 199.245C471.925 193.316 472.822 186.875 474.108 180.553C470.004 182.386 465.611 179.541 466.578 174.921C467.017 172.88 468.391 170.747 469.165 168.996C471.787 162.867 474.74 156.772 476.253 150.254C468.399 153.977 465.346 146.831 469.454 140.656C472.029 134.207 475.155 127.978 478.066 121.698C476.761 119.446 479.66 115.411 480.68 113.29C482.651 110.229 486.409 99.5109 488.727 108.389C490.606 113.013 492.7 117.579 495.684 121.61C498.075 124.759 499.892 130.973 496.107 133.66C500.85 140.979 503.703 152.66 490.667 146.481C493.909 155.063 499.653 163.29 499.541 172.738C499.464 175.167 498.548 179.583 495.229 178.517C498.513 184.985 500.169 192.165 503.353 198.718C505.263 202.552 506.279 216.99 498.814 210.449C500.7 215.769 503.53 220.736 505.155 226.141C509.501 247.301 488.973 233.741 484.603 223.6C482.69 225.729 480.776 227.589 478.909 229.183C478.574 234.076 478.266 238.973 477.989 243.874C477.362 249.761 477.142 255.671 477.038 261.581C483.287 261.534 489.531 261.638 495.757 262.162C498.49 262.308 501.108 263.109 503.653 264.071C504.993 264.545 506.367 264.984 507.592 265.719C509.178 266.655 510.418 269.431 509.84 271.283C510.91 271.24 511.707 271.398 512.089 271.825C515.515 288.658 520.982 298.233 530.769 309.863C534.946 312.889 539.966 314.73 544.205 317.694C561.507 330.053 568.791 351.778 566.543 372.414C563.99 395.025 556.225 429.595 583.271 440.12C584.603 440.883 588.049 440.694 586.698 442.045C555.297 434.207 562.404 395.691 564.68 371.329C566.154 352.032 559.24 334.195 543.62 322.384C541.968 321.202 540.205 320.17 538.426 319.161C552.313 338.299 556.529 352.606 558.281 377.165C559.802 409.744 553.83 428.551 563.883 449.476C573.573 460.937 588.191 468.202 601.79 474.328C623.95 485.697 641.876 506.922 644.96 532.12C646.404 540.767 648.047 549.38 649.738 557.984C649.799 558.292 649.768 558.82 649.46 559.005C649.156 559.197 648.948 558.731 648.902 558.492C644.174 538.422 643.25 516.374 628.732 500.319C620.47 490.02 609.443 482.243 597.751 476.28C588.141 471.594 578.12 467.043 570.158 459.921C574.058 465.33 579.156 471.028 585.797 477.242C593.986 487.279 598.983 495.992 602.086 504.496C605.224 509.886 607.599 515.665 608.6 521.933C610.086 530.176 609.89 538.553 610.275 546.881C611.419 568.587 624.574 586.34 646.107 591.368C649.395 592.38 652.702 593.331 656.032 594.209C656.629 594.475 656.537 595.838 655.882 595.849C624.385 589.4 608.735 572.433 608.185 539.866C607.919 533.806 607.403 528.832 606.502 524.462C607.688 535.496 607.499 547.551 608.458 562.781C612.381 577.076 626.688 584.545 637.641 593.012C649.01 600.446 658.697 610.221 663.567 623.107C663.833 623.203 664.094 623.411 664.344 623.762C667.294 627.866 668.002 633.152 667.921 638.084Z" fill="white"/>
<path d="M638.203 770H124.986C125.264 762.119 126.669 754.519 128.898 747.131C130.357 742.276 132.174 737.51 134.253 732.813C137.021 725.332 139.023 717.424 143.582 710.775C149.538 701.62 154.466 691.814 160.707 682.859C171.36 669.746 184.072 658.096 198.983 650.015C211.442 643.485 228.605 632.774 241.676 642.238C241.83 642.349 241.984 642.461 242.138 642.58C242.619 642.946 243.093 643.343 243.559 643.766C243.316 641.676 244.163 639.196 245.461 640.925C245.641 641.984 245.819 643.042 245.996 644.109C246.954 649.868 247.948 655.693 249.688 661.28C265.735 698.351 320.258 709.54 356.818 708.843C366.281 709.389 375.217 705.435 384.642 705.347C390.81 705.004 396.819 703.507 402.929 702.744C431.955 698.994 461.831 698.055 489.92 689.562C499.168 685.762 508.423 680.534 513.844 671.848C520.258 661.264 519.546 648.282 521.848 636.47C521.898 635.724 522.029 634.753 522.303 633.883C522.811 632.27 523.812 631 525.714 632.143C527.046 632.644 528.32 633.079 529.544 633.46C531.388 634.041 533.121 634.499 534.777 634.892C544.856 637.294 552.036 637.225 564.298 646.184C571.209 651.89 579.155 656.34 585.439 662.781C589.647 667.413 593.628 672.229 598.217 676.476C599.792 678.174 601.208 679.995 602.54 681.877C605.574 686.147 608.208 690.721 611.453 694.844C615.376 701.235 618.191 708.238 621.282 715.087V715.091C621.994 716.674 622.722 718.244 623.481 719.8C625.987 724.87 629.171 729.598 631.104 734.942C632.093 737.841 632.894 740.79 633.575 743.774C635.554 752.413 636.532 761.318 638.203 770Z" fill="#73D88B"/>
<path d="M301.828 619.777C299.672 631.966 290.259 632.875 280.188 635.908C268.845 638.842 257.511 641.922 245.996 644.109C245.368 644.228 244.744 644.348 244.117 644.459C243.139 644.459 242.508 643.57 242.138 642.58C242.1 642.488 242.069 642.396 242.038 642.299C241.919 642.276 241.795 642.257 241.676 642.238C228.051 639.855 219.3 643.277 206.945 648.567C200.985 651.763 195.099 655.193 189.593 659.132C184.007 663.944 178.721 669.161 173.654 674.516C164.857 685.831 156.618 697.658 150.227 710.517C144.452 720.092 139.093 730.01 136.409 740.944C135.874 742.673 135.216 744.363 134.596 746.068C134.615 747.227 133.965 749.01 132.582 748.509C131.362 748.032 130.13 747.578 128.898 747.131C119.412 743.704 109.621 741.017 100.52 736.597C57.0338 715.496 65.2805 670.624 98.0517 643.531C106.787 634.869 117.81 627.134 121.968 615.076C130.711 582.497 97.9363 544.305 125.129 511.03C135.25 501.12 147.671 493.566 155.937 481.793C166.466 468.872 172.719 450.847 164.426 435.196C164.264 434.865 164.106 434.53 163.952 434.199C163.517 433.264 163.101 432.324 162.709 431.385C151.983 405.721 157.272 378.239 178.678 359.255C178.405 357.827 179.98 355.505 182.451 352.799C188.357 346.327 199.376 337.66 202.352 333.791C202.356 333.795 202.356 333.787 202.356 333.787C202.421 333.703 202.483 333.622 202.541 333.541C215.611 318.649 225.036 299.696 224.705 279.529C224.601 279.629 224.463 279.622 224.301 279.41C223.696 278.474 223.073 276.58 224.282 276.295C224.474 276.245 224.709 276.241 225.002 276.288C225.198 275.795 225.675 275.999 225.783 276.388C225.841 276.399 225.895 276.411 225.953 276.422C226.172 276.465 226.391 276.507 226.611 276.549C227.015 276.63 227.423 276.711 227.831 276.796C229.695 277.173 231.597 277.589 233.502 278.039C238.427 279.194 243.393 280.569 247.886 282.136C248.333 281.793 248.641 282.297 248.852 283.167C248.956 283.579 249.037 284.076 249.103 284.604C250.292 296.989 248.537 306.806 246.057 318.152C241.768 333.837 238.969 350.003 239.062 366.304C239.02 374.532 241.068 382.644 241.072 390.906C241.992 414.853 231.069 377.966 229.264 373.408C212.416 371.879 212.774 393.016 216.924 404.215C220.817 415.611 234.207 418.653 243.389 424.651C246.061 426.603 245.919 430.569 246.974 433.471C250.362 444.79 251.509 456.591 254.6 467.975C259.956 491.064 268.861 508.535 288.511 522.614C299.253 531.404 298.175 548.814 300.227 561.511C301.597 580.873 304.019 600.4 301.828 619.777Z" fill="black"/>
<path d="M487.879 282.729V282.775C487.864 282.771 487.852 282.767 487.841 282.759C487.852 282.748 487.864 282.736 487.879 282.729ZM664.344 623.762C664.094 623.411 663.832 623.203 663.566 623.107C658.696 610.221 649.01 600.446 637.641 593.012C626.687 584.546 612.381 577.077 608.458 562.781C607.499 547.551 607.688 535.497 606.502 524.462C605.766 517.582 604.496 511.103 602.086 504.496C598.983 495.992 593.985 487.279 585.796 477.242C579.155 471.028 574.058 465.33 570.158 459.921C567.574 456.337 565.515 452.879 563.882 449.476C553.83 428.551 559.801 409.744 558.281 377.165C556.529 352.606 552.313 338.299 538.426 319.161C537.594 318.014 536.728 316.847 535.823 315.661C534.022 313.652 532.339 311.731 530.768 309.863C520.982 298.233 515.515 288.658 512.088 271.825C511.707 271.398 510.91 271.24 509.84 271.283C509.305 271.302 508.704 271.371 508.05 271.479C507.819 271.517 507.58 271.56 507.337 271.606C506.918 271.691 506.483 271.787 506.032 271.895C500.973 273.1 494.397 275.729 492.392 276.545C491.506 276.85 490.02 277.731 488.746 278.813C487.148 280.168 485.889 281.843 486.609 283.09C486.832 283.479 487.244 283.826 487.899 284.107C488.669 293.763 488.9 303.492 490.216 313.09C492.757 325.618 495.749 338.022 494.756 350.943C493.597 361.5 493.566 371.887 492.942 382.571C492.318 403.977 502.136 369.046 504.119 365.234C508.05 365.808 510.841 367.694 512.843 371.098C518.756 380.507 521.001 392.561 512.558 401.147C505.878 409.02 494.821 412.982 490.84 423.019C487.19 433.676 486.99 445.229 483.694 456.009C481.743 461.565 480.364 467.34 477.966 472.734C472.214 485.027 463.108 495.199 454.712 505.682C449.66 512.25 448.659 520.928 448.082 528.955C446.808 555.282 447.786 581.704 447.166 608.05C446.654 613.047 446.65 615.819 451.474 618.375C466.789 626.014 484.345 628.224 501.123 630.572C508.173 631.835 515.214 632.894 522.302 633.883C523.511 634.057 524.72 634.222 525.929 634.388C527.269 634.765 528.108 634.172 528.562 633.213C528.89 633.294 529.217 633.375 529.544 633.46C531.296 633.903 533.044 634.38 534.776 634.892C551.043 639.677 566.473 647.389 579.44 658.396C583.175 661.334 586.389 664.837 589.67 668.256C593.87 672.853 598.394 677.215 602.54 681.877C605.085 684.73 607.484 687.695 609.586 690.898C614.333 698.529 618.067 706.71 621.282 715.087V715.091C622.268 717.655 623.203 720.239 624.1 722.83C626.033 728.462 627.577 734.218 629.271 739.924C629.887 742.523 630.861 744.143 633.575 743.774C633.729 743.755 633.887 743.731 634.049 743.697C654.912 742.861 666.223 720.046 664.009 701.185C663.097 691.036 658.708 680.996 661.395 670.762C662.766 664.318 665.114 658.165 666.839 651.832C667.767 647.316 667.817 642.677 667.921 638.084C668.002 633.152 667.293 627.866 664.344 623.762Z" fill="black"/>
<path d="M382.482 440.455C375.147 438.684 369.329 431.442 368.227 424.162C368.301 423.257 368.758 421.714 369.924 421.929C371.494 423.111 371.756 425.552 373.023 427.092C376.746 433.221 387.757 439.851 390.367 429.275C392.065 415.084 384.065 401.547 382.891 387.476C380.398 372.359 380.238 356.64 382.432 341.487C382.229 340.924 382.237 339.576 383.065 339.644C385.154 338.711 383.872 345.591 383.952 346.634C384.086 357.139 383.9 367.701 385.012 378.159C386.305 392.184 391.429 405.374 393.532 419.223C395.291 426.649 393.1 442.885 382.482 440.455Z" fill="black"/>
<path d="M374.484 501.447C382.848 500.515 383.305 490.983 384.047 484.384C385.424 476.715 386.194 469.015 386.925 461.28C378.395 470.104 368.799 478.07 359.257 465.311C362.786 477.077 354.57 503.807 374.484 501.447ZM369.573 505.886C351.613 501.332 361.708 475.868 357.198 462.774C356.264 461.784 355.289 459.748 356.74 458.804C356.739 458.804 356.738 458.801 356.738 458.801C357.097 458.685 357.418 458.947 357.679 459.163C358.069 458.951 358.327 459.471 358.375 459.79C370.091 472.095 376.015 467.529 387.183 458.004C388.889 455.767 388.754 459.759 388.454 460.787C387.749 470.458 386.625 480.08 385.401 489.697C384.547 499.018 380.367 507.642 369.573 505.886Z" fill="black"/>
<path d="M341.047 364.652C341.948 365.652 341.898 367.644 340.749 368.438C334.609 371.901 328.22 375.407 321.227 376.737C317.341 377.193 313.41 377.384 309.495 377.362C301.533 377.398 294.142 373.945 286.612 371.804C282.814 370.859 279.296 369.216 275.869 367.359C273.337 366.253 271.188 366.15 271.499 362.705C266.54 361.575 282.331 349.362 284.04 348.084C289.088 344.679 294.66 341.732 300.877 341.593C306.019 341.168 311.423 340.745 315.877 343.567C326.329 347.235 334.143 356.328 341.047 364.652ZM338.14 366.077C332.67 360.862 327.689 354.84 321.425 350.574C325.304 361.837 316.05 375.251 303.623 371.976C293.07 370.43 290.366 353.815 296.721 346.755C287.794 348.79 280.343 354.619 273.595 360.544C279.427 364.301 285.521 366.529 292.011 368.812C307.348 375.471 324.008 375.788 338.14 366.077Z" fill="black"/>
<path d="M479.183 345.075C479.926 348.325 471.309 353.032 468.899 354.98C452.313 368.169 429.76 369.398 409.49 367.025C404.331 367.323 406.66 362.177 407.981 359.327C409.394 356.16 410.73 352.942 412.485 349.941C422.665 333.962 446.696 324.756 463.74 335.02C467.325 336.652 470.52 338.921 473.862 340.962C475.537 342.342 478.451 342.901 479.183 345.075ZM475.606 346.349C466.824 341.759 458.377 334.549 447.882 335.253C460.164 341.696 450.85 360.377 438.731 359.619C429.317 359.949 423.573 350.126 427.023 341.732C418.811 346.326 413.205 353.831 409.009 362.068C423.281 363.231 437.903 362.443 451.913 359.374C460.81 357.22 468.63 352.138 475.606 346.349ZM427.785 341.976C427.954 341.629 428.132 341.293 428.316 340.97C428.043 341.123 427.77 341.281 427.504 341.44C427.627 341.488 427.739 341.652 427.785 341.976Z" fill="black"/>
<path d="M333.877 349.699C329.453 340.269 318.393 336.858 308.78 335.731C302.243 335.535 296.013 337.754 289.795 339.434C289.8 339.429 289.804 339.424 289.808 339.42C287.059 336.753 294.952 335.457 296.556 334.711C309.505 328.625 327.011 333.418 333.972 346.215C334.389 347.301 335.329 348.523 334.76 349.699C334.558 350.124 334.072 350.139 333.877 349.699Z" fill="black"/>
<path d="M406.433 348.661C406.325 346.741 408.25 345.437 409.109 343.859C410.737 341.488 412.377 339.133 414.245 336.942C421.152 326.797 434.553 324.399 446.011 325.956C446.673 326.087 446.658 327.571 446.011 327.69C427.789 328.141 418.01 333.49 407.534 348.195C407.692 349.049 406.772 349.668 406.433 348.661Z" fill="black"/>
<path d="M453.303 332.65C452.841 330.229 455.805 328.497 456.899 326.546C459.759 323.125 462.146 318.718 465.504 315.983C467.621 317.951 463.875 319.75 463.059 321.472C461.842 322.856 454.396 333.77 453.303 332.65Z" fill="black"/>
<path d="M463.348 337.956C462.096 336.547 464.329 334.849 465.072 333.706C467.244 330.988 469.442 328.29 471.764 325.699C473.023 324.145 474.582 322.755 475.452 320.93C476.13 319.648 476.861 321.668 476.318 322.294C474.228 325.857 471.44 328.953 468.753 332.071C466.901 333.844 465.453 336.788 463.348 337.956Z" fill="black"/>
<path d="M473.457 343.389C473.03 342.301 475.483 339.646 476.122 338.638C478.374 335.628 480.684 332.443 482.705 329.323C483.583 328.266 483.956 326.508 485.154 325.846C486.159 326.098 486.108 327.658 485.731 328.41C482.443 333.613 478.351 338.247 474.197 342.773C474.428 343.296 473.796 343.856 473.457 343.389Z" fill="black"/>
<path d="M272.021 360.626C267.795 359.298 263.999 357.476 260.073 355.471C257.862 354.271 254.926 353.916 253.057 352.319C252.829 351.775 252.867 350.471 253.663 350.511C258.326 352.188 262.753 354.403 267.092 356.767C268.957 357.792 271.543 358.198 272.86 359.923C273 360.612 272.72 360.961 272.021 360.626Z" fill="black"/>
<path d="M277.203 355.334C274.183 351.93 270.793 348.879 267.446 345.807C266.475 344.966 264.722 344.281 265.063 342.72C265.117 342.431 265.345 341.799 265.764 341.946C270.124 345.208 273.817 349.495 277.569 353.438C278.461 353.577 278.166 356.21 277.203 355.334Z" fill="black"/>
<path d="M286.152 347.789C282.741 344.429 280.786 339.656 277.635 336.112C276.409 335.55 276.777 331.746 278.253 333.371C279.845 336.158 281.588 338.854 283.138 341.664C283.975 342.938 285.603 347.196 287.132 347.225C287.337 347.225 287.388 347.548 287.388 347.695C287.429 348.485 286.51 348.113 286.152 347.789Z" fill="black"/>
<path d="M309.113 385.778C308.191 385.562 304.794 386.24 305.833 384.549C310.472 384.216 315.278 384.511 319.556 382.31C320.211 382.08 320.974 381.206 321.205 382.378C321.276 385.412 311.485 386.167 309.113 385.778Z" fill="black"/>
<path d="M429.313 375.959C425.96 375.993 422.734 375.106 419.465 374.503C419.253 374.642 419.111 374.34 419.107 374.145C418.618 372.088 422.745 373.428 423.816 373.443C427.358 373.857 431.03 373.927 434.526 373.138C435.065 373.005 435.277 373.791 435.315 374.178C435.5 376.843 431.034 375.67 429.313 375.959Z" fill="black"/>
<path d="M281.78 426.21C281.504 425.556 281.684 424.162 282.535 424.101C285.341 421.621 287.935 418.626 290.299 415.823C291.432 414.268 292.074 416.936 291.37 417.713C290.263 418.637 282.427 428.397 281.78 426.21Z" fill="black"/>
<path d="M299.432 425.46C298.002 423.323 304.498 415.434 306.181 413.636C306.664 413.317 307.04 413.983 307.146 414.356C307.598 417.124 304.032 418.595 302.884 420.859C301.915 422.172 300.924 423.481 300.155 424.924C300.06 425.217 299.782 425.795 299.432 425.46Z" fill="black"/>
<path d="M314.145 422.591C312.454 421.244 317.015 416.385 317.527 414.506C318.099 413.648 318.3 412.166 319.338 411.788C320.43 412.065 320.358 413.729 319.963 414.549C318.6 417.082 316.759 419.33 315.121 421.687C314.827 421.987 314.63 422.638 314.145 422.591Z" fill="black"/>
<path d="M419.997 416.643C418.333 416.262 419.096 414.064 420.016 413.255C422.206 410.907 424.216 408.362 426.418 406.071C427.666 405.64 427.827 408.073 427.327 408.766C425.363 411.18 422.819 413.117 420.72 415.438C420.736 415.838 420.578 416.778 419.997 416.643Z" fill="black"/>
<path d="M432.351 416.713C431.974 416.412 432.259 415.484 432.651 415.365C433.352 414.499 439.793 402.348 438.742 408.612C436.536 411.188 434.557 414.314 432.351 416.713Z" fill="black"/>
<path d="M449.272 417.502C448.933 416.84 448.91 415.446 449.799 415.242C451.713 411.835 453.922 408.604 456.075 405.343C457.803 403.58 459.301 408.289 456.04 410.291C454.238 412.189 452.667 414.302 451.243 416.493C450.858 417.094 449.934 418.587 449.272 417.502Z" fill="black"/>
<path d="M348.549 326.64C337.758 323.042 328.357 316.16 317.643 312.419C299.502 305.258 278.759 305.111 261.044 313.611C258.817 314.429 256.808 316.151 254.53 316.645C253.786 316.231 254.109 314.965 254.649 314.485C278.541 295.837 309.985 299.859 334.275 315.537C339.084 318.449 344.244 320.758 348.921 323.885C349.757 324.422 349.621 326.72 348.549 326.64Z" fill="black"/>
<path d="M390.687 325.059C388.303 322.165 392.831 320.541 394.81 319.328C397.867 317.628 400.793 315.716 403.661 313.72C414.356 305.991 426.418 300.506 439.651 299.169C459.039 295.247 470.79 300.663 486.644 311.864C486.979 312.093 486.852 313.07 486.398 312.931C481.92 310.239 477.2 307.916 472.48 305.694C455.69 297.786 437.583 303.291 420.959 309.143C411.627 313.458 403.461 319.914 394.098 324.15C393.016 324.503 391.845 325.535 390.687 325.059Z" fill="black"/>
<path d="M370.833 284.607C358.864 284.168 346.878 284.69 334.936 283.492C323.085 283.087 311.302 281.078 299.432 281.345C276.94 280.501 253.851 286.532 231.779 280.731C229.718 279.754 226.855 279.619 225.335 277.976C225.124 276.502 225.723 276.102 227.154 276.612C246.644 282.147 267.04 276.687 286.912 276.629C312.106 275.116 337.007 280.814 362.189 280.428C390.282 282.239 418.144 275.334 446.296 277.443C455.389 278.507 464.325 279.153 473.411 280.077C482.22 280.382 490.944 278.969 499.137 275.701C501.759 274.725 504.97 273.898 506.39 271.328C506.71 270.746 507.603 270.735 507.93 271.328C508.92 272.41 508.569 275.677 506.995 275.749C505.07 277.148 502.979 278.349 500.662 279.007C495.433 280.715 490.236 282.973 484.684 283.266C471.725 284.804 458.847 281.644 445.992 280.557C420.774 278.644 395.945 283.944 370.833 284.607Z" fill="black"/>
<path d="M509.84 271.283C509.644 271.922 509.232 272.449 508.543 272.757C508.512 272.742 508.485 272.73 508.458 272.715C507.626 272.283 507.472 271.949 507.338 271.606C507.249 271.39 507.172 271.167 506.926 270.921C506.521 270.513 505.667 270.035 503.592 269.369C495.283 265.569 485.955 265.816 476.98 265.631C476.534 265.623 476.087 265.611 475.644 265.6C475.021 265.596 474.397 265.592 473.773 265.585C459.836 265.473 445.919 265.069 432.055 263.744C430.853 263.633 429.652 263.509 428.451 263.378C426.445 263.163 424.439 262.928 422.437 262.67C415.365 262.077 408.292 261.6 401.216 261.249C397.628 261.068 394.04 260.918 390.452 260.807C389.689 260.78 388.923 260.76 388.161 260.741C383.264 260.603 378.363 260.529 373.462 260.522C372.668 260.518 371.872 260.518 371.078 260.522C368.772 260.526 366.466 260.545 364.16 260.58C363.04 260.599 361.919 260.618 360.799 260.641C357.161 260.722 353.526 260.834 349.888 260.988C349.449 261.042 349.01 261.092 348.571 261.138C338.958 262.25 329.321 262.974 319.685 263.729C318.969 263.783 318.256 263.84 317.54 263.898C313.174 264.241 308.812 264.599 304.446 265.011C298.444 265.215 292.461 265.646 286.509 266.451C282.201 266.813 277.885 266.986 273.581 267.19C272.457 267.24 271.34 267.298 270.22 267.359C264.295 267.679 258.385 268.164 252.521 269.388C243.859 270.443 233.664 270.724 226.7 276.476C226.669 276.499 226.642 276.522 226.611 276.549C226.426 276.703 226.245 276.857 226.068 277.019C226.214 277.258 226.349 277.516 226.53 277.735C226.946 277.785 226.931 278.94 226.484 278.852C226.469 278.848 226.449 278.844 226.434 278.836C225.76 278.671 224.929 278.886 224.567 278.089C224.262 277.543 224.216 276.911 224.282 276.295C224.316 275.964 224.386 275.633 224.467 275.325C226.068 270.524 234.288 268.584 238.692 267.175C243.955 265.7 249.449 265.6 254.824 264.78C259.783 263.729 264.776 263.24 269.793 263.005C270.967 262.951 272.145 262.909 273.327 262.878C276.068 262.805 278.813 262.782 281.566 262.762C293.455 261.654 305.37 260.88 317.29 260.183C318.091 260.133 318.896 260.087 319.7 260.041C325.167 259.725 330.638 259.421 336.109 259.105C340.298 258.462 344.506 258.05 348.721 257.815C350.007 257.742 351.293 257.688 352.583 257.65C353.203 257.627 353.823 257.611 354.443 257.6C356.429 257.557 358.423 257.55 360.414 257.573C361.411 257.584 362.408 257.603 363.405 257.627C363.555 257.623 363.706 257.619 363.856 257.615C366.173 257.557 368.495 257.523 370.813 257.507C371.667 257.503 372.518 257.5 373.373 257.5C378.193 257.503 383.01 257.596 387.826 257.761C388.681 257.788 389.535 257.819 390.39 257.854C394.548 258.019 398.702 258.235 402.856 258.489C411.411 259.016 419.958 259.717 428.493 260.491C429.71 260.603 430.927 260.714 432.147 260.826C433.214 260.93 434.28 261.03 435.346 261.13C448.14 262.42 460.999 261.8 473.839 261.615C474.905 261.6 475.972 261.588 477.038 261.581C483.287 261.534 489.531 261.638 495.757 262.162C498.49 262.308 501.108 263.109 503.653 264.071C504.993 264.545 506.367 264.984 507.592 265.719C509.178 266.655 510.418 269.431 509.84 271.283Z" fill="black"/>
<path d="M282.702 223.05C279.187 224.455 275.649 226.049 272.007 227.142C270.509 227.593 268.992 227.959 267.452 228.193C265.685 228.463 263.887 228.555 262.047 228.401C256.73 229.768 251.428 226.372 247.139 223.55C241.414 219.781 239.455 212.62 239.897 206.087C239.736 198.91 243.651 192.404 243.582 185.293C240.694 177.092 236.132 168.568 239.274 159.686C240.752 155.413 243.305 151.601 244.795 147.324C246.111 143.455 244.679 139.451 244.675 135.505C244.31 128.702 249.099 123.52 252.341 118.068C254.32 113.656 252.679 108.628 253.473 103.989C254.435 97.8555 261.034 94.7716 266.574 93.863C275.075 92.812 278.933 102.079 281.616 108.585C285.266 116.986 278.243 127.354 281.624 134.492C282.815 136.187 284.195 137.734 285.561 139.295C286.752 140.655 287.931 142.026 288.962 143.513C297.428 154.886 285.782 167.159 289.258 179.287C290.895 183.53 293.767 187.195 294.872 191.676C299.099 203.361 296.084 219.331 282.702 223.05Z" fill="#73D88B"/>
<path d="M341.406 201.848C340.043 205.27 338.696 209.04 335.57 211.246C331.304 214.048 326.029 214.172 321.009 214.172C320.154 214.172 319.307 214.168 318.476 214.172C318.014 214.218 317.559 214.249 317.12 214.268C300.096 215.057 298.56 198.071 301.139 184.546C303.099 172.395 304.562 160.018 303.072 147.728C301.505 138.284 298.194 129.017 300.084 119.315C300.82 114.499 302.733 109.956 303.826 105.224C306.267 92.8312 295.229 80.2455 303.557 68.3837C302.129 65.2113 304.754 63.6867 306.806 61.7848C312.038 56.3409 321.721 56.7259 326.237 62.8859C334.565 70.8207 333.036 82.3977 332.848 92.7927C333.579 102.649 332.366 112.566 333.31 122.418C334.334 132.282 338.392 141.222 341.345 150.558C344.232 160.125 345.703 170.024 345.568 180.026C345.918 187.564 344.332 194.918 341.406 201.848Z" fill="#73D88B"/>
<path d="M402.856 258.489C402.448 259.517 401.913 260.441 401.216 261.249C399.122 263.694 395.584 265.099 389.747 265.134C389.62 265.134 389.489 265.134 389.354 265.13C388.988 265.13 388.611 265.122 388.226 265.111C380.234 265.696 372.202 265.515 364.198 265.816C363.96 265.823 363.721 265.831 363.482 265.842C362.955 265.881 362.431 265.927 361.908 265.981C358.004 266.354 354.131 266.986 350.231 267.367C347.863 266.732 347.693 263.267 348.571 261.138C348.687 260.853 348.821 260.595 348.972 260.368C348.887 259.521 348.806 258.67 348.721 257.815C347.551 245.53 346.777 232.467 353.168 221.448C355.775 217.067 356.602 217.159 356.163 211.812C354.931 195.23 364.275 193.616 365.003 183.383C365.115 178.809 364.903 174.228 365.242 169.658C365.28 160.83 370.705 143.582 381.612 153.804C388.446 163.217 387.114 180.927 384.946 191.946C396.123 196.854 394.698 207.415 393.916 217.64C401.963 222.183 402.182 233.271 403.553 241.433C404.042 248.275 404.539 254.25 402.856 258.489Z" fill="#73D88B"/>
<path d="M464.225 203.665C458.974 215.554 445.699 223.854 432.771 222.965C431.435 222.873 430.103 222.684 428.786 222.388C426.988 221.991 425.213 221.398 423.488 220.593C416.185 216.955 408.046 213.694 402.575 207.442C393.139 193.597 398.733 179.864 411.292 170.451C402.132 164.761 400.119 152.063 402.748 142.281C405.101 135.031 411.222 130.003 416.913 125.337C405.836 111.427 418.784 90.7714 433.356 85.4122C457.468 79.3446 465.457 108.343 448.205 122.23C467.113 128.521 468.483 152.887 452.406 163.352C459.863 167.702 464.175 176.026 465.326 184.4C466.112 190.787 466.466 197.517 464.225 203.665Z" fill="#73D88B"/>
<path d="M469.611 146.739V146.731C469.619 146.747 469.631 146.762 469.638 146.777C469.627 146.762 469.619 146.75 469.611 146.739ZM505.155 226.141C503.53 220.736 500.7 215.769 498.814 210.449C506.279 216.99 505.262 202.552 503.353 198.718C500.169 192.165 498.513 184.985 495.229 178.517C498.548 179.583 499.464 175.167 499.541 172.738C499.653 163.29 493.909 155.063 490.667 146.481C503.703 152.66 500.85 140.979 496.107 133.66C499.892 130.973 498.074 124.759 495.684 121.61C492.7 117.579 490.605 113.013 488.727 108.389C486.409 99.5109 482.651 110.229 480.68 113.29C479.66 115.411 476.761 119.446 478.066 121.698C475.155 127.978 472.029 134.207 469.454 140.656C465.346 146.831 468.399 153.977 476.253 150.254C474.74 156.772 471.787 162.867 469.165 168.996C468.391 170.747 467.017 172.88 466.578 174.921C465.611 179.541 470.004 182.386 474.108 180.553C472.822 186.875 471.925 193.316 469.246 199.245C467.806 203.349 465.403 207.034 463.983 211.134C462.778 214.922 466.889 215.966 469.596 214.391C453.538 235.32 461.988 241.072 475.028 232.163C476.287 231.304 477.585 230.311 478.909 229.183C480.776 227.589 482.69 225.729 484.603 223.6C488.973 233.741 509.501 247.301 505.155 226.141Z" fill="#73D88B"/>
<path d="M273.581 267.19C273.461 268.203 273.119 269.107 272.36 269.796C271.494 270.328 270.636 269.442 270.347 268.618C270.304 268.199 270.258 267.779 270.22 267.359C270.07 265.908 269.927 264.456 269.792 263.005C268.703 251.432 267.971 239.824 267.452 228.193C265.831 192.257 266.196 156.121 264.179 120.235C263.987 112.197 262.924 103.861 264.93 96.0459C267.159 94.3904 266.085 100.612 266.146 101.582C267.475 143.482 270.216 185.289 272.006 227.142C272.476 238.138 272.88 249.133 273.177 260.137C273.111 260.965 273.207 261.904 273.327 262.878C273.504 264.326 273.739 265.85 273.581 267.19Z" fill="black"/>
<path d="M321.009 214.172C320.824 217.81 320.601 221.448 320.336 225.086C320.262 236.74 319.793 248.39 319.7 260.04C319.693 261.269 319.685 262.501 319.685 263.729C319.685 264.283 319.689 264.841 319.689 265.396C319.662 266.374 318.384 267.637 317.729 266.243C317.664 265.461 317.602 264.68 317.54 263.898C317.448 262.658 317.363 261.423 317.29 260.183C316.351 244.937 316.663 229.61 317.121 214.268C317.629 197.386 318.318 180.484 317.729 163.656C317.125 130.823 313.802 97.917 315.692 65.0919C315.846 63.3132 315.716 60.4373 316.967 60.3872C318.164 61.0918 317.39 62.6241 317.614 63.7444C318.792 113.81 323.554 164.068 321.009 214.172Z" fill="black"/>
<path d="M362.38 267.612C359.017 256.997 360.359 245.088 359.321 234.008C359.253 233.246 358.911 231.069 360.028 231.071C360.564 230.848 360.816 231.801 360.816 232.22C361.048 236.54 361.773 240.937 362.196 245.273C362.076 247.814 366.894 270.005 362.38 267.612Z" fill="black"/>
<path d="M371.377 263.717C367.751 227.292 369.43 190.663 373.079 154.313C373.14 154.082 373.302 153.747 373.586 153.747C374.817 153.456 373.936 161.773 373.999 162.857C372.915 187.901 371.719 213.275 372.746 238.31C373.184 245.606 373.199 252.917 373.461 260.22C373.404 261.708 374.102 263.671 372.782 264.763C372.1 265.187 371.536 264.313 371.377 263.717Z" fill="black"/>
<path d="M388.631 264.337C386.621 250.045 386.421 235.486 384.893 221.125C385.246 218.351 383.36 207.88 385.019 206.841C385.558 206.76 385.716 207.514 385.712 207.923C385.701 216.253 387.322 224.608 388.249 232.901C388.065 234.682 393.027 271.174 388.631 264.337Z" fill="black"/>
<path d="M437.991 91.3951C432.667 135.073 433.098 179.033 432.771 222.965C432.675 235.589 432.521 248.213 432.147 260.826C432.116 261.8 432.089 262.774 432.055 263.744C432.024 264.784 431.989 265.823 431.951 266.863C432.474 269.319 429.999 273.75 428.351 269.234C428.386 267.282 428.42 265.33 428.451 263.378C428.467 262.416 428.478 261.453 428.494 260.491C428.667 247.805 428.717 235.1 428.786 222.388C429.029 178.69 429.51 134.923 436.005 91.707C436.271 86.4055 439.258 88.3267 437.991 91.3951Z" fill="black"/>
<path d="M485.346 110.884C484.881 131.289 485.119 151.767 483.706 172.172C481.851 191.156 480.195 210.156 478.909 229.183C478.574 234.076 478.266 238.973 477.989 243.874C477.361 249.761 477.142 255.671 477.038 261.581C477.015 262.932 476.996 264.279 476.98 265.631C476.961 267.309 476.942 268.984 476.923 270.663C476.615 273.223 474.124 273.585 473.727 270.663C473.735 268.969 473.75 267.275 473.773 265.585C473.792 264.26 473.812 262.94 473.839 261.615C474.035 251.798 474.459 241.984 475.028 232.163C476.36 209.363 478.49 186.548 480.399 163.671C480.484 162.651 480.568 161.631 480.653 160.61C481.877 145.815 482.99 130.992 483.718 116.135C483.949 114.33 484.195 108.782 485.346 110.884Z" fill="black"/>
<path d="M230.126 108.801C226.53 112.816 220.621 113.463 215.596 112.285C212.135 111.869 208.913 108.508 205.405 110.056C183.318 122.792 186.263 109.109 169.404 113.752C163.498 115.662 158.1 119.72 151.629 119.281C148.937 119.207 146.208 118.865 143.721 117.791C141.503 116.705 139.239 115.408 136.679 115.565C131.443 115.469 126.846 118.803 121.614 118.707C118.68 118.78 113.987 117.779 114.584 113.945C116.078 113.325 114.615 110.387 115.057 108.993C115.365 103.58 120.101 100.239 124.636 104.208C125.233 104.77 125.76 104.955 126.034 104.042C124.344 95.1373 133.988 96.9545 139.655 98.044C139.963 98.1018 140.356 98.2481 140.583 97.9478C141.249 96.7928 140.086 95.5954 139.936 94.4289C139.043 88.7732 147.209 84.5883 151.937 86.648C153.118 87.4758 153.523 86.1514 153.261 85.1812C152.333 82.4015 154.146 79.6025 155.733 77.435C158.324 73.8622 162.197 71.5637 166.336 70.17C174.636 66.8475 190.756 73.0306 188.242 83.7336C187.973 84.2764 187.911 86.0821 188.889 85.5854L188.893 85.5893C190.721 82.3861 193.717 79.7411 197.078 78.1588C203.896 75.4907 214.769 76.6881 216.959 84.9078C217.333 86.6711 217.175 88.4036 216.867 90.2093C216.624 90.8676 215.981 92.4615 217.117 92.6271C219.473 90.1207 222.753 90.0938 225.895 91.0293C234.858 93.0044 235.027 102.602 230.126 108.801ZM218.195 89.3623C220.848 72.7996 197.709 70.6012 189.89 81.8548C190.348 71.7139 178.586 66.089 169.716 67.0592C161.384 68.5415 151.998 75.0903 151.879 84.261C145.164 81.9202 136.359 89.2814 139.366 96.3616C133.907 95.3221 124.586 93.3393 124.836 101.663C115.608 95.2335 113.078 108.139 113.66 114.892C113.629 117.783 116.259 119.758 118.957 119.993C125.899 121.456 132.221 115.839 139.097 117.656C143.135 119.519 147.143 121.525 151.752 121.317C163.614 121.371 172.037 109.525 184.511 116.32C191.576 118.399 198.487 115.265 204.52 111.789C208.027 109.621 211.273 112.863 214.726 113.64C239.204 121.252 242.292 81.4505 218.195 89.3623Z" fill="black"/>
<path d="M569.261 76.9461C560.028 79.0944 550.473 78.5323 541.344 76.1453C531.843 75.6255 523.977 83.4333 514.437 82.9367C507.549 83.6297 501.87 77.8508 495.114 78.6747C489.797 79.4948 484.811 82.0935 479.375 82.1821C473.38 82.6749 469.727 77.9509 473.396 72.7072C473.685 72.9729 474.043 72.6803 474.143 72.38C474.936 72.996 475.04 71.4829 474.254 71.3867C474.212 71.0787 474.093 70.7861 473.85 70.6205C470.982 69.1036 471.093 66.0044 472.495 63.4672C474.662 59.5056 483.34 60.6413 483.899 65.4384C484.237 66.732 485.235 66.451 485.265 65.2267C485.435 63.987 484.53 63.0014 484.311 61.8964C484.153 58.1658 485.354 55.9366 488.692 54.2195C493.751 50.5697 501.543 51.4167 504.511 57.2918C504.623 57.8231 505.158 58.1658 505.474 57.5652C506.009 56.6989 505.343 55.8519 505.224 54.9895C506.821 38.0264 538.457 29.9915 544.336 48.1327C544.686 48.8603 544.344 52.4485 545.868 51.0972C551.224 45.4184 564.991 50.7083 562.6 58.955C562.015 60.4527 562.288 62.0081 564.229 61.111C567.863 60.4065 572.576 59.4786 575.428 62.4624C580.495 69.5733 578.431 76.28 569.261 76.9461ZM576.595 60.8916C573.835 56.903 568.248 57.8578 564.179 58.8472C566.327 49.3069 553.102 42.4732 545.964 48.4869C541.795 26.923 506.517 35.2587 504.207 53.7999C498.086 46.0729 483.129 50.9817 483.286 60.9686C480.819 58.4969 475.228 58.3236 472.645 60.6529C470.177 63.9639 469.041 69.4463 472.845 72.2452C470.127 76.3455 471.093 82.3823 476.58 83.2062C484.588 85.0657 492.303 78.3436 500.142 80.8846C504.993 82.8096 509.809 85.0311 515.161 84.8001C524.331 85.0349 531.904 78.0587 540.967 77.8547C550.042 79.8413 559.493 80.9347 568.668 78.8287C579.74 78.1165 581.931 69.5348 576.595 60.8916Z" fill="black"/>
<path d="M614.718 175.995C603.742 169.912 599.926 184.384 586.432 177.277C578.085 175.321 571.228 184.015 562.951 183.356C555.551 183.703 549.757 176.03 542.403 178.679C538.75 179.934 535.339 181.932 531.466 182.486C525.821 183.233 520.235 181.631 523.331 174.863C524.012 175.125 523.804 173.593 523.515 173.339C524.412 167.764 532.066 168.969 535.724 170.94C536.998 172.006 537.579 169.712 536.663 169.042C534.834 160.699 548.09 161.072 550.912 166.59C552.105 167.256 551.609 163.756 552.298 163.036C556.194 157.065 565.176 156.094 570.951 159.871C575.991 162.277 576.545 168.337 578.57 164.599C583.641 159.798 589.104 154.693 595.868 152.472C603.268 150.019 612.566 155.132 614.094 162.77C613.852 163.517 614.568 165.196 615.242 163.898C629.46 156.125 638.873 182.244 614.718 175.995ZM615.396 161.33C613.37 154.046 605.67 148.487 598.047 149.815C589.808 151.378 583.452 157.785 577.442 163.217C572.122 153.284 554.13 151.859 550.823 163.848C546.369 158.728 534.384 159.76 535.581 168.414C529.514 165.157 520.997 167.055 522.253 175.294C518.245 189.67 536.505 183.295 543.389 180.234C548.902 178.401 553.257 183.241 558.427 184.222C569.815 188.631 578.051 175.144 588.927 180.361C599.78 184.711 605.143 172.769 613.748 177.658C639.589 185.978 632.948 153.569 615.396 161.33Z" fill="black"/>
<path d="M226.834 292.785C224.062 319.061 203.969 339.416 182.452 352.799C182.375 352.849 182.301 352.895 182.224 352.941C165.196 363.498 145.746 371.256 132.532 386.867C125.098 394.787 120.216 403.8 120.709 414.945C120.717 415.095 120.667 415.369 120.493 415.415C120.297 415.469 120.205 415.165 120.197 415.022C120.089 381.162 156.349 365.881 180.95 350.423C188.542 345.53 195.83 340.04 202.352 333.791C202.356 333.795 202.356 333.787 202.356 333.787C208.504 327.905 213.975 321.348 218.387 313.979C221.783 306.949 224.64 299.426 226.103 291.792C226.399 289.016 227.778 293.035 226.834 292.785Z" fill="black"/>
<path d="M164.141 397.609C161.477 400.527 162.57 405.882 162.374 409.582C162.666 417.598 163.544 425.91 163.952 434.199C164.672 448.698 163.968 463.136 156.233 475.844C138.161 502.764 93.9286 519.215 99.9577 557.141C102.441 568.618 116.667 574.666 116.432 587.059C116.336 587.421 116.105 587.841 115.7 587.864C115.273 587.864 115.023 587.202 114.946 586.848C113.217 578.536 105.686 573.173 101.817 565.908C84.1034 524.559 137.079 501.928 156.021 473.046C163.063 460.479 163.587 445.453 162.709 431.385C162.67 430.769 162.628 430.153 162.586 429.541C162.439 423.862 159.771 399.018 163.979 396.715C164.33 396.523 164.437 397.447 164.141 397.609Z" fill="black"/>
<path d="M586.697 442.045C555.297 434.207 562.404 395.691 564.679 371.329C566.154 352.032 559.239 334.195 543.62 322.384C541.968 321.202 540.205 320.17 538.426 319.161C533.852 316.57 529.151 314.16 525.856 309.913C517.578 299.903 511.453 288.069 509.205 275.229C508.796 275.417 508.654 274.717 508.7 274.447C508.708 273.939 508.596 273.084 509.216 273.007C509.678 273.196 509.851 273.827 510.009 274.259C512.72 286.359 518.783 297.347 527.076 306.533C528.185 307.815 529.432 308.901 530.768 309.863C534.946 312.889 539.966 314.73 544.205 317.694C561.507 330.053 568.791 351.778 566.543 372.414C563.99 395.025 556.225 429.595 583.271 440.12C584.603 440.883 588.049 440.694 586.697 442.045Z" fill="black"/>
<path d="M655.882 595.849C624.385 589.4 608.735 572.433 608.185 539.866C607.919 533.806 607.403 528.832 606.502 524.462C604.104 512.774 598.987 505.424 588.792 493.223C570.478 472.341 558.704 464.591 549.734 435.924C548.498 431.604 546.631 426.364 548.001 422.11C547.886 427.947 549.553 433.833 551.921 439.304C559.259 460.853 576.384 472.969 590.783 489.158C594.91 493.936 598.891 499.018 602.086 504.496C605.224 509.886 607.599 515.665 608.6 521.933C610.086 530.176 609.89 538.553 610.275 546.881C611.419 568.587 624.574 586.34 646.107 591.368C649.395 592.38 652.702 593.331 656.032 594.209C656.629 594.475 656.537 595.838 655.882 595.849Z" fill="black"/>
<path d="M649.461 559.005C649.156 559.197 648.948 558.731 648.902 558.492C644.174 538.422 643.25 516.373 628.732 500.319C620.47 490.02 609.444 482.243 597.751 476.28C588.142 471.594 578.12 467.043 570.158 459.921C567.883 457.884 565.777 455.64 563.894 453.118C555.209 443.331 551.316 430.391 551.182 417.463C551.004 412.447 551.389 407.368 550.392 402.421C550.288 401.909 550.1 401.285 550.485 400.862C551.182 400.504 551.278 401.336 551.089 401.771C553.118 412.27 551.37 423.334 555.02 433.606C556.941 439.689 560.021 444.917 563.883 449.476C573.573 460.937 588.192 468.202 601.79 474.328C623.95 485.697 641.876 506.922 644.96 532.12C646.404 540.767 648.048 549.38 649.738 557.984C649.799 558.292 649.769 558.82 649.461 559.005Z" fill="black"/>
<path d="M110.646 704.739C99.7289 693.581 112.631 678.085 120.12 668.733C131.951 654.627 147.883 644.355 158.759 629.41C165.316 619.985 163.935 607.699 159.707 597.628C154.27 584.88 145.852 572.264 147.458 557.776C150.383 522.441 191.745 508.724 203.325 477.438C209.81 454.7 192.988 434.076 188.138 412.724C180.369 380.191 203.193 352.942 223.249 330.215C231.616 321.549 234.172 309.953 234.599 298.267C234.911 296.41 234.439 294.256 235.489 292.655C235.791 292.459 236.138 292.493 236.484 292.493C236.841 292.493 236.841 293.434 236.484 293.434C236.219 293.45 235.914 293.378 235.678 293.531C235.443 293.865 235.54 294.352 235.475 294.745C234.97 304.801 235.023 315.506 229.832 324.475C213.849 349.152 186.221 370.55 189.109 402.983C192.45 431.446 220.373 461.276 199.829 489.131C183.022 515.384 141.981 532.809 149.237 569.269C151.382 577.808 155.54 585.589 159.469 593.393C168.808 612.023 166.424 629.995 150.665 644.12C139.18 657.545 104.801 679.698 108.814 698.979C109.292 700.95 111.972 702.094 111.554 704.211C111.45 704.596 111.03 705.139 110.646 704.739Z" fill="white"/>
<path d="M179.898 558.997C176.541 542.107 207.527 524.285 217.551 512.142C255.348 468.102 207.315 452.321 205.476 416.281C205.462 414.556 205.366 409.501 207.069 409.37C207.491 409.37 207.491 410.491 207.068 410.491C206.42 410.602 206.493 411.688 206.348 412.193C204.345 433.652 225.063 446.523 231.397 465.292C243.479 494.251 219.834 517.109 198.719 533.448C190.892 539.928 181.811 547.331 180.696 558.119C180.643 558.473 180.366 559.143 179.898 558.997Z" fill="white"/>
<path d="M200.267 609.259C187.675 575.486 206.204 557.384 228.271 534.823C228.772 534.222 229.335 531.939 229.924 532.871C230.699 534.638 226.431 538.892 225.182 540.151C211.512 554.427 195.697 572.287 198.929 593.528C199.873 597.978 201.238 602.332 201.799 606.86C202.013 607.799 201.599 610.156 200.267 609.259Z" fill="white"/>
<path d="M221.741 589.739C219.213 587.279 222.821 576.507 224.128 573.357C235.397 547.039 263.568 530.122 250.162 498.329C249.961 497.381 248.945 495.095 250.001 494.733C250.396 494.733 250.475 495.356 250.462 495.668C267.385 536.601 231.136 550.173 223.318 584.507C222.982 585.727 223.351 590.02 221.741 589.739Z" fill="white"/>
<path d="M249.511 604.816C248.369 597.273 249.827 589.651 252.34 582.528C253.31 580.245 255.586 571.894 258.357 572.087C259.118 572.195 259.117 574.023 258.357 574.139C254.154 575.348 249.967 595.399 250.712 599.942C250.737 601.809 251.225 603.353 251.019 605.031C250.688 606.263 249.685 605.978 249.511 604.816Z" fill="white"/>
<path d="M161.125 667.344C156.975 664.21 173.294 649.391 175.446 645.799C182.314 636.078 186.85 624.451 185.262 612.45C184.972 607.353 181.74 602.806 181.451 597.824C181.931 596.527 182.714 597.793 182.254 598.594C185.124 606.132 187.729 614.029 186.932 622.229C185.605 630.11 183.152 638.06 179.132 645.002C175.815 650.357 171.17 654.773 167.255 659.601C165.359 662.004 163.601 664.51 161.859 667.02C161.699 667.259 161.409 667.428 161.125 667.344Z" fill="white"/>
<path d="M632.077 655.462C625.521 644.663 613.551 640.151 602.344 635.839C557.576 616.123 573.523 589.893 582.412 553.222C587.829 508.281 524.212 502.587 528.863 462.216C533.309 416.847 566.119 378.166 525.686 337.629C515.007 327.769 504.754 317.372 502.194 302.411C501.47 298.639 498.69 289.714 502.098 288.27C502.498 288.271 502.498 289.33 502.098 289.33C502.032 289.325 501.878 289.345 501.843 289.372C499.88 296.455 505.913 311.874 509.944 318.169C520.639 331.59 536.051 341.75 542.145 358.519C564.075 401.632 508.281 456.31 542.419 486.729C562.354 503.726 588.996 523.2 584.43 552.895C582.913 564.083 577.5 574.228 575.009 585.169C569.203 612.231 579.517 623.696 603.352 634.619C614.475 638.769 626.241 643.689 632.482 654.45C632.805 654.812 632.574 655.867 632.077 655.462Z" fill="white"/>
<path d="M547.72 616.5C540.367 603.233 544.463 586.22 547.951 572.268C561.773 533.987 555.528 521.009 522.345 498.829C511.103 490.09 510.006 474.674 510.984 461.515C511.349 457.68 510.895 450.461 514.499 448.321C515.076 448.044 515.192 449.534 514.749 449.711C511.411 451.99 512.281 457.18 511.784 460.652C511.261 470.643 511.261 481.254 516.809 489.993C521.529 497.062 529.614 500.692 536.309 505.567C550.589 515.011 560.783 531.158 557.311 548.714C554.258 569.919 540.382 592.107 549.064 613.478C550.061 614.475 549.314 618.441 547.72 616.5Z" fill="white"/>
<path d="M509.124 577.843C506.341 576.799 511.615 560.217 512.385 557.449C518.822 539.57 520.532 529.795 506.872 514.822C506.433 514.399 506.703 512.689 507.465 513.34C520.135 526.907 521.514 538.553 515.107 555.674C513.132 562.462 511.007 569.261 510.279 576.322C510.218 576.957 509.925 577.977 509.124 577.843Z" fill="white"/>
<path d="M478.335 611.961C461.033 585.516 475.894 553.445 487.083 527.639C491.984 515.611 488.426 502.81 486.674 490.517C486.37 489.82 487.371 487.957 487.841 489.805C489.269 501.486 492.661 513.509 489.558 525.19C481.527 549.761 465.838 576.149 476.965 602.306C478 605.324 481.392 608.042 480.26 611.415C480.033 612.254 478.917 612.92 478.335 611.961Z" fill="white"/>
<path d="M536.613 623.273C527.754 615.877 524.35 604.365 525.475 593.12C526.222 587.941 525.263 577.196 529.59 573.947C530.638 574.074 530.399 576.014 529.371 576.195C525.914 581.446 525.894 602.317 528.801 608.165C530.46 612.951 534.029 616.581 537.502 620.123C538.43 620.805 538.08 624.266 536.613 623.273Z" fill="white"/>
<path d="M650.03 654.508C649.383 646.927 649.834 638.707 645.645 632.02C635.908 618.449 619.604 613.012 605.928 604.608C592.889 597.609 600.554 582.39 599.149 588.877C592.369 610.46 647.559 608.685 651.058 640.987C651.566 645.711 652.217 650.623 651.794 655.278C651.108 656.802 650.073 655.686 650.03 654.508Z" fill="white"/>
<path d="M639.662 697.116C637.918 695.241 640.651 687.922 640.305 684.907C640.478 683.383 640.039 681.727 640.567 680.276C641.202 679.14 642.087 680.53 641.957 681.331C641.768 683.417 642.161 697.893 639.662 697.116Z" fill="white"/>
<path d="M228.197 667.009C225.252 664.071 233.179 659.382 234.424 661.388C235.1 662.874 234.703 664.649 232.85 664.606C231.203 664.957 229.769 667.521 228.197 667.009Z" fill="white"/>
<path d="M242.082 693.558C240.234 692.018 242.831 689.905 243.741 688.542C244.529 687.471 248.287 682.998 248.589 686.424C248.601 686.882 248.39 687.772 247.777 687.606C245.162 688.653 244.251 692.218 242.082 693.558Z" fill="white"/>
<path d="M282.803 718.587C281.297 717.317 282.982 714.075 283.276 712.419C283.767 711.083 284.387 707.591 286.094 707.514C287.231 707.487 287.309 709.632 286.364 709.874C284.658 710.837 284.727 719.299 282.803 718.587Z" fill="white"/>
<path d="M335.927 729.945C334.578 728.932 336.556 721.806 338.382 722.984C339.426 723.146 339.415 725.552 338.346 725.683C337.389 726.695 337.901 730.661 335.927 729.945Z" fill="white"/>
<path d="M403.688 735.773C403.199 731.92 402.471 722.687 405.17 719.861C406.856 719.265 407.076 722.71 405.674 722.965C404.539 724.555 406.864 738.973 403.688 735.773Z" fill="white"/>
<path d="M467.255 727.196C466.982 725.209 462.308 711.449 467.348 714.183C468.684 717.644 468.11 721.852 469.388 725.548C470.008 727.123 468.106 729.825 467.255 727.196Z" fill="white"/>
<path d="M523.469 707.568C521.837 705.974 514.834 702.702 516.05 700.246C517.34 698.975 522.545 703.187 524.143 703.88C525.252 704.6 525.186 708 523.469 707.568Z" fill="white"/>
<path d="M544.059 666.104C541.314 665.299 538.65 664.26 536.028 663.128C536.032 663.128 536.032 663.124 536.032 663.124C533.279 658.523 542.476 662.308 544.367 662.677C545.495 663.078 545.464 666.235 544.059 666.104Z" fill="white"/>
<path d="M539.158 645.56C538.811 644.867 538.776 643.443 539.689 643.212C541.067 643.381 540.374 647.1 539.158 645.56Z" fill="white"/>
<path d="M256.233 124.09C255.473 123.653 255.788 121.344 256.66 121.25C257.444 121.495 257.562 122.876 257.031 123.424C256.937 123.789 256.652 124.351 256.233 124.09Z" fill="white"/>
<path d="M248.811 147.254C247.419 146.266 250.017 138.447 251.081 137.267C251.951 136.983 251.989 138.861 251.413 139.173C250.497 140.43 250.139 147.923 248.811 147.254Z" fill="white"/>
<path d="M256.389 137.907C255.937 137.454 256.28 131.919 257.325 133.482C257.579 134.316 258.338 139.72 256.389 137.907Z" fill="white"/>
<path d="M254.859 154.494C253.82 147.272 257.594 147.852 256.256 151.213C256.022 152.623 257.12 154.706 255.77 155.691C255.159 155.879 254.901 154.922 254.859 154.494Z" fill="white"/>
<path d="M246.728 167.267C245.423 166.231 246.391 162.111 247.993 161.711C249.603 161.549 249.615 165.453 248.114 165.501C247.846 166.117 247.724 167.689 246.728 167.267Z" fill="white"/>
<path d="M248.568 186.088C248.459 185.262 247.608 180.697 248.874 180.798C249.784 181.638 249.12 184.271 249.608 185.618C249.774 186.527 248.869 187.398 248.568 186.088Z" fill="white"/>
<path d="M257.082 171.812C256.98 170.499 256.517 168.431 257.773 167.577C258.922 167.532 258.945 169.403 258.597 170.18C258.584 170.934 258.813 171.717 258.517 172.441C257.989 173.697 257.104 172.734 257.082 171.812Z" fill="white"/>
<path d="M257.7 193.158C257.096 185.074 260.877 187.31 259.033 189.648C258.526 190.97 259.338 193.285 258.218 194.107C257.803 194.107 257.704 193.456 257.7 193.158Z" fill="white"/>
<path d="M251.042 208.091C250.775 207.215 250.591 199.678 252.392 202.116C252.276 203.953 251.967 205.797 252.398 207.684C252.621 209.062 251.214 209.856 251.042 208.091Z" fill="white"/>
<path d="M259.331 104.546C259.443 99.5171 262.665 102.832 260.558 104.255C260.703 105.702 259.388 106.295 259.331 104.546Z" fill="white"/>
<path d="M273.195 107.499C271.957 106.59 271.32 101.575 273.109 100.996C274.215 101.259 274.164 103.041 273.704 103.873C273.743 104.946 274.847 107.227 273.195 107.499Z" fill="white"/>
<path d="M270.191 123.126C269.941 121.843 269.864 120.02 270.639 118.917C271.407 118.56 271.509 119.956 271.132 120.366C270.927 121.036 271.477 124.114 270.191 123.126Z" fill="white"/>
<path d="M276.204 115.905C276.035 114.753 275.342 112.563 276.522 111.808C277.357 111.735 277.465 112.987 277.351 113.59C277.179 114.569 277.966 115.915 277.042 116.673C276.583 116.961 276.268 116.269 276.204 115.905Z" fill="white"/>
<path d="M274.979 132.614C274.753 131.789 274.616 130.577 275.125 129.844C276.328 129.016 276.084 134.115 274.979 132.614Z" fill="white"/>
<path d="M270.678 155.532C270.391 153.876 270.908 152.155 270.708 150.492C270.741 150.178 270.593 149.614 270.976 149.492C271.591 150.165 271.144 151.504 271.292 152.401C271.21 152.806 271.602 156.618 270.678 155.532Z" fill="white"/>
<path d="M273.091 143.491C272.231 142.563 272.145 140.371 272.732 139.266C273.787 138.104 274.548 140.396 274.031 141.219C274.271 141.944 274.237 143.824 273.091 143.491Z" fill="white"/>
<path d="M280.945 150.532C280.089 146.16 283.52 146.211 282.071 149.256C282.017 149.83 282.188 150.43 281.977 150.983C281.572 151.891 280.976 151.206 280.945 150.532Z" fill="white"/>
<path d="M278.99 167.333C277.102 162.024 282.824 160.634 280.786 166.326C280.803 167.344 279.724 168.678 278.99 167.333Z" fill="white"/>
<path d="M274.545 188.942C273.039 182.324 278.212 182.11 276.123 186.717C276.035 187.526 275.83 190.535 274.545 188.942Z" fill="white"/>
<path d="M272.349 173.445C271.803 172.771 272.394 170.416 273.326 171.655C273.872 172.329 273.281 174.684 272.349 173.445Z" fill="white"/>
<path d="M283.878 186.088C283.837 185.032 282.565 179.512 283.9 179.442C284.935 179.665 284.571 184.335 285.023 185.57C285.241 186.557 284.152 187.497 283.878 186.088Z" fill="white"/>
<path d="M287.749 204.365C287.266 203.593 287.197 196.909 288.514 197.085C289.832 197.492 289.227 199.341 289.394 200.389C289.508 201.5 289.858 206.48 287.749 204.365Z" fill="white"/>
<path d="M276.543 218.492C275.505 218.019 276.275 214.586 276.954 213.918C277.915 213.004 278.231 215.287 277.704 215.794C277.07 216.375 277.562 218.582 276.543 218.492Z" fill="white"/>
<path d="M275.046 202.33C274.695 201.489 274.715 198.468 275.675 198.056C276.493 197.994 276.494 199.308 276.163 199.822C276.059 200.493 276.325 203.618 275.046 202.33Z" fill="white"/>
<path d="M257.016 221.405C256.91 220.705 256.29 217.583 257.404 217.637C258.058 217.937 257.981 220.78 258.001 221.546C257.778 222.369 257.135 222.143 257.016 221.405Z" fill="white"/>
<path d="M245.694 211.161C244.513 209.543 243.963 205.824 245.975 204.678C246.869 205.268 246.178 206.33 245.757 206.972C245.044 208.192 247.136 210.556 245.694 211.161Z" fill="white"/>
<path d="M263.45 208.306C263.166 207.148 262.332 203.831 263.551 203.27C263.788 203.411 263.81 203.814 263.764 204.05C263.463 205.276 263.749 206.534 264.059 207.729C264.259 208.198 263.787 209.155 263.45 208.306Z" fill="white"/>
<path d="M311.228 70.2882C310.904 69.9202 311.188 66.4875 312.026 67.6213C312.216 68.0087 312.483 68.5935 312.06 68.9311C312.133 69.4474 311.995 71.1668 311.228 70.2882Z" fill="white"/>
<path d="M306.613 81.1002C306.526 80.0307 306.361 78.6381 307.302 77.8912C307.889 77.5486 308.227 77.6629 308.3 78.3617C308.376 78.8814 308.119 79.3088 307.598 79.3958L307.598 79.3796C307.133 79.946 307.63 80.7853 307.362 81.4274C307.08 82.0858 306.625 81.5853 306.613 81.1002Z" fill="white"/>
<path d="M308.986 95.8731C309.042 94.5779 308.882 93.0025 309.819 91.9796C310.311 91.6569 310.482 92.5355 310.393 92.8766C309.829 93.7648 309.742 94.8074 309.768 95.8731C309.766 96.8175 308.99 96.8252 308.986 95.8731Z" fill="white"/>
<path d="M308.911 113.611C308.707 112.177 308.669 110.357 309.371 109.055C309.881 108.705 310.017 109.905 309.72 110.151C309.347 110.715 310.016 114.547 308.911 113.611Z" fill="white"/>
<path d="M307.21 129.15C306.918 128.286 306.418 124.409 307.7 124.53C308.283 125.407 307.412 126.54 307.746 127.53C307.78 128.18 308.228 128.91 307.75 129.465C307.517 129.692 307.271 129.392 307.21 129.15Z" fill="white"/>
<path d="M323.972 76.3389C322.287 71.9469 324.54 70.4785 324.099 73.0152C324.12 73.9277 324.449 74.8078 324.657 75.6902C324.886 76.2154 324.347 77.2961 323.972 76.3389Z" fill="white"/>
<path d="M322.668 94.5902C321.057 89.1906 325.414 88.4506 324.019 92.8196C324.098 93.6905 324.444 94.8463 323.642 95.4834C323.105 95.8215 322.751 95.0072 322.668 94.5902Z" fill="white"/>
<path d="M325.717 103.194C325.597 102.531 325.234 97.9047 326.652 99.6953C326.771 101.023 326.87 102.328 326.717 103.63C326.325 104.511 325.748 103.847 325.717 103.194Z" fill="white"/>
<path d="M324.647 146.256C324.645 145.227 324.458 139.002 325.724 139.331C326.264 139.58 326.289 140.35 326.198 140.861C326.05 142.656 326.12 144.461 326.012 146.256C325.959 147.629 324.703 147.637 324.647 146.256Z" fill="white"/>
<path d="M332.11 152.23C331.298 150.966 330.953 149.03 331.377 147.561C332.315 146.571 332.258 148.662 332.371 149.209C332.537 150.036 333.586 152.225 332.11 152.23Z" fill="white"/>
<path d="M333.497 165.744C333.598 164.936 333.357 161.833 334.309 161.712C335.024 162.18 334.005 164.648 334.246 165.744C334.281 166.62 333.449 166.607 333.497 165.744Z" fill="white"/>
<path d="M327.836 177.135C327.056 176.156 328.18 169.296 329.72 172.353C330.136 173.424 329.327 174.105 329.164 175.039C329.127 175.803 329.015 178.524 327.836 177.135Z" fill="white"/>
<path d="M325.605 120.292C324.3 113.016 329.734 114.069 326.845 118.024C326.851 117.966 326.859 117.918 326.866 117.862C326.625 118.889 327.383 120.288 326.46 121.078C325.999 121.364 325.651 120.669 325.605 120.292Z" fill="white"/>
<path d="M305.208 144.965C303.707 135.66 308.945 138.03 306.553 141.226C306.219 142.022 306.847 146.412 305.208 144.965Z" fill="white"/>
<path d="M308.468 169.092C307.005 161.874 310.792 163.128 309.087 165.426C308.923 166.784 309.862 168.648 308.975 169.755C308.635 169.86 308.494 169.328 308.468 169.092Z" fill="white"/>
<path d="M307.655 186.295C307.745 184.398 306.883 181.676 307.751 180.064C309.386 179.473 308.755 182.467 308.917 183.384C308.835 184.523 309.146 185.714 308.859 186.821C308.39 187.878 307.688 187.084 307.655 186.295Z" fill="white"/>
<path d="M312.257 155.841C310.901 147.395 315.718 148.928 313.773 152.778C313.612 154.066 314.018 155.264 313.66 156.456C313.148 157.685 312.273 156.742 312.257 155.841Z" fill="white"/>
<path d="M312.774 174.74C312.531 173.785 312.868 169.032 314.423 171.194C314.929 172.34 313.992 173.367 314.157 174.534C314.23 175.948 312.905 176.343 312.774 174.74Z" fill="white"/>
<path d="M313.435 193.184C312.903 193.014 313.523 188.351 313.918 190.462C313.693 191.235 314.091 192.745 313.435 193.184Z" fill="white"/>
<path d="M325.503 198.893C325.244 197.771 324.55 191.66 326.158 191.858C326.809 192.815 325.908 194.066 326.064 195.152C325.966 195.827 326.909 201.079 325.503 198.893Z" fill="white"/>
<path d="M336.75 180.446C336.218 179.917 335.076 176.477 336.682 176.969C337.141 177.669 338.256 180.477 336.75 180.446Z" fill="white"/>
<path d="M334.335 198.343C334.419 197.411 333.747 193.94 334.895 193.815C336.212 194.587 335.265 196.846 335.576 198.159C335.657 199.428 334.442 199.782 334.335 198.343Z" fill="white"/>
<path d="M329.708 208.721C328.896 207.747 330.901 204.478 331.492 206.649C331.587 207.146 331.51 207.906 330.982 208.149C330.607 208.505 330.225 209.587 329.708 208.721Z" fill="white"/>
<path d="M309.351 203.831C307.286 197.347 312.003 197.018 310.015 200.138C309.427 201.455 310.743 203.007 309.994 204.206C309.713 204.482 309.434 204.115 309.351 203.831Z" fill="white"/>
<path d="M329.788 188.058C329.679 187.683 330.206 184.369 330.822 185.325C331.013 185.993 330.304 186.555 330.344 187.261C330.229 187.616 330.477 188.396 330.044 188.528C329.839 188.528 329.788 188.205 329.788 188.058Z" fill="white"/>
<path d="M422.507 120.461C416.582 119.551 415.931 111.461 422.16 110.395C417.479 107.065 421.787 101.421 426.519 101.654C423.165 98.2258 427.589 90.8192 432.124 93.4749C432.305 93.58 432.317 93.8915 432.286 94.0701C432.132 94.8078 431.096 93.774 430.553 93.8745C426.145 93.4483 424.089 100.411 428.625 101.849C429.618 101.81 430.249 103.517 429.202 103.768C428.601 103.513 427.939 103.466 427.296 103.403C422.072 103.015 417.687 107.609 424.47 110.043C424.948 110.297 425.776 110.163 425.752 110.904C425.856 112.061 424.955 111.702 424.185 111.739C420.532 111.344 416.17 114.733 419.989 117.913C422.511 120.058 425.718 118.019 425.629 119.393C425.841 120.823 423.4 120.617 422.507 120.461Z" fill="white"/>
<path d="M439.543 122.89C438.9 122.122 439.139 120.691 440.244 120.538C443.162 119.456 449.568 113.27 442.611 113.52C441.76 113.983 441.379 113.518 441.429 112.642C441.372 111.345 444.321 111.913 445.376 109.716C446.35 108.435 446.303 105.364 444.182 105.485C443.397 105.477 442.942 106.652 442.134 106.38C441.11 105.209 442.681 104.143 443.816 104.075C445.306 102.831 446.619 101.213 447.266 99.375C448.679 95.932 444.271 94.385 443.22 97.0438C444.171 98.64 443.643 99.9371 442.8 97.5971C442.319 96.2688 443.404 95.0572 444.698 94.8724C450.215 94.529 447.636 101.95 445.098 104.19C447.705 105.892 446.943 110.105 444.917 112.011C448.898 114.33 445.483 119.137 442.731 120.943C441.753 121.447 440.49 123.197 439.543 122.89Z" fill="white"/>
<path d="M420.975 164.949C415.819 163.119 416.304 156.035 421.252 154.222C416.497 152.131 417.883 145.062 421.956 142.969C414.441 138.488 422.738 126.922 429.572 130.34C429.86 130.505 429.753 131.426 429.41 131.233C422.961 127.964 414.449 139.53 423.585 142.251C424.343 142.045 425.737 141.722 425.887 142.83C425.98 143.214 425.868 144.171 425.317 144.106C418.549 144.77 416.832 152.732 424.936 152.95C427.558 155.828 419.793 155.506 418.784 158.577C417.644 160.493 420.054 163.112 422.022 162.55C423.519 162.45 422.873 165.635 420.975 164.949Z" fill="white"/>
<path d="M411.272 164.255C405.978 161.275 406.036 152.806 411.134 149.639C401.928 144.634 415.484 130.858 416.832 137.203C416.859 137.386 416.855 137.69 416.67 137.799C416.196 137.915 416.389 136.982 416.154 136.747L416.15 136.753C413.17 135.764 409.436 140.565 408.727 143.182C408.077 145.96 410.772 148.225 413.228 148.836C413.89 148.763 414.949 148.64 415.141 149.475C415.276 149.932 415.226 150.953 414.568 150.9C410.66 150.651 407.191 155.41 408.993 158.999C409.563 160.22 410.46 161.311 411.703 161.88C411.919 161.991 412.034 162.277 412.096 162.493C412.289 163.067 412.127 164.568 411.272 164.255Z" fill="white"/>
<path d="M436.024 164.424C435.489 164.2 435.396 163.446 435.443 162.944C435.527 161.351 437.745 161.788 438.788 160.999C441.637 159.949 443.404 156.198 439.119 156.16C438.111 156.266 437.198 157.299 436.998 155.647C436.79 153.478 441.853 152.975 442.161 150.28C441.61 147.247 436.971 147.914 437.052 146.13C436.971 144.373 442.33 143.597 443.077 140.381C443.524 136.948 438.507 134.389 436.12 136.992C436.297 138.537 435.315 137.515 435.658 136.579C439.797 131.327 449.133 140.109 439.085 145.802C443.37 147.111 444.617 151.453 440.802 154.219C445.995 157.526 440.424 164.132 436.024 164.424Z" fill="white"/>
<path d="M448.148 163.555C445.861 161.173 452.487 158.881 452.752 155.545C452.929 153.912 450.939 153.397 449.688 153.871C448.852 153.92 448.848 152.373 449.233 151.899C458.697 147.583 454.277 138.627 448.798 142.76C447.043 144.441 447.02 140.368 449.572 140.021C455.544 135.103 451.201 126.735 444.132 131.426C444.413 133.574 441.926 130.557 445.688 129.638C452.283 126.75 455.266 135.486 451.251 139.795C457.649 140.39 456.548 149.31 452.321 152.142C456.294 155.491 451.131 161.723 448.148 163.555Z" fill="white"/>
<path d="M421.04 209.52C416.02 208.215 417.128 200.693 421.155 198.75C418.187 195.936 419.923 190.758 422.98 188.7C412.943 182.341 425.371 171.627 427.708 176.71C428.005 177.247 428.474 177.87 428.112 178.494C427.593 179.311 427.154 177.579 426.873 177.265C426.222 176.531 425.14 176.897 424.374 177.226C418.337 179.766 418.922 186.049 425.217 187.514C426.738 186.551 427.508 189.122 426.23 189.676C422.199 190.332 418.095 196.588 424.247 197.526C426.699 200.848 419.596 199.711 418.861 204.085C418.399 205.658 419.973 207.651 421.629 207.215C422.191 206.976 422.661 205.824 423.138 206.839C423.673 208.048 422.253 209.592 421.04 209.52Z" fill="white"/>
<path d="M409.166 208.528C405.64 207.485 405.782 201.445 407.907 199.139C407.06 196.07 407.434 191.738 409.955 189.533C405.455 185.308 410.641 177.863 415.931 177.937C417.698 178.099 417.328 180.825 416.697 179.352C412.212 177.194 405.182 186.451 411.63 188.81C412.77 188.648 414.425 189.042 414.087 190.526C414.04 190.817 413.875 191.209 413.532 191.226C409.359 189.404 407.63 195.546 409.147 198.494C412.847 198.15 412.035 204.162 408.785 200.677C406.941 201.83 406.902 205.86 409.366 206.316C410.094 206.563 410.075 208.627 409.166 208.528Z" fill="white"/>
<path d="M437.002 213.364C435.924 212.976 436.105 209.966 437.375 211.264C439.27 210.196 441.53 208.902 442.457 206.855C442.457 206.854 442.473 206.859 442.473 206.859C442.496 206.674 442.477 206.512 442.396 206.351C442.411 206.378 442.427 206.419 442.442 206.442C441.541 204.832 439.551 204.232 437.899 203.718C435.816 201.109 443.478 199.155 441.572 195.395C439.312 191.318 435.785 196.252 436.132 192.887C436.178 192.562 436.355 192.23 436.69 192.132C438.554 191.17 440.251 189.707 441.218 187.82C442.862 184.834 439.223 181.412 436.24 182.527C436.028 183.678 435.104 183.6 434.923 182.497C434.68 175.678 448.671 183.424 439.832 191.934C444.671 193.801 442.885 199.989 439.555 202.503C445.322 204.986 443.79 208.797 439.585 211.959C438.8 212.429 438.007 213.728 437.002 213.364Z" fill="white"/>
<path d="M449.961 208.003C448.91 207.585 449.149 204.547 450.423 205.68C451.551 205.442 452.487 204.272 452.852 203.201C453.033 201.147 450.373 200.587 449.168 199.466C448.24 197.687 450.65 196.449 450.858 194.753C451.305 192.915 449.334 191.209 447.563 191.487C446.542 191.546 445.31 193.652 445.16 191.455C445.052 190.252 446.254 190.064 446.947 189.433C448.051 188.423 449.026 187.243 449.676 185.892C451.574 181.589 447.913 176.897 443.247 178.621C443.909 181.196 440.64 177.703 443.354 177.512C450.785 175.414 452.96 185.038 448.664 189.591C452.614 190.648 452.679 195.65 450.45 198.403C454.327 200.338 454.962 203.83 452.048 207.023C451.52 207.556 450.781 208.591 449.961 208.003Z" fill="white"/>
<path d="M458.477 196.962C457.353 195.174 461.954 191.844 458.1 189.284C457.226 188.986 455.944 189.033 456.117 187.743C456.117 186.415 457.765 185.914 458.057 184.656C458.623 182.336 457.114 178.844 454.365 179.067C454.689 182.59 451.278 179.543 452.433 177.682C457.38 173.785 461.295 183.809 458.231 187.284C462.643 188.866 459.952 199.149 458.477 196.962Z" fill="white"/>
<path d="M472.514 144.86C470.851 144.45 471.267 140.277 472.118 139.296C472.633 139.202 472.433 140.274 472.568 140.594C472.695 141.029 472.245 141.564 472.079 140.891C472.017 141.691 471.648 143.218 472.568 143.605C473.823 143.507 474.651 137.76 475.163 136.478C475.167 136.147 475.402 135.391 475.81 135.835C476.314 136.896 475.559 139.318 476.976 139.743C476.949 139.747 476.926 139.75 476.899 139.753C477.823 139.186 478.008 137.897 478.412 136.956C479.302 134.704 479.664 132.214 480.295 129.965C481.042 129.485 481.204 130.912 481.119 131.39C480.799 133.695 477.327 147.044 475.29 138.873C474.824 140.237 474.262 144.898 472.514 144.86Z" fill="white"/>
<path d="M470.574 174.632C468.46 173.079 471.548 166.087 471.278 169.327C469.365 171.543 470.916 176.424 472.661 172.16C473.523 169.918 473.126 167.149 474.331 165.101C475.282 165.251 473.696 168.288 474.482 169.189C475.752 170.792 477 164.048 477.134 163.29C477.238 162.332 476.98 160.849 477.812 160.225C478.247 160.374 478.158 161.039 478.162 161.415C478.301 162.401 477.046 165.245 478.844 164.918C480.434 162.714 480.888 159.766 481.277 157.12C483.125 154.262 479.918 170.005 477.562 165.284C477.308 166.505 475.683 172.907 473.989 169.786C473.75 171.23 472.872 176.504 470.574 174.632Z" fill="white"/>
<path d="M494.032 173.223C493.031 172.165 492.792 170.509 492.588 169.105C490.401 173.14 488.873 168.057 488.742 165.866C484.207 167.466 485.138 152.223 487.244 150.851C487.71 150.793 487.714 151.926 487.29 151.964C485.827 153.183 485.312 166.718 488.734 163.985C489.604 155.45 492.777 159.131 489.52 164.96C489.581 166.306 489.828 167.905 490.921 168.812C492.546 168.451 492.7 164.45 493.628 164.569C494.532 165.696 493.027 167.205 493.196 168.458C493.304 169.576 493.508 170.86 494.313 171.691C494.783 171.934 494.698 173.493 494.032 173.223Z" fill="white"/>
<path d="M493.974 142.205C493.042 141.233 492.919 139.742 492.711 138.468C489.166 142.077 488.053 134.946 488.503 132.511C485.173 132.6 486.232 119.632 487.602 120.465C487.637 120.853 487.745 121.557 487.383 121.802C486.802 123.474 485.97 131.026 488.8 130.778C491.194 123.239 493.574 129.849 489.358 132.416C488.9 134.955 489.936 139.752 492.962 136.44C493.25 136.442 493.312 136.889 493.32 137.095C493.374 138.886 493.635 142.773 495.834 139.879C497.17 140.651 495.137 143.161 493.974 142.205Z" fill="white"/>
<path d="M495.391 202.223C493.512 201.974 493.158 198.044 493.15 196.513C491.395 197.22 490.59 189.921 490.671 188.732C485.346 192.326 485.223 181.076 485.989 178.069C486.398 175.739 488.207 178.538 486.752 179.067C486.463 181.442 486.24 184.02 487.179 186.28C488.719 189.141 490.952 187.127 491.114 184.676C491.352 183.942 491.464 182.957 492.173 182.521C493.886 182.835 492.207 186.301 491.687 187.287C491.48 189.74 491.861 192.267 492.854 194.524C493.062 194.448 493.22 194.264 493.374 194.114C494.945 187.294 498.205 191.748 494.044 195.846C493.874 196.677 494.244 200.704 495.472 200.334C495.999 200.103 496.492 198.809 496.962 199.817C497.393 200.854 496.384 202.03 495.391 202.223Z" fill="white"/>
<path d="M495.252 221.651C493.793 220.883 493.247 217.654 493.062 216.102C490.317 220.975 488.353 213.221 488.23 210.787C484.014 214.138 481.762 197.658 484.384 196.031C484.834 195.709 484.965 196.82 484.665 197.029C483.183 198.519 484.068 203.551 484.661 205.443C484.646 205.407 484.642 205.383 484.63 205.349C485.173 206.71 485.554 208.548 486.863 209.334C486.813 209.329 486.771 209.315 486.725 209.293C487.371 209.492 487.918 208.85 488.299 208.411C489.373 202.963 492.611 205.263 488.988 209.969C489.196 211.885 489.608 214.185 491.11 215.512C492.511 215.684 493.27 210.901 494.04 212.098C494.371 212.83 494.051 213.665 493.843 214.391C493.87 216.052 494.04 218.12 495.441 219.217C496.484 219.266 496.4 221.846 495.252 221.651Z" fill="white"/>
<path d="M470.385 210.622C469.211 210.029 468.083 207.605 469.053 206.512C469.831 206.286 470 207.422 469.661 207.921C472.033 211.569 473.265 205.332 473.045 203.442C470.697 199.632 473.519 196.335 473.865 202.697C475.71 203.411 475.991 197.644 475.729 196.539C475.421 196.081 475.925 194.741 476.391 195.65C476.946 197.291 476.507 204.696 473.873 204.111C473.858 206.008 473.303 211.661 470.385 210.622Z" fill="white"/>
<path d="M468.437 228.533C467.097 227.503 466.085 223.282 468.083 222.56C468.472 222.542 468.48 223.362 468.168 223.486C467.879 223.55 467.633 223.755 467.59 224.046C467.598 224.02 467.602 223.993 467.613 223.969C467.359 225.079 467.763 226.493 468.761 227.105C470.79 227.361 470.639 221.044 470.693 219.684C470.77 218.623 471.66 218.57 471.756 219.669C471.971 220.58 472.503 221.692 473.504 221.903C473.885 222.062 473.935 222.594 473.916 222.957C473.754 224.613 472.106 223.121 471.694 222.379C471.679 223.874 470.855 229.95 468.437 228.533Z" fill="white"/>
<path d="M377.853 218.295C377.846 217.214 376.846 212.419 377.788 212.048C377.75 212.061 377.724 212.078 377.696 212.104C378.188 211.815 378.262 212.82 378.04 213.077C377.897 213.652 379.325 220.951 377.853 218.295Z" fill="white"/>
<path d="M379.689 234.782C379.944 234.004 377.676 220.369 379.025 223.451C378.853 224.097 382.117 239.231 379.689 234.782Z" fill="white"/>
<path d="M380.828 247.356C380.862 246.556 379.615 240.721 380.729 241.024C380.886 242.66 380.932 244.465 381.425 246.129C381.548 246.711 381.926 247.495 381.378 247.963C381.039 248.174 380.851 247.597 380.828 247.356Z" fill="white"/>
<path d="M363.262 208.893C362.784 206.166 363.87 203.291 364.049 200.544C364.579 198.186 363.985 195.457 365.125 193.301C365.712 192.75 365.902 194.188 365.518 194.458C364.959 196.544 365.284 198.849 364.909 201.005C364.705 202.825 364.473 204.64 364.362 206.305C364.313 207.032 364.546 210.143 363.262 208.893Z" fill="white"/>
<path d="M362.944 221.187C363.005 220.25 362.277 215.346 363.301 215.299C364.363 215.985 363.487 217.833 363.787 218.939C363.685 219.881 364.379 221.273 363.519 221.943C363.14 222.056 362.958 221.459 362.944 221.187Z" fill="white"/>
<path d="M364.701 237.076C364.139 234.822 364.884 232.407 364.679 230.086C364.679 229.939 364.731 229.617 364.935 229.617C365.141 229.617 365.193 229.939 365.193 230.085C365.137 231.84 365.256 233.593 365.477 235.333C365.663 235.904 365.67 237.815 364.701 237.076Z" fill="white"/>
<path d="M376.307 179.484C375.795 177.654 376.611 175.641 376.506 173.743C376.605 173.157 376.37 171.329 377.258 171.405C378.339 172.42 377.142 176.811 377.485 178.593C377.559 179.269 376.894 180.473 376.307 179.484Z" fill="white"/>
<path d="M376.516 199.072C375.915 197.112 376.357 194.85 376.199 192.789C376.258 192.004 376.173 191.126 376.594 190.433C377.258 189.852 377.48 191.302 377.144 191.713C376.658 192.771 378.542 200.448 376.516 199.072Z" fill="white"/>
<path d="M380.414 206.903C380.377 206.379 380.148 203.504 380.997 203.746C381.504 204.182 381.12 204.911 381.122 205.472C381.066 206.045 381.266 206.646 381.094 207.201C380.842 207.798 380.424 207.346 380.414 206.903Z" fill="white"/>
<path d="M394.806 229.118C393.87 227.542 392.958 225.034 393.266 223.163C393.566 222.639 393.947 223.276 393.894 223.639C393.755 225.174 396.635 228.229 394.806 229.118Z" fill="white"/>
<path d="M394.282 240.921C394.352 239.794 393.251 234.584 395.137 235.001C395.769 235.451 395.761 236.42 395.603 237.107C395.441 238.687 396.658 241.007 395.214 242.149C394.594 242.339 394.317 241.358 394.282 240.921Z" fill="white"/>
<path d="M394.794 254.311C394.594 253.037 393.689 247.341 395.664 247.45C397.297 248.441 395.915 251.772 396.492 253.544C396.762 255.026 395.283 256.432 394.794 254.311Z" fill="white"/>
<path d="M351.408 236.901C351.035 236.527 350.97 228.208 351.946 230.269C351.783 231.073 352.868 238.074 351.408 236.901Z" fill="white"/>
<path d="M351.806 249.075C351.671 248.071 350.363 240.945 352.647 242.398C353.269 244.271 352.625 246.459 353.175 248.456C353.407 249.649 352.176 250.787 351.806 249.075Z" fill="white"/>
<path d="M352.924 259.564C352.662 258.374 351.704 253.661 353.583 253.656C354.612 254.17 354.306 255.564 354.304 256.506C354.299 257.613 354.9 258.702 354.569 259.8C354.213 261.166 353.11 260.782 352.924 259.564Z" fill="white"/>
</svg>
