<svg width="1439" height="435" viewBox="0 0 1439 435" fill="none" xmlns="http://www.w3.org/2000/svg">
<path d="M1434.02 295.202V245.976H1425.28V230.831L1366.83 184.122V245.976H1358.12V295.202H1353.12V402.464H1439V295.202H1434.02ZM1427.62 394.455H1364.91V389.735H1427.62V394.455ZM1427.62 384.444H1364.91V379.724H1427.62V384.444ZM1427.62 374.433H1364.91V369.727H1427.62V374.433ZM1427.62 364.421H1364.91V359.702H1427.62V364.421ZM1427.62 354.41H1364.91V349.691H1427.62V354.41ZM1427.62 344.399H1364.91V339.68H1427.62V344.399ZM1427.62 334.388H1364.91V329.669H1427.62V334.388ZM1427.62 324.377H1364.91V319.658H1427.62V324.377ZM1427.62 314.366H1364.91V309.646H1427.62V314.366Z" fill="#A1FFBA"/>
<path d="M453.955 166.316H337.886V181.562H347.306V321.231H444.517V181.562H453.938L453.955 166.316ZM372.74 312.078H362.948V304.155H372.74V312.078ZM372.74 278.226H362.948V270.303H372.74V278.226ZM372.74 244.374H362.948V236.451H372.74V244.374ZM372.74 221.821H362.948V213.883H372.74V221.821ZM372.74 199.253H362.948V191.316H372.74V199.253ZM390.415 300.794H380.623V292.871H390.415V300.794ZM390.415 289.51H380.623V281.587H390.415V289.51ZM390.415 255.658H380.623V247.735H390.415V255.658ZM390.415 233.105H380.623V225.167H390.415V233.105ZM390.415 210.537H380.623V202.599H390.415V210.537ZM408.09 289.51H398.298V281.587H408.09V289.51ZM408.09 266.942H398.298V258.962H408.09V266.942ZM408.09 233.105H398.298V225.167H408.09V233.105ZM408.09 199.253H398.298V191.316H408.09V199.253ZM428.822 312.078H419.03V304.155H428.822V312.078ZM428.822 278.226H419.03V270.303H428.822V278.226ZM428.822 244.374H419.03V236.451H428.822V244.374ZM428.822 199.253H419.03V191.316H428.822V199.253Z" fill="#A1FFBA"/>
<path d="M245.112 196.035H255.045L199.582 150.67L144.119 196.035H154.069V225.496H147.282V232.003H154.069V264.267H147.282V270.775H154.069V303.039H147.282V309.546H154.069V341.81H147.282V348.332H251.899V341.81H245.112V309.546H251.899V303.039H245.112V270.775H251.899V264.267H245.112V232.003H251.899V225.496H245.112V196.035ZM174.979 339.608H164.639V331.199H174.979V339.608ZM174.979 303.74H164.639V295.33H174.979V303.74ZM174.979 267.871H164.639V259.476H174.979V267.871ZM174.979 243.959H164.639V235.564H174.979V243.959ZM174.979 220.061H164.639V211.652H174.979V220.061ZM193.749 315.696H183.356V307.286H193.749V315.696ZM193.749 279.827H183.356V271.432H193.749V279.827ZM193.749 232.003H183.356V223.608H193.749V232.003ZM212.502 315.696H202.127V307.286H212.502V315.696ZM212.502 255.915H202.127V247.52H212.502V255.915ZM212.502 220.061H202.127V211.652H212.502V220.061ZM234.472 339.608H224.096V331.199H234.472V339.608ZM234.472 303.74H224.096V295.33H234.472V303.74ZM234.472 267.871H224.096V259.476H234.472V267.871ZM234.472 220.061H224.096V211.652H234.472V220.061Z" fill="#73D88B"/>
<path d="M364.399 237.509C348.138 225.982 332.584 217.487 324.33 215.284C324.094 213.788 323.431 212.357 322.394 211.104C321.357 209.851 319.975 208.809 318.356 208.062C320.53 200.282 321.891 188.312 321.891 174.868C321.891 151.385 317.614 132.35 312.365 132.35C307.115 132.35 302.82 151.385 302.82 174.868C302.82 188.312 304.234 200.282 306.355 208.062C304.629 208.892 303.186 210.059 302.158 211.455C301.13 212.851 300.55 214.433 300.47 216.057C291.809 219.031 277.493 227.026 262.593 237.609C240.782 253.083 225.9 268.229 229.364 271.418C232.829 274.607 253.331 264.682 275.159 249.208C288.398 239.812 299.056 230.616 304.641 224.008C306.273 225.156 308.257 225.927 310.385 226.239L301.972 405.366H322.916L314.503 226.239C317.252 225.849 319.749 224.702 321.573 222.993C326.876 229.586 337.94 239.311 351.885 249.208C373.66 264.682 394.145 274.579 397.68 271.375C401.215 268.172 386.209 253.041 364.399 237.509Z" fill="#54B56A"/>
<path d="M1255.47 245.043C1241.28 234.946 1227.67 227.506 1220.48 225.577C1220.26 224.276 1219.67 223.034 1218.76 221.948C1217.86 220.861 1216.65 219.96 1215.24 219.314C1217.16 212.487 1218.33 202.003 1218.33 190.228C1218.33 169.66 1214.61 153 1210.01 153C1205.4 153 1201.68 169.66 1201.68 190.228C1201.68 202.003 1202.9 212.487 1204.77 219.314C1203.25 220.014 1201.97 221.013 1201.04 222.218C1200.12 223.424 1199.58 224.798 1199.47 226.216C1191.91 228.834 1179.4 235.823 1166.38 245.093C1147.37 258.596 1134.41 271.861 1137.44 274.692C1140.47 277.523 1158.4 268.78 1177.45 255.226C1189.02 246.997 1198.33 238.942 1203.21 233.155C1204.63 234.165 1206.37 234.841 1208.23 235.109L1200.88 392H1219.24L1211.91 235.109C1214.31 234.774 1216.5 233.768 1218.08 232.266C1222.72 238.04 1232.38 246.571 1244.57 255.226C1263.64 268.78 1281.63 277.498 1284.58 274.692C1287.53 271.886 1274.56 258.596 1255.47 245.043Z" fill="#54B56A"/>
<path d="M182.722 404.995C181.626 405.195 180.548 405.41 179.469 405.653C177.331 406.154 175.192 406.726 173.089 407.383C170.986 408.041 168.9 408.814 166.85 409.629L166.09 409.943L165.33 410.272L164.57 410.601L164.181 410.773L163.81 410.945L163.191 411.245L163.845 410.301L164.216 409.772L164.623 409.228L165.029 408.699L165.241 408.427L165.453 408.17L166.319 407.126L167.221 406.096L167.451 405.825L167.68 405.581L168.158 405.067L168.652 404.566L169.147 404.065C170.481 402.726 171.896 401.442 173.389 400.218C174.892 398.974 176.482 397.787 178.144 396.657C178.974 396.1 179.911 395.556 180.707 395.013C181.502 394.469 182.474 393.969 183.393 393.497V393.382C182.333 393.64 181.29 393.94 180.265 394.269C179.24 394.598 178.197 394.941 177.172 395.313C175.139 396.042 173.124 396.872 171.162 397.773C169.2 398.674 167.274 399.661 165.4 400.733L164.693 401.134L164.004 401.548L163.315 401.977L162.979 402.178L162.625 402.406L161.282 403.279L159.957 404.194L159.621 404.423L159.303 404.666L158.649 405.152L158.454 405.295C158.808 404.652 159.179 404.008 159.568 403.379C160.31 402.187 161.123 401.029 162.007 399.904C162.891 398.779 163.845 397.677 164.87 396.6C166.955 394.462 169.287 392.489 171.834 390.708C174.404 388.89 177.179 387.272 180.123 385.874C180.866 385.516 181.626 385.173 182.386 384.844C183.146 384.515 183.923 384.215 184.701 383.915C186.265 383.305 187.877 382.779 189.526 382.341C187.804 382.584 186.104 382.918 184.436 383.343C183.588 383.543 182.668 383.772 181.926 384.015C181.184 384.258 180.282 384.501 179.469 384.773C176.178 385.869 173.014 387.199 170.013 388.749C166.98 390.323 164.139 392.128 161.53 394.14C160.222 395.141 158.967 396.214 157.765 397.329C156.563 398.445 155.45 399.632 154.389 400.848C154.124 401.162 153.859 401.463 153.611 401.777L152.851 402.707C152.374 403.35 151.879 403.98 151.437 404.638C151.208 404.938 150.995 405.267 150.783 405.581C150.66 405.052 150.554 404.537 150.43 404.008C150.059 402.106 149.776 400.175 149.617 398.288C149.306 394.339 149.436 390.376 150.006 386.446C150.289 384.458 150.677 382.47 151.19 380.497C151.437 379.51 151.738 378.523 152.056 377.536C152.374 376.549 152.728 375.577 153.134 374.676H152.993C152.303 375.534 151.667 376.435 151.066 377.336C150.465 378.237 149.864 379.166 149.299 380.096C148.203 381.955 147.195 383.872 146.294 385.817C144.474 389.779 143.101 393.867 142.194 398.03C142.194 398.331 142.052 398.631 141.999 398.931L140.992 397.344L139.843 395.685L139.56 395.27L139.26 394.87L138.659 394.054L138.058 393.239L137.439 392.453C135.672 390.322 133.904 388.291 132.137 386.332C130.369 384.372 128.248 382.484 126.163 380.697C125.12 379.796 124.042 378.938 122.946 378.08C121.85 377.221 120.719 376.421 119.552 375.634L119.446 375.734C120.383 376.678 121.214 377.65 122.133 378.594C123.052 379.538 123.812 380.597 124.59 381.626C126.168 383.659 127.619 385.754 128.938 387.905C130.263 390.05 131.447 392.195 132.472 394.441L132.861 395.27L133.232 396.1L133.586 396.943L133.763 397.358L133.939 397.773L134.593 399.46L135.177 401.148L135.318 401.563L135.442 401.992L135.707 402.836L135.954 403.679L136.166 404.537L136.379 405.381C136.379 405.667 136.538 405.953 136.591 406.239L136.944 407.941C136.944 408.084 136.944 408.213 136.944 408.356V408.785L137.086 409.643L137.209 410.487C137.209 410.773 137.209 411.059 137.209 411.345L137.386 413.033C136.52 412.146 135.619 411.288 134.646 410.473C133.571 409.576 132.439 408.727 131.253 407.927C130.086 407.139 128.871 406.399 127.612 405.71C126.357 405.024 125.067 404.394 123.759 403.822C121.159 402.685 118.445 401.728 115.646 400.962C112.939 400.193 110.169 399.577 107.357 399.117C105.925 398.917 104.511 398.745 103.08 398.617C101.66 398.482 100.232 398.41 98.8022 398.402C100.197 398.616 101.578 398.888 102.938 399.217C104.299 399.546 105.625 399.904 106.95 400.304C109.573 401.105 112.119 402.061 114.568 403.164C119.354 405.253 123.621 408.042 127.152 411.388C127.998 412.201 128.788 413.051 129.521 413.934C130.228 414.811 130.882 415.712 131.483 416.637C132.073 417.565 132.598 418.52 133.056 419.497C133.517 420.461 133.912 421.444 134.24 422.443C135.494 426.449 135.889 430.6 135.406 434.714L142.476 434.642V435L154.548 434.342L154.442 433.813H154.601C155.044 432.309 155.599 430.829 156.263 429.379C156.581 428.636 156.987 427.949 157.358 427.191L157.995 426.119L158.313 425.575C158.419 425.403 158.56 425.232 158.666 425.046L159.373 423.988L160.151 422.958C160.275 422.786 160.398 422.6 160.54 422.429L160.946 421.928L161.371 421.413L161.795 420.913L162.678 419.897C162.979 419.568 163.315 419.254 163.615 418.925L164.092 418.424L164.587 417.952L165.082 417.48L165.347 417.237L165.595 416.994L166.638 416.065L167.733 415.149L167.999 414.92L168.281 414.706L168.847 414.248L169.412 413.805L169.996 413.376C171.551 412.217 173.195 411.116 174.892 410.072C176.588 409.028 178.427 408.041 180.194 407.126C181.113 406.654 182.068 406.225 183.022 405.796C183.976 405.367 184.949 404.966 185.956 404.609V404.48C184.878 404.609 183.817 404.838 182.722 404.995Z" fill="#73D88B"/>
<path d="M1050.92 324.319C1049.82 324.52 1048.75 324.734 1047.67 324.977C1045.53 325.478 1043.39 326.05 1041.29 326.708C1039.18 327.366 1037.1 328.138 1035.05 328.953L1034.29 329.268L1033.53 329.597L1032.77 329.926L1032.38 330.097L1032.01 330.269L1031.39 330.569L1032.04 329.625L1032.41 329.096L1032.82 328.553L1033.23 328.023L1033.44 327.752L1033.65 327.494L1034.52 326.45L1035.42 325.421L1035.65 325.149L1035.88 324.906L1036.36 324.391L1036.85 323.89L1037.35 323.39C1038.68 322.05 1040.09 320.766 1041.59 319.543C1043.09 318.298 1044.68 317.111 1046.34 315.981C1047.17 315.424 1048.11 314.88 1048.9 314.337C1049.7 313.793 1050.67 313.293 1051.59 312.821V312.706C1050.53 312.964 1049.49 313.264 1048.46 313.593C1047.44 313.922 1046.39 314.265 1045.37 314.637C1043.34 315.367 1041.32 316.196 1039.36 317.097C1037.4 317.998 1035.47 318.985 1033.6 320.057L1032.89 320.458L1032.2 320.873L1031.51 321.302L1031.18 321.502L1030.82 321.731L1029.48 322.603L1028.15 323.518L1027.82 323.747L1027.5 323.99L1026.85 324.477L1026.65 324.62C1027.01 323.976 1027.38 323.333 1027.77 322.703C1028.51 321.511 1029.32 320.353 1030.2 319.228C1031.09 318.103 1032.04 317.002 1033.07 315.924C1035.15 313.786 1037.48 311.813 1040.03 310.032C1042.6 308.214 1045.38 306.596 1048.32 305.198C1049.06 304.841 1049.82 304.497 1050.58 304.168C1051.34 303.839 1052.12 303.539 1052.9 303.239C1054.46 302.629 1056.07 302.103 1057.72 301.666C1056 301.908 1054.3 302.242 1052.63 302.667C1051.79 302.867 1050.87 303.096 1050.12 303.339C1049.38 303.582 1048.48 303.825 1047.67 304.097C1044.38 305.193 1041.21 306.523 1038.21 308.073C1035.18 309.647 1032.34 311.453 1029.73 313.464C1028.42 314.466 1027.16 315.538 1025.96 316.654C1024.76 317.769 1023.65 318.956 1022.59 320.172C1022.32 320.486 1022.06 320.787 1021.81 321.101L1021.05 322.031C1020.57 322.675 1020.08 323.304 1019.64 323.962C1019.41 324.262 1019.19 324.591 1018.98 324.906C1018.86 324.377 1018.75 323.862 1018.63 323.333C1018.26 321.43 1017.97 319.5 1017.81 317.612C1017.5 313.663 1017.63 309.7 1018.2 305.77C1018.49 303.782 1018.88 301.794 1019.39 299.821C1019.64 298.834 1019.94 297.847 1020.25 296.86C1020.57 295.874 1020.93 294.901 1021.33 294H1021.19C1020.5 294.858 1019.86 295.759 1019.26 296.66C1018.66 297.561 1018.06 298.491 1017.5 299.42C1016.4 301.28 1015.39 303.196 1014.49 305.141C1012.67 309.103 1011.3 313.191 1010.39 317.354C1010.39 317.655 1010.25 317.955 1010.2 318.255L1009.19 316.668L1008.04 315.009L1007.76 314.594L1007.46 314.194L1006.86 313.379L1006.26 312.563L1005.64 311.777C1003.87 309.646 1002.1 307.615 1000.33 305.656C998.567 303.696 996.446 301.809 994.36 300.021C993.318 299.12 992.239 298.262 991.144 297.404C990.048 296.546 988.917 295.745 987.75 294.958L987.644 295.058C988.581 296.002 989.411 296.975 990.331 297.919C991.25 298.863 992.01 299.921 992.787 300.951C994.366 302.983 995.817 305.078 997.135 307.229C998.461 309.374 999.645 311.519 1000.67 313.765L1001.06 314.594L1001.43 315.424L1001.78 316.268L1001.96 316.682L1002.14 317.097L1002.79 318.785L1003.37 320.472L1003.52 320.887L1003.64 321.316L1003.9 322.16L1004.15 323.004L1004.36 323.862L1004.58 324.705C1004.58 324.991 1004.74 325.278 1004.79 325.564L1005.14 327.265C1005.14 327.408 1005.14 327.537 1005.14 327.68V328.109L1005.28 328.967L1005.41 329.811C1005.41 330.097 1005.41 330.383 1005.41 330.669L1005.58 332.357C1004.72 331.47 1003.82 330.612 1002.84 329.797C1001.77 328.901 1000.64 328.051 999.451 327.251C998.283 326.464 997.068 325.724 995.81 325.034C994.555 324.348 993.265 323.719 991.957 323.147C989.357 322.009 986.643 321.052 983.844 320.286C981.137 319.517 978.367 318.901 975.555 318.441C974.123 318.241 972.709 318.07 971.277 317.941C969.857 317.806 968.43 317.734 967 317.726C968.395 317.941 969.775 318.213 971.136 318.541C972.497 318.87 973.822 319.228 975.148 319.628C977.77 320.43 980.316 321.386 982.766 322.489C987.552 324.578 991.819 327.366 995.35 330.712C996.196 331.526 996.986 332.375 997.719 333.258C998.426 334.135 999.079 335.036 999.68 335.961C1000.27 336.889 1000.8 337.844 1001.25 338.821C1001.71 339.785 1002.11 340.768 1002.44 341.767C1003.69 345.773 1004.09 349.924 1003.6 354.038L1010.67 353.966V354.324L1022.75 353.666L1022.64 353.137H1022.8C1023.24 351.633 1023.8 350.153 1024.46 348.703C1024.78 347.96 1025.18 347.273 1025.56 346.515L1026.19 345.443L1026.51 344.899C1026.62 344.728 1026.76 344.556 1026.86 344.37L1027.57 343.312L1028.35 342.282C1028.47 342.11 1028.6 341.925 1028.74 341.753L1029.14 341.252L1029.57 340.738L1029.99 340.237L1030.88 339.222C1031.18 338.893 1031.51 338.578 1031.81 338.249L1032.29 337.748L1032.79 337.277L1033.28 336.805L1033.55 336.561L1033.79 336.318L1034.84 335.389L1035.93 334.473L1036.2 334.245L1036.48 334.03L1037.04 333.572L1037.61 333.129L1038.19 332.7C1039.75 331.542 1041.39 330.44 1043.09 329.396C1044.79 328.352 1046.62 327.366 1048.39 326.45C1049.31 325.978 1050.27 325.549 1051.22 325.12C1052.17 324.691 1053.15 324.291 1054.15 323.933V323.804C1053.08 323.933 1052.02 324.162 1050.92 324.319Z" fill="#73D88B"/>
<path d="M1160.72 211.481C1160.86 211.009 1160.96 210.532 1161.04 210.05C1161.28 208.082 1160.81 206.1 1159.69 204.343C1158.56 202.587 1156.83 201.132 1154.71 200.154C1153.81 198.076 1152.25 196.226 1150.19 194.791C1150.75 193.853 1151.11 192.841 1151.23 191.802C1151.41 190.299 1151.12 188.784 1150.37 187.401C1149.62 186.019 1148.44 184.815 1146.95 183.907C1146.68 182.934 1146.2 182.005 1145.54 181.161C1145.62 180.899 1145.68 180.631 1145.71 180.36C1145.84 179.303 1145.59 178.238 1144.99 177.294C1144.39 176.351 1143.46 175.568 1142.32 175.04C1141.82 173.935 1140.98 172.951 1139.88 172.18C1140.19 171.678 1140.38 171.135 1140.45 170.578C1140.52 169.956 1140.44 169.328 1140.22 168.73C1139.99 168.132 1139.62 167.577 1139.13 167.095C1138.64 166.614 1138.03 166.217 1137.35 165.926C1136.66 165.635 1135.91 165.457 1135.14 165.401C1133.97 165.317 1132.79 165.516 1131.75 165.973C1130.02 164.278 1127.55 163.185 1124.86 162.918C1122.16 162.652 1119.44 163.234 1117.26 164.543C1116.74 164.281 1116.17 164.084 1115.58 163.957C1114.59 163.174 1113.37 162.599 1112.04 162.283C1112.83 160.86 1113.32 159.343 1113.51 157.793C1113.84 155.333 1113.38 152.846 1112.17 150.574C1110.96 148.302 1109.04 146.323 1106.61 144.83C1104.17 143.337 1101.29 142.382 1098.26 142.057C1095.23 141.732 1092.15 142.048 1089.31 142.976C1087.97 142.431 1086.51 142.087 1085.02 141.961C1082.62 141.786 1080.22 142.189 1078.11 143.119C1076.11 142.367 1073.97 141.884 1071.78 141.689C1068.72 141.443 1065.64 141.771 1062.77 142.647C1060.68 141.733 1058.39 141.164 1056.03 140.974C1053.72 140.788 1051.38 140.975 1049.15 141.522C1046.93 142.068 1044.86 142.966 1043.06 144.161C1041.27 145.357 1039.78 146.828 1038.69 148.49C1037.59 150.152 1036.92 151.972 1036.7 153.845C1036.7 154.174 1036.7 154.503 1036.7 154.832C1035.43 155.37 1034.34 156.154 1033.54 157.115C1032.74 158.077 1032.24 159.184 1032.1 160.338C1032.06 160.781 1032.06 161.226 1032.1 161.668C1030.61 162.376 1029.32 163.333 1028.32 164.474C1027.32 165.616 1026.64 166.917 1026.31 168.29C1025.98 169.663 1026.01 171.077 1026.41 172.439C1026.81 173.8 1027.56 175.077 1028.62 176.184C1027.71 177.212 1027.16 178.42 1027.04 179.68C1026.91 180.94 1027.22 182.204 1027.91 183.335C1023.85 184.233 1020.24 186.145 1017.59 188.798C1016.35 188.441 1015.03 188.317 1013.73 188.434C1012.43 188.551 1011.17 188.907 1010.06 189.475C1008.95 190.043 1008.02 190.808 1007.33 191.711C1006.64 192.615 1006.21 193.634 1006.08 194.691C1006.08 194.919 1006.08 195.134 1006.08 195.363C1005.67 195.279 1005.24 195.217 1004.81 195.177C1003.54 195.073 1002.26 195.198 1001.06 195.543C999.857 195.888 998.764 196.444 997.86 197.172C996.955 197.899 996.262 198.78 995.829 199.751C995.396 200.722 995.234 201.758 995.355 202.785C993.867 203.5 992.584 204.463 991.592 205.611C990.601 206.758 989.922 208.064 989.603 209.44C989.283 210.816 989.33 212.232 989.74 213.592C990.15 214.953 990.913 216.227 991.98 217.33C991.085 218.325 990.536 219.495 990.389 220.719C990.274 221.633 990.384 222.557 990.711 223.437C991.038 224.316 991.577 225.135 992.296 225.846C993.015 226.557 993.901 227.146 994.902 227.579C995.903 228.012 997 228.281 998.13 228.371C998.583 228.399 999.038 228.399 999.491 228.371C1000.84 231.942 1003.46 235.111 1007.03 237.478C1010.6 239.844 1014.96 241.304 1019.55 241.671C1021.1 241.8 1022.67 241.8 1024.22 241.671C1024.72 242.802 1025.58 243.809 1026.7 244.595C1027.83 245.38 1029.19 245.917 1030.64 246.154C1032.1 246.391 1033.61 246.321 1035.02 245.949C1036.43 245.577 1037.71 244.916 1038.71 244.031L1040.3 245.089C1046.26 249.08 1051.79 253.477 1056.83 258.232C1059.28 260.621 1061.6 263.081 1063.74 265.626C1065.81 268.18 1067.69 270.835 1069.36 273.578C1070.95 276.298 1072.27 279.115 1073.32 282.002C1073.51 282.574 1073.69 283.16 1073.87 283.746L1069.04 352.294H1089.08L1084.24 284.705C1084.69 282.373 1085.34 280.07 1086.19 277.811C1087.34 274.918 1088.75 272.093 1090.39 269.359C1092.1 266.602 1094.01 263.933 1096.12 261.364C1098.24 258.767 1100.53 256.261 1102.98 253.856C1104.15 252.674 1105.39 251.501 1106.69 250.338H1106.85C1108.23 252.019 1110.35 253.214 1112.78 253.681C1115.21 254.148 1117.77 253.853 1119.94 252.855C1121.8 253.576 1123.8 254.017 1125.85 254.157C1128.46 254.345 1131.08 254.031 1133.52 253.241C1135.95 252.45 1138.11 251.206 1139.84 249.609C1141.56 248.013 1142.79 246.109 1143.43 244.053C1144.07 241.997 1144.1 239.848 1143.52 237.781C1147.24 237.679 1150.87 236.785 1154.03 235.19C1157.19 233.595 1159.77 231.355 1161.52 228.695C1163.27 226.035 1164.13 223.049 1164 220.037C1163.87 217.025 1162.76 214.094 1160.79 211.538L1160.72 211.481ZM1068.16 262.966C1065.62 260.449 1062.92 258.038 1060.08 255.744C1054.4 251.253 1048.26 247.162 1041.72 243.516L1039.95 242.529V242.458C1040.87 242.722 1041.84 242.89 1042.81 242.958C1044.6 243.113 1046.4 242.962 1048.11 242.515C1049.15 243.247 1050.4 243.767 1051.73 244.03C1053.07 244.294 1054.47 244.293 1055.81 244.028C1057.15 243.763 1058.39 243.242 1059.43 242.508C1060.47 241.775 1061.27 240.85 1061.78 239.812C1063.97 239.724 1066.1 239.193 1067.98 238.267C1066.88 239.893 1066.21 241.684 1066.01 243.529C1065.81 245.374 1066.08 247.233 1066.8 248.99C1067.53 250.747 1068.69 252.364 1070.22 253.74C1071.75 255.116 1073.62 256.222 1075.7 256.988L1074.75 270.532C1072.74 267.924 1070.54 265.416 1068.16 263.023V262.966ZM1100.36 251.854C1097.56 254.151 1094.91 256.566 1092.42 259.091C1089.91 261.633 1087.6 264.298 1085.5 267.071C1084.72 268.129 1083.96 269.202 1083.23 270.303L1082.39 258.175C1085.48 258.195 1088.52 257.515 1091.17 256.211C1093.81 254.907 1095.96 253.032 1097.36 250.796H1098.01C1099.55 250.896 1101.09 250.643 1102.46 250.066L1100.36 251.854Z" fill="#73D88B"/>
<path d="M527.016 308.81C528.196 308.768 529.333 308.44 530.278 307.87C531.224 307.3 531.934 306.514 532.315 305.614C533.147 305.487 533.906 305.146 534.478 304.644C535.05 304.141 535.404 303.503 535.488 302.825C535.488 302.721 535.488 302.626 535.488 302.522C536.411 301.699 536.944 300.641 536.996 299.533C537.047 298.425 536.614 297.338 535.77 296.461C535.888 296.205 535.963 295.938 535.993 295.667C536.083 294.933 535.851 294.196 535.335 293.586C534.82 292.976 534.055 292.531 533.173 292.329C533.536 291.689 533.762 291.005 533.843 290.305C533.947 289.462 533.843 288.611 533.538 287.8C533.233 286.989 532.732 286.234 532.064 285.579C531.396 284.924 530.574 284.381 529.646 283.982C528.717 283.582 527.7 283.334 526.652 283.251C525.365 283.144 524.066 283.294 522.868 283.686C522.26 283.434 521.598 283.276 520.917 283.223C519.82 283.137 518.716 283.315 517.745 283.734C516.658 283.334 515.484 283.111 514.29 283.079C513.096 283.046 511.906 283.204 510.789 283.545C509.841 283.135 508.803 282.878 507.733 282.788C505.942 282.63 504.137 282.963 502.61 283.734C502.447 283.048 502.085 282.403 501.554 281.851C501.023 281.298 500.338 280.855 499.554 280.555C498.77 280.256 497.909 280.11 497.042 280.128C496.175 280.146 495.325 280.329 494.561 280.661C493.658 280.321 492.688 280.11 491.694 280.037C490.2 279.915 488.691 280.097 487.306 280.564C485.921 281.031 484.703 281.77 483.763 282.712C483.459 282.626 483.143 282.569 482.823 282.542C482.31 282.502 481.793 282.543 481.3 282.664C480.808 282.785 480.35 282.983 479.952 283.246C479.555 283.51 479.226 283.834 478.985 284.2C478.743 284.566 478.594 284.966 478.545 285.379C478.534 285.48 478.534 285.581 478.545 285.682C478.357 285.642 478.164 285.616 477.97 285.606C477.456 285.564 476.938 285.605 476.444 285.725C475.95 285.845 475.49 286.042 475.092 286.306C474.693 286.57 474.363 286.894 474.121 287.261C473.879 287.628 473.729 288.029 473.681 288.443C473.657 288.644 473.657 288.846 473.681 289.048C473.555 289.105 473.433 289.168 473.317 289.237C472.779 289.022 472.198 288.888 471.601 288.84C470.675 288.764 469.742 288.902 468.91 289.237C468.078 289.572 467.381 290.09 466.901 290.731C465.062 290.899 463.35 291.568 462.05 292.628C460.75 293.688 459.941 295.074 459.757 296.556C459.757 296.792 459.757 297.019 459.757 297.255C458.822 297.39 457.945 297.714 457.209 298.196C456.473 298.679 455.902 299.305 455.549 300.014C455.196 300.724 455.074 301.494 455.193 302.252C455.313 303.01 455.67 303.731 456.231 304.347C454.592 305.936 453.804 307.983 454.041 310.039C454.278 312.095 455.52 313.992 457.495 315.311C459.469 316.63 462.013 317.264 464.569 317.073C467.124 316.883 469.48 315.883 471.119 314.294C472.224 314.852 473.305 315.448 474.362 316.053C475.804 316.879 477.202 317.746 478.557 318.653C480.226 319.769 481.82 320.948 483.34 322.19C483.411 323.66 484.067 325.073 485.211 326.22C486.356 327.368 487.928 328.189 489.697 328.563C490.444 329.513 491.126 330.494 491.741 331.504C492.461 332.725 493.062 333.99 493.539 335.286C493.633 335.551 493.715 335.815 493.786 336.071L491.6 367H500.695L499.426 349.034C499.602 348.562 499.802 348.089 500.025 347.635C500.658 346.362 501.4 345.127 502.246 343.938C503.124 342.74 504.093 341.587 505.148 340.486C505.642 339.947 506.171 339.427 506.711 338.917C507.22 339.493 507.869 339.98 508.619 340.348C509.369 340.716 510.204 340.957 511.073 341.057C511.943 341.157 512.829 341.113 513.676 340.929C514.524 340.745 515.317 340.424 516.006 339.985H516.288C516.482 340.426 516.834 340.811 517.298 341.092C517.762 341.373 518.319 341.538 518.899 341.566C519.479 341.594 520.057 341.484 520.56 341.25C521.063 341.016 521.469 340.668 521.728 340.25C522.048 340.336 522.379 340.393 522.715 340.42C523.317 340.467 523.925 340.415 524.501 340.269C524.862 340.517 525.291 340.692 525.752 340.779C526.214 340.867 526.694 340.864 527.154 340.772C527.614 340.679 528.04 340.499 528.396 340.247C528.752 339.995 529.028 339.679 529.201 339.323C530.093 339.287 530.951 339.038 531.665 338.606C532.379 338.175 532.917 337.582 533.208 336.903C533.839 336.807 534.414 336.551 534.848 336.171C535.282 335.791 535.552 335.308 535.617 334.794C535.617 334.718 535.617 334.643 535.617 334.558C536.311 333.933 536.713 333.133 536.751 332.295C536.79 331.458 536.464 330.636 535.829 329.972C535.912 329.778 535.971 329.579 536.005 329.376C536.073 328.82 535.896 328.263 535.505 327.802C535.114 327.34 534.534 327.004 533.866 326.851C534.132 326.365 534.302 325.848 534.372 325.32C534.476 324.483 534.311 323.639 533.891 322.87C533.471 322.1 532.811 321.431 531.976 320.927C531.14 320.423 530.157 320.101 529.121 319.992C528.085 319.884 527.032 319.993 526.064 320.308C525.603 320.117 525.1 319.998 524.584 319.958C524.111 319.92 523.634 319.948 523.174 320.043C524.065 319.218 524.573 318.169 524.612 317.076C524.65 315.983 524.217 314.913 523.385 314.048C523.497 313.795 523.571 313.531 523.608 313.264C523.664 312.803 523.593 312.337 523.401 311.901C523.208 311.465 522.897 311.068 522.492 310.739L522.974 310.805C523.826 310.873 524.682 310.715 525.412 310.354C526.141 309.994 526.705 309.452 527.016 308.81ZM479.239 317.887C477.774 317.062 476.27 316.286 474.727 315.561C473.552 315.032 472.459 314.521 471.296 314.048C471.529 313.782 471.741 313.504 471.93 313.216H472.318C473.389 313.303 474.465 313.096 475.373 312.63C475.806 312.768 476.261 312.857 476.724 312.895C476.963 312.909 477.202 312.909 477.441 312.895C477.907 313.48 478.532 313.972 479.269 314.334C480.006 314.696 480.835 314.918 481.695 314.985C481.836 314.985 481.977 314.985 482.118 314.985C482.311 315.404 482.584 315.796 482.928 316.148C482.527 316.603 482.28 317.134 482.212 317.689C482.147 318.185 482.233 318.686 482.46 319.15C482.687 319.614 483.049 320.028 483.516 320.355C482.129 319.523 480.704 318.701 479.239 317.887ZM493.069 328.676C493.494 328.625 493.915 328.549 494.326 328.449L494.209 330.076C493.844 329.603 493.468 329.13 493.069 328.676ZM503.562 339.39C502.329 340.47 501.179 341.609 500.119 342.803C499.755 343.219 499.414 343.635 499.073 344.07L497.898 327.835C498.212 328.245 498.639 328.59 499.147 328.844C499.655 329.099 500.229 329.255 500.824 329.3C501.613 329.364 502.407 329.234 503.101 328.927C503.796 328.619 504.358 328.15 504.714 327.579L505.031 327.655C504.531 328.245 504.278 328.948 504.307 329.662C504.337 330.376 504.648 331.064 505.195 331.626C504.885 331.964 504.695 332.362 504.643 332.78C504.596 333.156 504.662 333.536 504.833 333.888C505.005 334.24 505.278 334.553 505.63 334.804C505.583 334.993 505.548 335.182 505.524 335.371C505.43 336.092 505.53 336.821 505.818 337.508C505.066 338.113 504.291 338.737 503.562 339.39Z" fill="#73D88B"/>
<path d="M524.266 89.2307C524.268 90.3438 523.999 91.4462 523.474 92.4751C522.949 93.504 522.179 94.439 521.207 95.2267C520.235 96.0144 519.081 96.6393 517.81 97.0657C516.54 97.4921 515.178 97.7115 513.802 97.7115H344.002C341.774 97.7162 339.603 97.1454 337.804 96.0823C336.004 95.0192 334.672 93.5192 333.999 91.8007C333.327 90.0822 333.35 88.2349 334.065 86.5276C334.78 84.8204 336.15 83.3424 337.975 82.3088C337.966 82.204 337.966 82.0989 337.975 81.9941C337.978 79.5782 338.842 77.2142 340.462 75.1852C342.083 73.1561 344.392 71.5478 347.112 70.5529C347.983 65.7814 350.823 61.3886 355.17 58.089C359.518 54.7893 365.117 52.777 371.057 52.3792C376.998 51.9814 382.93 53.2216 387.889 55.898C392.847 58.5745 396.541 62.5298 398.369 67.1205H398.652C401.167 67.1204 403.652 67.5646 405.934 68.4219C407.545 66.0878 409.778 64.0734 412.472 62.5248C415.165 60.9762 418.251 59.9324 421.505 59.4692C421.569 53.5667 423.877 47.8233 428.114 43.0184C432.351 38.2134 438.312 34.5797 445.189 32.6103C452.066 30.641 459.525 30.4314 466.554 32.0101C473.583 33.5888 479.841 36.8793 484.48 41.4349C485.822 42.7718 487.006 44.2084 488.015 45.7253C491.006 45.1199 494.152 45.2467 497.055 46.0897C499.957 46.9327 502.484 48.4539 504.317 50.4606C506.149 52.4672 507.204 54.869 507.348 57.3613C507.492 59.8537 506.718 62.3244 505.124 64.4604C509.252 67.8192 511.566 72.3658 511.557 77.103C511.558 78.3139 511.404 79.5216 511.098 80.707H513.802C515.182 80.7089 516.547 80.931 517.82 81.3607C519.093 81.7905 520.249 82.4193 521.221 83.2112C522.193 84.003 522.962 84.9424 523.485 85.9754C524.007 87.0083 524.273 88.1146 524.266 89.2307Z" fill="#A1FFBA"/>
<path d="M1368.81 85.784C1368.81 87.0536 1368.51 88.3108 1367.91 89.4838C1367.3 90.6567 1366.42 91.7225 1365.32 92.6202C1364.21 93.518 1362.89 94.2301 1361.44 94.716C1359.99 95.2018 1358.44 95.4519 1356.87 95.4519H1064.33C1061.16 95.4519 1058.13 94.4333 1055.88 92.6202C1053.64 90.8072 1052.39 88.3481 1052.39 85.784C1052.39 83.2199 1053.64 80.7609 1055.88 78.9478C1058.13 77.1347 1061.16 76.1162 1064.33 76.1162H1081.14C1077.86 69.0782 1078.17 61.2738 1082 54.4198C1085.83 47.5658 1092.87 42.2236 1101.57 39.5685C1110.26 36.9134 1119.91 37.1629 1128.38 40.262C1136.85 43.3611 1143.45 49.056 1146.73 56.094C1150.07 54.7866 1153.73 54.1117 1157.44 54.1204C1158.87 54.1209 1160.3 54.2165 1161.7 54.4064C1163.77 49.3754 1167.45 44.8751 1172.35 41.3598C1177.26 37.8444 1183.22 35.4383 1189.65 34.3842C1189.65 34.0553 1189.65 33.712 1189.65 33.3688C1189.66 30.0399 1190.7 26.7659 1192.67 23.8431C1194.63 20.9203 1197.47 18.4408 1200.92 16.6292C1204.38 14.8175 1208.33 13.7307 1212.43 13.4672C1216.53 13.2037 1220.65 13.7718 1224.41 15.12C1231.08 9.27546 1239.47 4.89575 1248.8 2.39104C1258.13 -0.113661 1268.09 -0.661407 1277.76 0.799106C1287.42 2.25962 1296.46 5.6806 1304.05 10.7417C1311.63 15.8027 1317.5 22.3383 1321.11 29.7362C1326.76 30.6102 1331.85 33.0483 1335.52 36.6316C1339.19 40.2149 1341.2 44.7198 1341.21 49.3722C1341.21 51.1558 1340.92 52.9316 1340.32 54.6495C1339.85 56.0964 1339.17 57.4932 1338.29 58.8113C1341.02 60.69 1343.2 63.0247 1344.71 65.6543C1346.21 68.2839 1346.98 71.1458 1346.99 74.0424C1346.99 74.7003 1346.99 75.3725 1346.86 76.0161H1356.9C1358.48 76.0198 1360.04 76.2759 1361.49 76.7697C1362.95 77.2635 1364.26 77.9852 1365.37 78.8932C1366.48 79.8011 1367.35 80.8775 1367.94 82.0602C1368.54 83.2428 1368.83 84.5084 1368.81 85.784Z" fill="#A1FFBA"/>
<path d="M255.045 83.0524C255.045 85.1196 254.031 87.1021 252.224 88.5638C250.418 90.0256 247.967 90.8467 245.413 90.8467H9.63277C7.07945 90.843 4.63206 90.0206 2.82659 88.5596C1.02112 87.0987 0.00474944 85.1184 7.73096e-05 83.0524C-0.00231771 82.5727 0.0509399 82.0939 0.159149 81.6222C0.57179 79.8334 1.74492 78.2178 3.47521 77.0554C5.2055 75.8931 7.38388 75.2572 9.63277 75.258H17.6747C17.6397 74.7293 17.6397 74.1993 17.6747 73.6706C17.6659 73.5324 17.6659 73.394 17.6747 73.2558C17.7502 70.9875 18.4193 68.7579 19.638 66.7142C20.8567 64.6705 22.5972 62.8592 24.7446 61.3998C23.2657 59.1706 22.4567 56.6909 22.3832 54.1615C22.3097 51.6321 22.9738 49.1243 24.3217 46.8414C25.6695 44.5584 27.6632 42.5646 30.1411 41.0214C32.619 39.4783 35.5114 38.4293 38.5839 37.9595C41.4981 31.9996 46.2327 26.735 52.345 22.6581C58.4574 18.5813 65.7476 15.8254 73.5341 14.6482C81.3206 13.4709 89.3488 13.9108 96.8681 15.9267C104.387 17.9426 111.152 21.4687 116.529 26.1751C119.08 25.2437 121.844 24.7565 124.642 24.7449C129.911 24.7676 134.954 26.4801 138.665 29.507C142.376 32.5338 144.452 36.6278 144.437 40.8914C144.437 41.1631 144.437 41.4348 144.437 41.7209C149.602 42.5704 154.4 44.5042 158.349 47.3282C162.298 50.1523 165.26 53.7672 166.937 57.8101C171.036 57.2278 175.257 57.6979 179.009 59.1545C180.168 56.1905 182.062 53.4487 184.574 51.0966C187.086 48.7444 190.165 46.8311 193.621 45.4735C197.078 44.1159 200.84 43.3424 204.678 43.2003C208.516 43.0582 212.349 43.5504 215.945 44.6469C219.54 45.7434 222.821 47.4212 225.588 49.5779C228.356 51.7346 230.551 54.3249 232.04 57.1908C233.529 60.0567 234.281 63.1381 234.249 66.2469C234.217 69.3556 233.403 72.4266 231.856 75.2723H245.413C247.827 75.2794 250.151 76.0171 251.927 77.3404C253.703 78.6637 254.803 80.4768 255.01 82.4231C255.028 82.609 255.045 82.8379 255.045 83.0524Z" fill="#DEFFE6"/>
</svg>
