<svg width="229" height="261" viewBox="0 0 329 361" fill="none" xmlns="http://www.w3.org/2000/svg">
<path d="M216.509 123.733C221.117 133.468 224.259 141.975 226.113 151.001C228.582 163.036 229.513 175.194 229.574 187.42C229.616 195.649 228.528 203.798 227.041 211.886C225.879 218.205 224.809 224.543 223.529 230.84C221.064 242.975 216.657 254.494 212.211 266.002C208.005 276.89 202.622 287.203 197.181 297.502C193.816 303.874 190.534 310.301 187.536 316.85C185.609 321.06 184.315 325.555 182.623 329.878C182.16 331.006 181.482 332.032 180.625 332.901C179.926 333.605 179.046 334.106 178.08 334.349C174.927 335.083 170.51 332.232 169.5 329.144C168.879 327.25 167.93 325.464 167.151 323.62C161.688 310.69 156.261 297.741 150.754 284.828C148.655 279.909 146.207 275.13 144.214 270.176C138.478 255.916 132.891 241.597 127.244 227.301C122.437 215.136 119.247 202.52 117.066 189.681C115.762 182.018 114.857 174.294 114.356 166.54C113.806 157.996 114.619 149.46 116.457 141.077C117.858 134.69 119.708 128.431 122.522 122.496C125.6 115.972 129.6 109.922 134.402 104.531C139.37 98.9569 145.195 94.6164 151.848 91.3126C157.923 88.301 164.302 86.4084 171.174 86.8247C175.986 87.1146 180.695 88.3604 185.023 90.4886C195.87 95.7898 203.943 104.115 210.553 113.966C212.971 117.568 215.082 121.379 216.509 123.733ZM175.373 312.02L176.158 312.169C176.683 311.113 177.214 310.057 177.731 308.996C179.473 305.41 181.175 301.802 182.959 298.236C187.472 289.212 192.314 280.338 196.478 271.161C201.931 259.12 206.384 246.655 209.372 233.767C211.297 225.464 212.675 217.017 213.965 208.584C215.005 201.792 216.062 194.937 216.206 188.086C216.449 175.864 215.429 163.698 212.933 151.654C210.645 140.617 206.71 130.311 200.581 120.827C195.189 112.482 188.797 105.157 179.835 100.431C173.487 97.0852 166.838 96.4783 160.093 98.8471C147.651 103.218 139.057 111.98 133.1 123.369C126.133 136.687 123.661 151.123 124.478 165.973C124.982 175.141 126.597 184.274 128.098 193.363C128.968 198.518 130.245 203.599 131.916 208.558C134.949 217.631 137.816 226.755 141.796 235.519C147.646 248.403 152.964 261.526 158.651 274.485C163.039 284.485 167.663 294.384 172.149 304.342C173.283 306.873 174.299 309.46 175.373 312.02Z" fill="#73D88B" fill-opacity="0.89"/>
<path d="M65.3459 85.6552C63.4457 81.8945 63.6099 79.2237 65.6893 77.1938C67.5284 75.3969 69.7948 74.8594 72.1385 75.8312C73.77 76.5287 75.2768 77.4868 76.5992 78.6676C80.2147 81.8597 83.1786 85.5802 85.6167 89.778C87.4578 92.9445 89.7378 95.8634 91.8523 98.87C96.0842 104.882 100.36 110.862 104.554 116.898C105.236 117.882 105.686 119.057 106.08 120.199C106.555 121.571 106.354 123.085 105.063 123.737C104.111 124.22 102.675 124.2 101.602 123.888C100.482 123.563 99.3715 122.78 98.5519 121.917C90.988 114.059 83.448 106.177 75.9903 98.2217C72.7974 94.8164 69.7984 91.2309 66.7508 87.6937C66.094 86.9459 65.6117 86.0499 65.3459 85.6552Z" fill="#73D88B" fill-opacity="0.89"/>
<path d="M250.961 165.591C250.044 162.823 250.94 160.473 252.512 158.421C256.738 152.901 262.042 148.459 267.459 144.166C270.34 141.883 273.345 139.751 276.344 137.62C278.586 136.026 281.046 135.115 283.898 135.526C287.193 136.004 289.351 139.534 287.836 142.46C287.117 143.826 286.037 144.968 284.711 145.764C274.996 151.292 265.683 157.417 256.662 163.993C255.024 165.187 253.254 166.055 250.961 165.591Z" fill="#73D88B" fill-opacity="0.89"/>
<path d="M256.275 184.811C255.03 182.438 255.291 181.116 256.918 179.869C258.709 178.495 260.848 178.216 262.98 178.432C266.197 178.758 269.417 179.193 272.593 179.815C280.363 181.337 288.112 182.973 295.86 184.61C297.169 184.905 298.451 185.31 299.691 185.821C301.139 186.393 302.236 187.381 301.999 189.095C301.763 190.808 300.348 191.427 298.84 191.553C296.838 191.738 294.825 191.782 292.816 191.685C285.021 191.232 277.221 190.818 269.443 190.123C265.534 189.776 261.737 188.649 258.352 186.521C257.439 185.95 256.669 185.143 256.275 184.811Z" fill="#73D88B" fill-opacity="0.89"/>
<path d="M91.1342 142.668C88.689 143.069 86.7823 142.023 84.9276 141.148C76.6711 137.239 68.4744 133.204 60.2291 129.269C55.3007 126.919 50.2646 124.787 45.3885 122.333C42.1264 120.689 38.8662 118.907 36.5283 115.939C36.049 115.332 35.5216 114.715 35.2312 114.015C34.1314 111.363 35.4725 109.786 38.3796 109.953C41.2223 110.122 43.3878 111.836 45.6279 113.131C56.9054 119.657 68.0578 126.4 79.2305 133.105C82.2829 134.935 85.2903 136.839 88.2528 138.816C89.5186 139.657 90.9629 140.468 91.1342 142.668Z" fill="#73D88B" fill-opacity="0.89"/>
<path d="M88.4052 170.142C87.226 170.65 86.0868 171.309 84.8593 171.635C82.5972 172.235 80.2975 172.722 77.9887 173.113C68.8594 174.665 59.7244 176.185 50.5836 177.674C46.7415 178.309 42.907 179.008 39.0444 179.468C37.9114 179.602 36.5614 179.24 35.5335 178.692C33.6804 177.703 33.543 175.751 35.0741 174.272C37.7679 171.678 41.3237 170.853 44.7743 170.066C48.4717 169.207 52.2303 168.629 56.0176 168.337C63.5787 167.784 71.1603 167.47 78.7389 167.191C80.7312 167.117 82.7645 167.413 84.737 167.77C85.9869 167.995 87.1606 168.648 88.368 169.11L88.4052 170.142Z" fill="#73D88B" fill-opacity="0.89"/>
<path d="M154.727 121.696C155.523 121.115 157.14 119.979 158.702 118.773C160.334 117.516 162.307 117.285 164.117 117.617C171.837 119.021 179.352 121.123 186.138 125.236C192.088 128.838 196.209 134.123 198.883 140.353C203.952 152.156 204.499 164.337 200.425 176.482C197.869 184.101 192.481 189.433 185.106 192.773C176.195 196.816 167.142 196.648 158.074 193.455C154.819 192.326 151.689 190.863 148.737 189.088C141.301 184.554 136.754 177.793 134.927 169.38C132.083 156.272 134.342 143.926 141.647 132.75C144.617 128.21 148.5 124.241 154.727 121.696ZM191.525 146.851C188.502 141.3 185.15 136.84 180.084 134.092C175.492 131.601 170.651 129.569 166.003 127.172C163.696 125.982 161.828 126.284 159.819 127.757C153.64 132.284 149.051 137.879 146.89 145.375C144.825 152.539 144.027 159.753 145.737 167.058C146.883 171.945 149.41 176.09 153.581 179.141C157.625 182.099 162.196 183.651 167.042 184.698C173.081 186.001 178.78 185.355 184.214 182.417C187.871 180.441 190.736 177.621 192.195 173.789C195.706 164.537 195.283 155.319 191.525 146.851Z" fill="#73D88B" fill-opacity="0.89"/>
</svg>
