<svg width="1440" height="1032" viewBox="0 0 1440 1032" fill="none" xmlns="http://www.w3.org/2000/svg">
<g clip-path="url(#clip0_881_18)">
<path d="M605.983 386.858C605.952 386.84 605.919 386.824 605.885 386.812C607.133 382.948 607.06 378.849 607.117 374.861C605.8 377.44 604.119 376.059 604.223 374.054C603.299 375.366 601.105 376.12 600.424 374.211C599.968 371.838 602.045 369.669 601.76 367.29C601.956 362.464 600.177 357.843 599.731 353.077C599.433 348.845 599.677 344.424 601.117 340.395C600.614 339.766 601.117 338.928 601.434 338.304C601.915 335.798 603.482 333.701 605.385 331.899C611.324 325.451 620.812 322.67 629.784 322.409C637.572 321.77 643.685 324.607 644.306 332.303C648.602 328.468 651.318 323.041 656.804 320.439C661.173 318.206 660.945 324.883 659.416 326.948C656.25 331.633 649.805 333.524 644.451 335.453C630.17 336.349 616.171 339.081 601.944 340.111C605.594 339.923 609.197 339.708 612.79 339.087C612.581 339.688 612.641 341.118 611.998 341.477C611.777 345.03 612.063 348.594 612.85 352.079C613.138 354.881 614.712 358.078 613.3 360.767C611.941 362.374 609.963 361.057 609.323 359.574C608.095 357.791 607.994 355.592 606.996 353.706C606.772 353.152 606.119 352.999 605.559 352.836C604.492 352.526 603.22 352.633 602.966 353.825C602.514 355.925 604.954 357.596 606.803 358.287C607.664 358.127 607.661 359.844 607.924 360.361C609.017 364.092 609.332 367.979 608.852 371.818C608.655 376.827 608.823 381.886 607.332 386.748C606.873 386.695 606.3 386.507 605.983 386.858Z" fill="white"/>
<path d="M620.514 356.581C620.169 357.39 619.34 358.144 618.814 358.84C618.355 358.626 619.283 357.521 619.378 357.181C619.565 356.639 620.454 355.174 620.514 356.581Z" fill="white"/>
<path d="M623.503 355.786C623.769 356.508 622.958 357.077 622.642 357.677C622.392 357.915 621.863 359.241 621.458 358.701C621.284 358.376 621.338 357.79 621.746 357.645C622.047 357.376 623.098 354.939 623.503 355.786Z" fill="white"/>
<path d="M622.762 353.309C620.204 353.333 616.914 351.859 617.421 349.118C617.407 349.141 617.387 349.16 617.363 349.175C617.339 349.189 617.312 349.199 617.283 349.202C617.255 349.205 617.226 349.203 617.199 349.194C617.171 349.186 617.147 349.171 617.127 349.153C615.708 347.955 619.514 346.768 620.485 346.499C621.882 346.177 623.354 346.336 624.772 346.452C630.445 347.146 627.786 353.588 622.762 353.309Z" fill="white"/>
<path d="M626.821 354.728C627.755 355.56 625.555 356.973 625.213 357.849C624.94 358.173 624.744 357.718 624.798 357.486C624.812 357.33 624.893 357.185 625.023 357.083C625.593 356.317 626.02 355.264 626.821 354.728Z" fill="white"/>
<path d="M614.338 345.669C612.438 343.688 617.279 342.246 618.77 341.625C621.35 340.738 624.152 340.741 626.84 341.1C627.954 341.414 627.653 343.711 626.624 343.958C622.54 344.636 618.33 344.683 614.338 345.669Z" fill="white"/>
<path d="M635.903 362.438C636.337 363.43 633.579 366.226 632.437 365.959C631.363 365.182 630.3 363.821 630.119 362.551C630.334 361.367 631.196 362.644 631.629 362.986C632.171 363.296 632.49 363.929 633.038 364.161C634.064 363.929 635.153 363.372 635.571 362.446C635.656 362.33 635.805 362.29 635.903 362.438Z" fill="white"/>
<path d="M634.403 342.266C634.216 344.747 635.406 347.116 636.302 349.399C637.198 350.559 638.62 351.293 639.427 352.514C641.168 355.099 639.69 359.421 635.862 358.989C633.785 359.337 631.053 357.164 632.288 355.264C632.335 355.212 632.398 355.173 632.468 355.152C632.539 355.131 632.615 355.128 632.687 355.146C632.758 355.163 632.823 355.198 632.874 355.248C632.925 355.298 632.959 355.36 632.972 355.427C633.697 358.586 639.892 357.886 638.335 354.803C637.667 354.055 636.689 353.593 636.005 352.857C633.672 349.86 633.155 345.544 633.706 341.95C633.931 340.842 634.612 341.446 634.403 342.266Z" fill="white"/>
<path d="M642.216 354.138C642.071 354.605 642.333 355.484 641.722 355.676C641.115 355.47 641.909 353.23 642.223 352.891C642.615 353.109 642.147 353.761 642.216 354.138Z" fill="white"/>
<path d="M643.85 355.456C643.217 355.166 643.767 354.087 643.932 353.608C644.049 353.411 644.369 352.314 644.679 352.796C644.777 353.318 644.413 353.837 644.388 354.374C644.29 354.719 644.353 355.395 643.85 355.456Z" fill="white"/>
<path d="M706.875 393.764C700.968 397.477 694.003 399.223 687.411 401.596C684.436 402.829 681.276 403.531 678.11 404.207C677.854 404.943 676.961 405.219 675.863 405.419C671.399 406.988 667.055 408.793 662.522 410.197C661.914 410.394 661.116 411.087 660.518 410.71C658.71 423.032 657.32 435.722 656.143 448.096C655.247 452.001 656.532 464.798 653.395 466.66C657.023 498.486 657.966 530.448 658.922 562.422C659.027 579.411 660.075 596.455 659.416 613.427C659.118 617.465 660.22 621.769 659.226 625.659C659.239 625.818 659.248 625.977 659.255 626.138C663.642 624.574 668.059 622.637 672.637 621.714C675.046 622.216 673.406 626.355 672.703 627.73C669.151 633.207 660.328 637.424 653.708 634.262C653.493 636.212 655.956 639.774 652.901 640.409C650.868 640.769 646.667 642.323 646.477 639.327C634.818 590.872 628.315 541.665 619.536 492.76C617.485 492.92 615.497 492.929 613.521 493.021C611.979 517.88 607.107 542.46 602.947 567.017C601.849 579.675 598.037 591.898 596.79 604.516C595.672 612.905 594.691 621.436 593.355 629.781C592.861 632.798 592.487 635.832 591.965 638.851C591.927 639.238 591.728 639.597 591.408 639.852C591.482 639.908 591.549 639.973 591.607 640.043C596.232 640.116 601.276 640.56 605.515 642.193C606.388 643.611 605.66 645.439 604.182 646.172C600.598 649.653 594.593 649.697 589.692 649.943C586.412 649.819 583.784 647.843 580.866 646.68C580.274 648.536 579.846 652.046 576.953 651.225C575.468 651.031 573.552 650.68 573.888 648.905C573.128 640.69 573.948 632.467 573.521 624.249C573.074 619.318 573.492 614.387 573.768 609.456C574.084 595.353 574.084 581.271 574.03 567.171C574.825 553.874 576.357 540.601 577.025 527.301C577.418 515.736 577.313 504.288 578.019 492.752C569.114 491.591 571.188 490.591 571.837 483.426C557.961 484.203 533.34 484 534.815 466.109C535.645 458.017 537.415 450.043 540.739 442.481C542.48 437.384 544.025 432.178 546.969 427.545C546.893 428.212 547.308 428.656 547.874 428.996C544.142 438.489 540.229 448.009 537.886 457.877C537.041 463.763 534.847 470.608 540.451 475.165C550.094 483.734 575.221 480.888 587.726 479.02C601.077 477.175 614.43 475.385 627.783 473.648C628.283 473.416 628.733 473.892 629.049 474.188C631.123 475.258 632.928 479.838 635.381 477.607C635.337 475.446 631.405 472.853 632.747 471.47C633.064 471.145 633.38 471.47 633.526 471.742C634.318 472.649 635.233 473.46 636.249 474.156C639.569 474.794 635.913 470.486 635.118 469.61C634.678 469.149 634.776 467.763 635.625 467.835C636.644 468.523 637.841 469.332 639.145 469.387C639.25 467.902 637.562 467.067 636.752 465.961C635.486 464.189 633.833 462.637 631.734 461.709C612.065 460.528 592.351 463.916 572.628 463.873C572.248 464.288 571.748 464.453 571.362 463.908C566.027 464.114 560.69 464.024 555.365 464.227C554.459 464.041 554.77 461.996 555.64 462.014C556.289 462.031 556.938 462.014 557.587 461.979C560.044 453.461 563.032 445.08 566.537 436.877C563.548 436.041 560.949 434.327 558.094 433.199C556.28 432.526 544.952 429.306 547.289 426.939C546.915 425.996 548.216 424.128 548.463 423.339C550.464 419.119 552.709 415.017 554.795 410.835C563.789 390.643 584.93 388.244 605.983 386.858C616.683 388.257 627.565 387.973 638.161 386.02C637.791 386.053 637.424 386.108 637.062 386.185C636.72 381.689 637.483 377.167 637.097 372.659C637.049 371.972 637.192 370.919 638.173 370.962C640.29 370.817 642.351 370.271 644.226 369.358C646.689 367.966 646.525 364.465 646.651 362.107C646.237 357.947 645.588 353.678 645.034 349.408C644.112 351.174 641.551 351.253 639.652 351.2C636.942 351.2 635.273 348.59 636.856 346.504C638.42 344.567 642.058 343.314 644.454 344.523C644.355 343.589 644.271 342.656 644.201 341.724C642.716 342.107 640.402 341.979 639.354 342.037C638.154 341.837 636.822 342.142 635.685 341.747C634.264 339.328 641.811 338.22 644.011 338.6C643.973 337.567 643.957 336.538 643.97 335.517L644.356 335.464C644.711 336.639 645.015 337.828 645.277 339.026C645.454 339.235 645.575 339.478 645.63 339.737C645.685 339.996 645.673 340.263 645.594 340.517C646.49 345.115 646.927 349.799 647.778 354.385C649.225 362.139 649.941 373.071 638.319 373.094C638.841 377.495 637.958 381.593 638.423 385.97C640.355 385.603 642.267 385.175 644.16 384.685C654.816 381.889 665.922 380.593 676.477 377.599C676.793 377.837 677.015 378.382 677.164 379.105C677.16 378.706 677.071 378.312 676.904 377.944C681.108 376.468 685.199 374.672 689.308 372.981C691.622 372.062 694.291 371.618 696.304 370.275C695.355 368.987 694.604 367.479 693.674 366.214C688.633 358.638 683.511 351.099 678.94 343.267C670.709 330.029 663.06 315.873 659.597 300.889C657.792 301.974 655.994 303.041 654.154 304.079C650.913 305.791 647.576 307.354 644.283 308.984C643.068 309.388 641.855 310.539 640.522 310.29C632.342 301.272 627.501 289.921 620.894 279.894C617.358 274.214 614.309 268.257 611.226 262.365C610.846 261.631 606.382 253.495 608.668 254.673L608.718 254.76C608.926 254.504 609.198 254.297 609.51 254.157C625.057 243.404 642.957 236.271 660.679 229.121C662.696 228.611 667.875 225.342 669.366 226.119C673.912 232.144 675.495 239.514 678.908 246.058C683.742 258.023 690.026 269.408 695.484 281.118C696.004 281.782 696.279 282.937 695.513 283.517C691.584 285.405 687.671 287.331 683.821 289.365C680.14 291.05 676.445 292.692 672.757 294.365C672.789 294.478 672.814 294.589 672.83 294.673C673.84 297.234 675.489 299.575 676.98 301.924C687.161 316.294 697.745 330.461 707.486 345.066C713.27 353.283 720.441 361.37 721.283 371.444C722.334 381.263 716.043 389.265 706.875 393.764Z" fill="white"/>
<path d="M607.382 442.515C607.179 442.473 606.989 442.388 606.828 442.267C606.666 442.145 606.539 441.991 606.455 441.816C605.068 442.904 603.605 439.786 606.771 438.187C605.365 436.853 604.435 435.075 602.738 434.019C600.648 435.382 596.156 440.554 593.728 440.061C592.5 439.075 593.057 437.488 594.288 436.749C596.682 434.802 598.641 432.264 601.658 431.084C603.792 430.486 607.015 435.812 608.607 437.079C610.732 434.025 611.14 440.519 611.393 441.688C611.441 443.211 608.478 442.361 607.382 442.515ZM609.497 439.855L609.459 439.652C609.42 439.722 609.37 439.787 609.31 439.844L609.497 439.855Z" fill="#73D88B"/>
<path d="M602.545 460.064C601.747 459.881 601.155 459.272 600.475 458.878C599.918 458.483 599.113 458.341 598.781 457.718C598.37 457.056 598.009 455.612 599.053 455.322C600.266 454.338 600.671 452.656 601.861 451.722C603.207 451.809 603.08 453.697 603.128 454.602C606.262 454.927 609.314 453.831 612.445 453.822C612.16 451.739 610.188 449.088 610.84 447.133C612.448 446.431 615.832 455.391 615.025 456.601C614.963 456.763 614.85 456.904 614.7 457.008C614.55 457.111 614.37 457.171 614.183 457.181C610.479 457.268 606.901 458.666 603.182 458.127C603.321 458.762 603.536 460.003 602.545 460.064Z" fill="#73D88B"/>
<path d="M592.826 457.181C589.954 456.955 587.365 455.597 584.446 455.635C580.963 453.941 585.446 448.485 586.868 446.454C585.601 446.118 585.095 444.763 585.329 443.661C585.551 442.701 588.295 442.501 589.293 442.132C590.511 438.916 592.417 445.082 592.506 446.141C592.968 448.595 591.433 448.195 589.584 447.557C588.318 449.227 586.877 451.02 586.013 452.842C588.28 453.468 590.094 454.994 592.367 455.615C593.437 455.591 594.352 457.181 592.826 457.181Z" fill="#73D88B"/>
<path d="M591.645 458.495C585.257 457.425 579.403 455.76 585.133 449.422C585.766 448.456 589.249 443.91 588.97 447.391C587.311 448.995 586.27 451.084 585.171 453.03C588.169 453.9 594.374 453.279 593.595 457.599C593.45 458.463 592.405 458.492 591.645 458.495Z" fill="#73D88B"/>
<path d="M614.531 456.311C613.818 455.818 613.739 454.951 613.401 454.254C612.204 455.032 610.836 448.897 610.488 448.076C610.263 447.496 609.994 446.661 610.507 446.138C612.001 445.097 614.762 453.025 615.721 454.162C616.177 454.956 615.981 457.204 614.531 456.311Z" fill="#73D88B"/>
<path d="M586.298 445.123C584.329 443.258 588.255 442.097 589.616 441.291C590.67 441.433 590.072 442.707 589.416 443.031C588.486 443.548 587.362 445.201 586.298 445.123Z" fill="#73D88B"/>
<path d="M658.061 258.838C661.645 267.691 657.292 279.494 651.116 286.586C644.407 291.444 640.035 284.227 641.346 278.438C643.138 274.348 643.179 269.829 640.57 266.003C636.844 259.848 636.524 251.929 646.661 253.266C647.37 251.943 651.242 253.367 652.461 253.666C656.038 254.748 656.811 255.659 658.061 258.838Z" fill="#73D88B"/>
<path d="M638.313 373.092C638.835 377.492 637.952 381.591 638.417 385.968C638.417 385.968 638.417 385.988 638.417 385.997C638.329 385.997 638.237 385.997 638.148 386.02C637.779 386.053 637.412 386.108 637.05 386.185C636.708 381.689 637.471 377.167 637.085 372.659C637.037 371.972 637.179 370.919 638.161 370.963C640.278 370.817 642.339 370.271 644.214 369.359C646.677 367.966 646.512 364.465 646.639 362.107C646.224 357.947 645.575 353.678 645.021 349.408C644.806 347.778 644.61 346.148 644.445 344.523C644.346 343.589 644.261 342.656 644.192 341.724C644.113 340.677 644.049 339.633 644.008 338.594C643.967 337.556 643.954 336.532 643.967 335.511L644.353 335.459C644.708 336.633 645.012 337.823 645.275 339.021C645.385 339.517 645.487 340.013 645.591 340.512C646.487 345.109 646.924 349.794 647.776 354.38C649.219 362.136 649.935 373.063 638.313 373.092Z" fill="black"/>
<path d="M635.869 358.988C633.792 359.336 631.06 357.164 632.294 355.264C632.342 355.211 632.404 355.172 632.475 355.151C632.545 355.13 632.621 355.128 632.693 355.145C632.765 355.162 632.83 355.198 632.88 355.248C632.931 355.297 632.965 355.359 632.978 355.426C633.703 358.585 639.899 357.886 638.341 354.803C637.673 354.054 636.695 353.593 636.011 352.856C633.678 349.86 633.162 345.544 633.713 341.95C633.931 340.842 634.612 341.431 634.403 342.266C634.216 344.746 635.406 347.116 636.302 349.399C637.198 350.559 638.62 351.293 639.427 352.514C641.175 355.099 639.696 359.429 635.869 358.988Z" fill="black"/>
<path d="M624.776 346.452C623.358 346.336 621.885 346.177 620.489 346.499C619.517 346.768 615.712 347.949 617.13 349.153C617.151 349.171 617.175 349.186 617.202 349.194C617.23 349.203 617.259 349.205 617.287 349.202C617.316 349.199 617.343 349.189 617.367 349.175C617.391 349.16 617.41 349.141 617.425 349.118C616.918 351.845 620.208 353.333 622.766 353.309C627.787 353.588 630.446 347.146 624.776 346.452ZM622.129 351.734C620.451 351.705 617.605 350.8 618.09 348.892C619.447 348.561 620.832 348.332 622.231 348.207C623.545 348.092 624.871 348.139 626.172 348.349L626.425 348.396C628.695 350.586 624.003 352.059 622.129 351.734Z" fill="black"/>
<path d="M623.395 351.235C621.097 350.234 621.98 346.031 624.832 346.991C627.536 347.661 625.792 351.957 623.395 351.235Z" fill="black"/>
<path d="M644.657 344.636L644.448 344.523C642.055 343.308 638.417 344.567 636.85 346.504C635.267 348.584 636.935 351.212 639.645 351.2C641.526 351.253 644.1 351.174 645.027 349.408C645.053 349.361 645.075 349.315 645.097 349.266C645.452 347.795 645.771 345.904 644.657 344.636ZM644.34 348.407C643.527 349.448 641.586 349.724 640.25 349.64C639.129 349.66 637.863 349.138 637.29 348.233C637.31 348.172 637.316 348.109 637.308 348.046C637.3 347.983 637.278 347.922 637.243 347.868C637.673 346.957 638.841 346.516 639.804 346.203C638.591 350.438 645.239 349.26 643.391 345.724C644.853 345.765 644.451 347.517 644.328 348.407H644.34Z" fill="black"/>
<path d="M626.631 343.955C622.54 344.642 618.324 344.683 614.338 345.669C612.438 343.688 617.279 342.246 618.77 341.625C621.35 340.738 624.152 340.741 626.84 341.1C627.96 341.411 627.66 343.696 626.631 343.955Z" fill="black"/>
<path d="M645.588 340.514C645.553 340.664 645.506 340.812 645.445 340.955C645.268 341.329 644.812 341.57 644.195 341.727C642.71 342.11 640.396 341.982 639.348 342.04C638.148 341.84 636.815 342.144 635.679 341.75C634.257 339.331 641.805 338.223 644.005 338.603C644.1 338.617 644.193 338.638 644.284 338.667C644.467 338.662 644.649 338.691 644.819 338.754C644.989 338.816 645.143 338.91 645.271 339.029C645.447 339.237 645.567 339.479 645.622 339.737C645.677 339.995 645.665 340.261 645.588 340.514Z" fill="black"/>
<path d="M632.437 365.959C631.363 365.182 630.3 363.821 630.119 362.551C630.334 361.367 631.196 362.644 631.629 362.986C632.171 363.296 632.49 363.929 633.038 364.161C634.064 363.929 635.153 363.372 635.571 362.446C635.672 362.33 635.821 362.29 635.919 362.446C636.337 363.43 633.579 366.226 632.437 365.959Z" fill="black"/>
<path d="M620.514 356.581C620.169 357.39 619.34 358.144 618.814 358.84C618.355 358.626 619.283 357.521 619.378 357.181C619.565 356.639 620.454 355.174 620.514 356.581Z" fill="black"/>
<path d="M622.642 357.689C622.392 357.927 621.863 359.253 621.458 358.713C621.284 358.388 621.338 357.802 621.746 357.657C622.047 357.387 623.098 354.951 623.503 355.798C623.769 356.509 622.958 357.077 622.642 357.689Z" fill="black"/>
<path d="M625.213 357.849C624.94 358.173 624.744 357.718 624.798 357.486C624.812 357.33 624.893 357.185 625.023 357.083C625.593 356.317 626.02 355.264 626.821 354.728C627.755 355.56 625.555 356.973 625.213 357.849Z" fill="black"/>
<path d="M642.216 354.138C642.071 354.605 642.333 355.484 641.722 355.676C641.115 355.47 641.909 353.23 642.223 352.891C642.615 353.109 642.147 353.761 642.216 354.138Z" fill="black"/>
<path d="M644.388 354.374C644.29 354.719 644.353 355.395 643.85 355.456C643.217 355.166 643.767 354.087 643.932 353.608C644.049 353.411 644.369 352.314 644.679 352.796C644.777 353.318 644.413 353.837 644.388 354.374Z" fill="black"/>
<path d="M613.265 360.766C611.907 362.373 609.928 361.057 609.289 359.574C608.06 357.79 607.959 355.592 606.962 353.706C606.737 353.152 606.085 352.999 605.524 352.836C604.458 352.526 603.185 352.633 602.932 353.825C602.479 355.925 604.92 357.596 606.769 358.286C607.63 358.127 607.627 359.844 607.889 360.36C608.983 364.092 609.297 367.979 608.817 371.818C608.621 376.827 608.788 381.886 607.297 386.748C606.86 386.687 606.297 386.498 605.961 386.849C605.93 386.831 605.897 386.815 605.863 386.803C607.111 382.939 607.038 378.84 607.095 374.852C605.778 377.431 604.097 376.05 604.201 374.046C603.277 375.357 601.083 376.111 600.402 374.202C599.946 371.83 602.023 369.66 601.738 367.281C601.934 362.455 600.155 357.834 599.709 353.068C599.411 348.836 599.655 344.416 601.095 340.387C601.292 340.677 601.58 340.561 601.77 340.346C601.814 340.296 601.852 340.243 601.884 340.186C601.899 340.159 601.913 340.131 601.925 340.102C605.575 339.914 609.178 339.699 612.771 339.078C612.562 339.679 612.622 341.109 611.98 341.468C611.758 345.021 612.045 348.585 612.831 352.07C613.116 354.881 614.69 358.078 613.265 360.766Z" fill="black"/>
<path d="M659.394 326.943C656.228 331.627 649.782 333.518 644.429 335.447C630.148 336.344 616.149 339.076 601.921 340.106C601.91 340.134 601.896 340.163 601.88 340.19C601.848 340.246 601.81 340.3 601.766 340.349C601.576 340.564 601.288 340.68 601.092 340.39C600.589 339.76 601.092 338.922 601.408 338.299C601.89 335.792 603.457 333.695 605.359 331.894C611.299 325.446 620.787 322.664 629.758 322.403C637.546 321.765 643.66 324.602 644.28 332.297C648.576 328.462 651.292 323.035 656.779 320.434C661.151 318.206 660.923 324.883 659.394 326.943Z" fill="#73D88B"/>
<path d="M697.729 371.798C697.185 371.342 696.704 370.827 696.298 370.263C695.348 368.975 694.598 367.467 693.667 366.202C688.627 358.626 683.505 351.087 678.933 343.255C670.702 330.017 663.054 315.862 659.59 300.877C659.419 300.14 659.26 299.402 659.112 298.664C658.628 296.259 658.251 293.834 658.004 291.389C657.732 285.721 660.565 285.492 661.904 288.366C662.416 289.554 662.647 290.827 662.582 292.102C662.525 292.41 662.8 294.348 662.639 295.293C662.572 295.688 662.427 295.908 662.148 295.757C661.224 294.597 662.205 287.621 659.587 288.703C658.438 292.593 661.221 298.478 662.006 302.513C666.849 319.748 676.144 335.6 686.3 350.664C690.163 356.566 694.079 362.426 697.789 368.407C698.215 368.9 698.506 369.478 698.638 370.095C698.805 370.869 698.638 371.635 697.729 371.798Z" fill="black"/>
<path d="M675.985 379.685C675.985 379.839 676.004 379.975 676.007 380.14C675.817 380.076 675.652 379.962 675.533 379.812L675.985 379.685Z" fill="black"/>
<path d="M697.397 373.15C690.641 375.276 684.23 378.464 677.316 380.137L677.224 380.16C677.18 379.827 677.18 379.464 677.158 379.102C677.153 378.703 677.065 378.309 676.898 377.941C681.102 376.465 685.192 374.669 689.302 372.978C691.616 372.059 694.285 371.615 696.298 370.272C696.729 369.987 697.124 369.658 697.476 369.292C697.737 369.287 697.993 369.36 698.205 369.5C698.417 369.639 698.574 369.838 698.654 370.066C699.173 371.197 698.771 373.147 697.397 373.15Z" fill="black"/>
<path d="M670.996 295.201C670.268 294.545 669.638 283.647 667.675 286.023C664.962 289.611 667.343 294.186 665.868 295.395C664.035 295.685 664.814 288.361 663.826 287.392C662.243 288.036 663.022 293.193 662.765 294.812C662.86 294.916 662.86 295.201 662.715 295.224C661.72 296.257 662.104 289.472 661.942 288.964C661.54 285.887 664.415 283.36 665.38 287.691C669.091 275.16 674.732 298.13 670.996 295.201Z" fill="black"/>
<path d="M706.875 393.764C700.968 397.477 694.003 399.223 687.412 401.596C684.436 402.829 681.276 403.531 678.11 404.207C678.139 403.876 678.145 403.551 678.145 403.226C678.145 402.82 678.123 402.417 678.114 402.011C678.104 401.605 678.098 401.239 678.114 400.851C678.114 400.851 678.114 400.822 678.114 400.807C705.865 394.182 733.066 383.983 711.595 354.545C705.748 346.864 700.771 338.664 695.063 330.899C689.982 324.146 684.885 317.414 680.368 310.333C677.939 306.449 672.159 300.233 671.877 295.349C671.859 295.081 671.859 294.813 671.877 294.545C671.893 294.296 671.929 294.047 671.985 293.803C672.052 293.754 672.133 293.726 672.219 293.721C672.504 293.704 672.662 294.055 672.754 294.368C672.785 294.481 672.811 294.592 672.827 294.676C673.837 297.237 675.486 299.578 676.977 301.927C687.158 316.297 697.742 330.464 707.483 345.068C713.267 353.286 720.438 361.373 721.28 371.447C722.334 381.263 716.043 389.266 706.875 393.764Z" fill="black"/>
<path d="M672.637 621.703C668.059 622.625 663.642 624.563 659.255 626.126C659.255 625.967 659.245 625.808 659.226 625.647C660.22 621.758 659.118 617.453 659.416 613.415C660.075 596.444 659.027 579.4 658.922 562.411C657.972 530.437 657.023 498.475 653.395 466.649C653.111 466.908 652.745 467.079 652.35 467.139H652.239C652.188 467.139 652.137 467.134 652.087 467.124C651.894 467.082 651.715 466.996 651.566 466.874C651.418 466.753 651.304 466.6 651.236 466.428C651.21 466.379 651.188 466.324 651.166 466.269C651.031 465.914 650.965 465.54 650.97 465.164C647.155 465.106 643.182 465.225 639.465 465.868L639.256 465.657C639.117 465.512 638.981 465.367 638.845 465.21C638.822 465.184 638.797 465.158 638.775 465.129C638.664 465.004 638.553 464.874 638.458 464.743L638.259 464.502C637.993 464.177 637.73 463.844 637.464 463.51L637.062 463.011L636.654 462.518C635.41 461.068 634.02 459.751 632.073 459.4H632.047C632.402 447.183 634.64 434.823 633.336 422.649C633.336 421.993 633.773 421.007 632.902 420.639C632.291 420.349 631.668 420.093 631.044 419.832L630.949 419.792C630.297 419.525 629.645 419.264 628.996 418.988C627.1 418.284 625.152 417.702 623.167 417.248H623.152C619.92 416.527 616.633 416.036 613.318 415.78L612.913 415.745C608.63 415.4 604.305 415.31 600.05 415.191C599.044 415.148 598.034 415.128 597.021 415.136C594.661 415.153 592.306 415.315 589.97 415.621C586.929 416.012 583.932 416.654 581.017 417.541C578.844 418.203 576.727 419.014 574.686 419.966C574.425 420.093 574.184 420.254 573.97 420.442C573.848 420.552 573.735 420.671 573.635 420.798C573.618 420.812 573.604 420.827 573.594 420.845C573.528 420.927 573.467 421.013 573.413 421.103C572.818 422.014 572.6 423.241 572.505 424.508C572.505 424.587 572.505 424.668 572.505 424.746C572.505 424.88 572.486 425.016 572.479 425.149C572.479 425.477 572.457 425.805 572.448 426.127C572.444 426.988 572.391 427.849 572.289 428.705C572.438 428.734 572.577 428.795 572.693 428.885C572.809 428.975 572.899 429.089 572.954 429.219C573.071 429.549 573.071 429.904 572.954 430.234C572.829 430.643 572.604 431.021 572.296 431.339C572.262 431.374 572.226 431.407 572.188 431.438L572.163 431.461C572.163 431.597 572.131 431.737 572.118 431.873C571.093 441.703 571.425 451.667 571.169 461.532C567.338 461.793 563.501 461.718 559.667 461.839C562.998 453.256 566.04 444.555 568.772 435.835L568.823 435.676C568.563 435.893 568.281 436.308 567.968 436.636C567.594 437.027 567.183 437.297 566.702 436.958C566.658 436.93 566.617 436.898 566.581 436.862C563.086 445.064 560.107 453.443 557.66 461.958C557.027 461.993 556.362 462.011 555.713 461.993C554.842 461.976 554.532 464.024 555.438 464.206C560.762 464.003 566.1 464.093 571.435 463.887C571.811 464.421 572.311 464.267 572.701 463.853C592.424 463.896 612.138 460.508 631.807 461.689C633.906 462.617 635.549 464.169 636.825 465.941C637.632 467.049 639.323 467.882 639.218 469.367C637.92 469.312 636.717 468.496 635.698 467.815C634.849 467.742 634.748 469.129 635.191 469.59C635.986 470.46 639.642 474.773 636.321 474.135C635.306 473.44 634.391 472.629 633.599 471.722C633.444 471.432 633.13 471.124 632.82 471.449C631.478 472.833 635.41 475.426 635.454 477.587C632.994 479.818 631.19 475.238 629.122 474.167C628.806 473.877 628.34 473.396 627.856 473.628C614.49 475.356 601.137 477.147 587.799 479C575.218 480.876 550.09 483.722 540.451 475.165C534.847 470.608 537.041 463.763 537.886 457.877C540.229 448.015 544.142 438.489 547.874 429.004C547.308 428.656 546.893 428.212 546.969 427.554C544.025 432.195 542.48 437.393 540.739 442.489C537.415 450.043 535.645 458.016 534.815 466.109C533.34 484 557.961 484.203 571.818 483.403C571.184 490.567 569.095 491.574 578 492.728C577.294 504.264 577.399 515.713 577.006 527.278C576.338 540.577 574.79 553.851 574.011 567.147C574.056 581.247 574.081 595.33 573.749 609.433C573.473 614.364 573.055 619.295 573.502 624.226C573.929 632.438 573.109 640.661 573.869 648.882C573.533 650.66 575.452 651.011 576.934 651.202C579.827 652.023 580.255 648.513 580.847 646.657C583.765 647.817 586.393 649.795 589.673 649.92C594.574 649.679 600.579 649.63 604.163 646.149C605.641 645.415 606.379 643.588 605.496 642.169C601.257 640.536 596.213 640.093 591.588 640.02C591.53 639.949 591.463 639.885 591.389 639.829C591.709 639.574 591.908 639.215 591.946 638.828C592.468 635.808 592.842 632.774 593.336 629.758C594.672 621.412 595.653 612.882 596.771 604.493C598.018 591.875 601.836 579.652 602.928 566.994C607.088 542.437 611.96 517.857 613.502 492.998C615.487 492.905 617.475 492.897 619.517 492.737C628.296 541.642 634.799 590.848 646.458 639.304C646.648 642.3 650.849 640.754 652.882 640.386C655.937 639.765 653.474 636.188 653.689 634.239C660.318 637.401 669.142 633.183 672.684 627.707C673.415 626.358 675.046 622.204 672.637 621.703ZM631.199 422.252C631.009 422.614 630.996 423.067 630.61 423.284C623.554 426.289 615.471 426.051 607.851 426.069C604.097 426.341 600.321 426.191 596.606 425.625C589.34 424.529 580.558 426.298 574.328 422.13C588.834 414.617 616.453 415.583 631.199 422.252ZM629.781 458.73C620.894 458.515 612.011 459.093 603.124 459.768L601.982 459.855C592.405 460.592 582.822 461.407 573.22 461.433C573.438 452.264 573.657 443.104 573.537 433.941C573.52 432.7 573.498 431.458 573.47 430.217V430.179C573.426 428.371 573.367 426.563 573.293 424.755C573.314 424.769 573.339 424.777 573.366 424.777C573.392 424.777 573.417 424.769 573.438 424.755C573.613 424.665 573.755 424.296 573.594 424.224L573.571 424.183C573.616 424.064 573.654 423.946 573.685 423.824C573.771 423.899 573.856 423.975 573.942 424.044C579.07 428.395 587.064 426.945 593.504 427.316C601.842 427.606 627.087 429.784 632.237 423.887C632.237 424.444 632.26 424.952 632.237 425.181C631.728 436.378 630.677 447.554 629.781 458.73ZM579.526 642.99C579.563 644.893 579.155 646.781 578.33 648.528C577.426 648.246 576.498 648.032 575.556 647.89C575.623 645.879 575.655 643.872 575.639 641.868C576.522 642.448 577.997 642.773 579.526 642.982V642.99ZM591.914 642.323C596.289 642.581 600.627 642.866 605.011 643.434C605.141 644.194 604.179 644.4 603.65 644.771C601.352 646.819 598.043 646.364 595.102 646.416C590.259 647.109 585.7 645.897 581.141 644.499C581.163 644.052 581.163 643.602 581.141 643.156C583.664 643.132 591.17 644.449 591.914 642.323ZM627.85 481.837C627.469 484.291 627.356 486.773 627.511 489.248C620.312 490.579 612.562 489.967 605.185 490.437C594.551 490.594 583.3 491.487 573.062 488.511C572.85 486.794 572.78 485.056 572.745 483.33C582.376 482.681 591.889 480.961 601.38 479.388C610.191 477.793 619.188 477.329 627.941 475.438L627.989 475.481C627.609 477.541 628.166 479.716 627.85 481.837ZM669.721 629.032C665.149 632.223 658.834 633.729 653.274 632.188C652.008 632.853 652.834 636.679 652.932 637.903C651.185 638.059 649.501 638.518 647.772 638.773C647.351 635.582 646.553 632.426 645.892 629.267C649.941 628.171 654.256 627.605 658.099 625.946C658.264 626.663 657.783 628.156 658.84 628.383C661.765 627.176 664.763 625.877 667.815 624.902C669.493 624.391 671.063 622.961 672.903 623.223C672.912 625.386 671.411 627.536 669.721 629.032Z" fill="black"/>
<path d="M678.133 403.229C678.133 403.162 678.098 403.098 678.079 403.029C678.079 402.689 678.079 402.35 678.101 402.014C678.101 401.625 678.101 401.239 678.101 400.853C678.101 396.392 677.648 391.937 677.506 387.476C677.385 386.153 677.588 382.634 677.313 380.143C677.271 379.771 677.221 379.423 677.154 379.107C677.006 378.385 676.787 377.84 676.467 377.602C665.912 380.595 654.807 381.892 644.151 384.688C642.251 385.179 640.339 385.608 638.414 385.973L638.148 386.025C627.556 387.976 616.679 388.257 605.983 386.858C584.94 388.244 563.799 390.643 554.805 410.834C552.718 415.017 550.474 419.119 548.473 423.339C548.226 424.128 546.925 425.996 547.298 426.939C544.952 429.306 556.28 432.525 558.094 433.19C560.943 434.318 563.549 436.032 566.537 436.868C566.573 436.904 566.614 436.936 566.657 436.963C567.002 437.19 567.439 437.024 567.924 436.641C568.217 436.397 568.486 436.129 568.728 435.841C569.766 434.643 570.805 432.94 571.261 432.488C571.463 432.23 571.77 431.908 572.074 431.522C572.088 431.502 572.104 431.484 572.122 431.467C572.129 431.454 572.137 431.443 572.147 431.432L572.251 431.298C572.522 430.969 572.744 430.61 572.913 430.228C572.993 430.069 573.034 429.896 573.034 429.721C573.034 429.545 572.993 429.372 572.913 429.213C572.762 428.977 572.527 428.796 572.248 428.699C572.356 427.844 572.409 426.982 572.407 426.121C572.407 425.799 572.426 425.471 572.438 425.143L572.457 424.781L572.476 424.505C572.565 423.243 572.793 422.019 573.375 421.103C573.434 421.012 573.498 420.925 573.565 420.842C573.576 420.824 573.59 420.808 573.606 420.795C573.706 420.667 573.818 420.548 573.942 420.438C574.155 420.25 574.396 420.09 574.657 419.963C576.654 418.925 578.78 418.111 580.989 417.538C583.927 416.737 586.976 416.215 589.942 415.618L590.085 415.589C592.358 415.11 594.675 415.093 596.992 415.133C598.002 415.151 599.015 415.18 600.022 415.188C604.324 415.287 608.624 415.371 612.885 415.742L613.29 415.777C616.245 416.03 619.177 416.471 622.066 417.097C622.42 417.135 622.775 417.184 623.123 417.245H623.139C625.862 417.703 628.413 418.71 630.921 419.783L631.016 419.824L632.893 420.633C633.763 421.001 633.323 421.987 633.327 422.643C634.631 434.826 632.377 447.177 632.038 459.394H632.063C634.01 459.745 635.4 461.047 636.644 462.512C636.784 462.675 636.92 462.84 637.053 463.005C637.186 463.171 637.322 463.339 637.455 463.504C637.721 463.838 637.987 464.171 638.249 464.496L638.449 464.737C638.56 464.868 638.667 464.998 638.765 465.123C638.788 465.152 638.813 465.178 638.835 465.204C638.971 465.358 639.107 465.494 639.247 465.651L639.456 465.863C643.172 465.219 647.145 465.1 650.96 465.158C650.962 465.533 651.029 465.906 651.157 466.263C651.179 466.318 651.201 466.373 651.226 466.422C651.288 466.594 651.397 466.748 651.542 466.87C651.687 466.993 651.864 467.079 652.056 467.121C652.114 467.127 652.172 467.127 652.23 467.121H652.341C652.732 467.052 653.095 466.882 653.385 466.631C656.523 464.778 655.237 451.98 656.133 448.067C657.311 435.693 658.701 423.003 660.508 410.681C661.107 411.058 661.905 410.365 662.512 410.167C667.046 408.763 671.377 406.959 675.853 405.39C676.952 405.19 677.844 404.914 678.101 404.177C678.198 403.869 678.209 403.543 678.133 403.229ZM675.533 379.815L675.986 379.687C675.986 379.838 676.002 379.977 676.008 380.143C675.818 380.078 675.652 379.963 675.533 379.812V379.815Z" fill="#73D88B"/>
<path d="M649.687 467.144C646.87 467.162 644.058 467.043 641.241 467.092C639.579 467.356 638.85 466.022 638.708 464.711C639.025 463.78 639.493 465.239 639.8 465.5C644.004 465.297 648.206 464.63 652.416 464.601C653.309 464.754 653.35 466.051 653.049 466.672C652.34 467.493 650.725 467.008 649.687 467.144Z" fill="#73D88B"/>
<path d="M572.286 433.599C571.672 432.94 572.423 419.29 573.632 422.405C573.015 423.014 574.278 437.486 572.286 433.599Z" fill="black"/>
<path d="M573.486 421.892C573.445 421.602 573.764 421.602 573.752 421.877C573.793 422.153 573.473 422.168 573.486 421.892Z" fill="black"/>
<path d="M572.964 434.324C571.697 433.88 572.527 426.571 572.207 424.897C572.305 423.621 572.039 421.915 573.369 421.106C574.141 420.618 574.8 421.045 574.445 421.848C574.214 422.089 573.856 422.237 573.73 422.562C574.296 425.57 573.986 428.479 573.815 431.487C573.692 432.122 573.98 434.394 572.964 434.324Z" fill="black"/>
<path d="M660.306 300.445L659.59 300.877C657.786 301.962 655.987 303.03 654.148 304.068C650.906 305.779 647.569 307.343 644.277 308.973C643.061 309.376 641.849 310.528 640.516 310.278C632.335 301.26 627.495 289.91 620.888 279.883C617.352 274.203 614.303 268.245 611.219 262.354C610.839 261.62 606.376 253.484 608.661 254.661L608.712 254.748C608.961 255.168 609.21 255.589 609.459 256.01C619.773 273.414 629.147 291.398 640.608 308.17C646.867 305.217 653.369 302.348 659.125 298.661C659.258 298.58 659.391 298.496 659.524 298.409C660.435 298.168 660.863 299.967 660.306 300.445Z" fill="black"/>
<path d="M695.513 283.517C691.584 285.405 687.672 287.331 683.822 289.365C680.14 291.05 676.445 292.692 672.757 294.365C672.586 294.473 672.392 294.547 672.187 294.583C672.086 294.599 671.982 294.583 671.893 294.536C671.856 294.521 671.823 294.499 671.795 294.473C671.588 294.275 671.446 294.028 671.383 293.76C671.321 293.492 671.34 293.214 671.44 292.955C671.521 292.842 671.625 292.745 671.746 292.669C671.868 292.593 672.005 292.539 672.149 292.512C672.447 292.45 672.725 292.327 672.963 292.152C679.988 288.787 686.867 285.115 693.747 281.483C689.378 271.99 684.376 262.885 680.105 253.391C675.936 244.979 673.688 235.816 668.838 227.685C650.729 235.212 632.624 242.824 615.769 252.532C613.632 253.637 611.593 254.94 609.438 256.013L608.956 256.248C608.14 255.958 608.26 255.282 608.69 254.751C608.898 254.495 609.17 254.289 609.482 254.148C625.058 243.404 642.957 236.271 660.68 229.121C662.696 228.611 667.876 225.342 669.367 226.119C673.913 232.144 675.496 239.514 678.908 246.058C683.743 258.023 690.027 269.408 695.485 281.118C696.004 281.782 696.279 282.937 695.513 283.517Z" fill="black"/>
<path d="M659.467 406.809C658.878 405.712 660.043 404.427 660.147 403.276C660.173 402.986 660.388 401.988 660.685 402.725C660.685 403.305 660.277 407.194 659.467 406.809Z" fill="white"/>
<path d="M604.274 346.757C603.451 346.377 605.983 343.705 605.983 342.553C606.211 341.66 607.016 342.443 606.401 342.687C606.383 342.69 606.366 342.696 606.351 342.704C605.873 344.071 605.385 345.776 604.274 346.757Z" fill="white"/>
<path d="M605.904 348.076C605.587 347.572 606.1 347.166 606.379 346.777C607.041 345.834 607.414 344.773 607.826 343.728C608.098 342.789 608.693 343.604 608.183 343.728C608.057 344.149 606.496 349.013 605.904 348.076Z" fill="white"/>
<path d="M608.237 350.701C607.411 349.68 608.814 347.67 609.01 346.469C609.453 345.767 609.96 346.881 609.466 347.203C609.076 347.899 609.174 350.811 608.237 350.701Z" fill="white"/>
</g>
<path d="M135.991 372.912C134.886 390.4 132.816 409.982 142.271 425.853C153.065 440.427 178.146 440.746 192.433 430.403C198.725 425.376 202.592 418.517 207.24 412.269C208.23 410.756 215.393 400.226 215.913 396.218C218.142 398.597 220.961 400.517 223.139 402.931C228.378 413.328 227.527 425.242 229.171 436.389C229.863 439.373 228.993 444.761 231.178 446.861C230.673 446.548 230.308 446.079 230.149 445.54C211.215 503.636 215.062 565.676 219.241 625.534C220.955 678.103 225.908 730.433 228.67 782.897C222.701 780.815 215.488 778.313 210.846 779.738C200.617 783.555 221.209 795.941 226.085 796.901C230.276 798.646 248.944 803.783 251.261 799.617C254.646 797.68 254.379 787.499 255.439 783.735C258.805 755.519 260.265 727.14 264.253 698.983C270.158 646.408 278.933 594.037 281.028 541.183C286.464 590.675 293.575 641.609 321.285 685.363C322.555 690.727 327.749 695.254 330.441 700.228C340.441 714.743 351.115 728.775 362.271 742.54C372.069 755.874 381.802 769.476 394.019 781.071C393.956 781.524 394.159 781.693 394.54 781.571C394.984 781.996 395.441 782.42 395.918 782.81C377.929 812.655 390.965 808.926 411.417 789.89C414.833 786.597 423.049 780.332 420.567 775.264C418.802 765.13 412.414 756.136 407.988 746.816C389.574 716.826 371.624 686.219 355.852 655.018C349.089 644.035 350.944 639.508 352.474 627.623C357.325 608.913 359.261 589.808 359.636 570.609C362.246 526.523 355.547 480.714 330.39 442.399C330.527 441.26 330.411 440.108 330.047 439.013C327.507 420.873 329.596 402.489 331.666 384.373C334.371 388.026 337.87 391.104 340.467 394.845C340.657 397.073 341.813 397.213 343.229 396.84C343.18 396.97 343.139 397.102 343.108 397.236C343.241 405.881 348.251 414.229 350.975 422.473C356.214 435.761 359.535 450.398 369.008 461.812C378.164 474.745 399.34 483.547 411.03 468.299C419.602 454.18 422.326 433.87 422.218 417.848C422.706 389.597 420.116 361.416 419.113 333.224C423.557 332.107 431.882 331.281 426.065 325.701C432.764 324.916 431.177 318.953 425.634 317.655C428.618 316.853 430.078 312.559 427.367 310.761C425.812 310.008 424.113 309.536 422.364 309.371C425.538 302.669 426.942 281.888 427.837 278.974C431.012 258.565 434.326 238.25 437.133 217.824C439.063 194.979 442.083 172.252 446.194 149.64C446.599 149.653 447.004 149.62 447.4 149.541C507.086 143.433 538.11 97.5368 520.846 45.4567C507.118 11.8187 463.357 -1.62016 427.024 0.154243C385.58 3.02819 357.604 43.63 364.195 79.7346C365.77 102.79 378.247 125.578 398.737 139.279C411.011 144.875 424.624 148.413 438.365 148.384C438.206 149.727 438.18 151.095 437.914 152.421C436.479 166.209 433.329 179.84 432.802 193.692C428.205 219.778 424.929 245.999 421.265 272.19C422.491 278.089 415.551 300.697 416.497 308.923C412.414 308.429 408.509 308.149 407.956 308.26C394.476 311.285 396.051 328.407 394.152 338.401C389.447 364.953 390.343 391.843 387.225 418.534C384.412 407.556 380.875 396.66 376.964 386.002C380.266 383.849 366.519 356.855 364.621 353.126C353.883 336.179 337.952 319.174 315.545 316.608C313.564 316.783 304.179 314.7 301.385 317.376C301.566 317.13 301.799 316.92 302.071 316.758C302.343 316.596 302.647 316.486 302.966 316.434C302.966 315.922 302.896 315.387 302.858 314.851C309.005 316.189 316.351 316.666 322.116 313.944C323.875 312.961 324.656 310.983 326.453 310.092C335.978 309.412 349.343 304.525 345.915 293.611C344.511 287.211 338.86 283.372 334.854 278.421C329.501 272.562 344.638 269.479 339.241 255.732C333.857 242.764 320.002 249.792 312.109 224.45C306.871 207.579 287.714 197.764 269.409 197.212C262.424 195.332 255.243 195.106 248.493 197.793C230.771 200.883 223.044 220.413 220.491 234.934C220.828 251.753 220.796 247.791 211.602 261.398C205.36 271.8 215.545 276.949 216.809 285.716C209.913 296.334 211.672 308.44 225.52 312.844C228.365 313.868 231.47 313.746 234.473 313.723C240.48 313.769 246.779 314.735 252.646 313.42C252.684 313.484 252.722 313.554 252.766 313.618C252.561 313.958 252.485 314.351 252.55 314.735C241.001 313.955 228.784 313.432 217.844 317.498C201.093 326.429 191.62 342.846 185.785 359.217C185.701 359.521 185.675 359.836 185.708 360.148C181.575 368.101 178.787 376.542 175.651 384.85C177.162 376.385 178.146 367.752 179.664 359.363C183.956 328.069 190.013 296.799 190.121 265.273C189.778 261.538 189.924 257.5 189.486 253.637C190.324 254.219 192.16 254.184 193.296 254.434C197.106 254.9 200.782 256.674 204.56 256.686C207.424 255.336 205.773 252.032 206.16 249.705C206.256 246.924 206.586 244.306 206.96 241.56C210.732 216.637 211.043 191.435 214.535 166.512C215.17 164.487 215.863 161.572 212.408 161.857C199.995 160.071 187.721 157.482 175.289 155.737C154.335 151.595 132.969 149.535 111.653 148.174C109.818 148.645 109.837 150.74 109.418 152.142C102.858 180.338 98.4029 208.911 96.084 237.662C95.4491 240.193 98.6683 240.065 100.529 240.606C102.396 240.839 105.107 242.281 106.713 241.653C116.511 245.941 145.293 248.995 149.941 250.158C154.386 250.857 158.907 251.758 163.421 252.515C162.355 255.109 164.348 257.791 163.929 260.427C157.942 298.562 140.874 334.666 135.991 372.912Z" fill="white"/>
<path d="M454.53 111.296C470.576 109.254 479.179 113.512 476.754 94.2381C475.966 76.2963 472.011 58.7792 466.334 41.6344C467.369 39.9357 466.271 37.9984 466.334 36.189C466.239 35.0255 466.41 33.7223 465.515 32.8148C464.245 31.6512 456.587 32.1923 455.356 33.3966C451.901 40.0171 454.721 48.3597 454.835 55.5038C447.654 56.266 440.656 58.1858 433.437 59.1283C431.824 59.2912 426.992 61.4553 426.217 59.6577C422.782 52.2634 421.83 43.9499 417.798 36.8464C417.112 35.8982 415.785 36.189 414.82 36.573C411.499 37.306 408.369 38.999 408.997 42.5711C410.985 62.2582 412.661 82.178 416.858 101.586C417.779 108.317 422.401 109.428 428.986 109.76C437.393 111.168 445.971 111.965 454.53 111.296ZM469.604 105.117C456.905 106.351 443.984 107.276 431.303 105.327C426.694 104.599 419.354 106.397 418.725 100.434C414.477 81.2704 414.915 61.5484 412.178 42.1987C413.611 41.6318 415.009 40.9968 416.369 40.2963C419.779 46.4806 420.858 53.5898 423.544 60.0765C424.179 61.5252 424.287 63.6719 426.084 64.2944C429.672 64.9809 433.259 63.3461 436.84 63.0843C465.261 58.6919 454.67 58.7559 456.575 37.341C458.929 37.2032 461.29 37.176 463.648 37.2595C463.915 38.8885 463.82 40.9421 464.982 42.2453C469.706 62.5782 474.335 83.3474 473.592 104.239C472.294 104.641 470.96 104.935 469.604 105.117Z" fill="black"/>
<path d="M462.906 59.9192C466.284 58.459 462.03 41.8843 460.855 38.6962C460.157 37.969 460.093 39.5282 459.884 39.8598C459.661 40.3601 460.131 40.7615 460.353 40.1041C461.338 45.4913 462.214 51.2625 462.036 56.6846C462.087 57.6445 461.452 59.6691 462.906 59.9192Z" fill="black"/>
<path d="M460.951 62.1247C462.125 60.7284 461.821 59.1751 461.173 57.6799C460.5 51.775 459.02 45.7536 460.576 39.8661C460.741 40.1163 460.678 41.3089 461.154 41.0297C461.611 40.3955 461.027 39.5403 460.887 38.8597C460.684 37.4227 459.706 38.9353 459.579 39.5578C457.376 45.3755 458.138 51.5481 458.538 57.5403C458.64 58.8493 458.278 64.347 460.951 62.1247Z" fill="black"/>
<path d="M419.543 68.0642C420.572 67.3836 420.889 66.0804 420.87 64.975C422.273 61.9673 419.715 57.9589 419.708 54.829C418.591 51.0126 419.041 45.7475 415.352 43.1528C410.679 43.2226 415.778 59.6286 415.409 63.0436C415.975 65.3183 415.568 70.2459 419.543 68.0642ZM418.8 63.5323L417.943 64.242C416.914 58.4243 416.178 52.5601 415.263 46.7249C417.803 51.9608 418.146 57.8891 420.127 63.317C419.918 63.2097 419.676 63.1703 419.44 63.2051C419.204 63.24 418.987 63.3471 418.826 63.509L418.8 63.5323Z" fill="black"/>
<path d="M154.925 240.932C157.516 238.412 157.173 234.317 158.1 231.105C160.691 218.661 161.484 206.13 162.17 193.529C166.735 199.928 172.101 207.567 180.755 209.289C187.473 210.546 188.527 201.569 184.184 198.41C178.088 192.825 170.526 188.741 163.453 184.308C166.685 176.687 166.837 168.21 162.627 160.874C157.249 156.185 158.817 181.137 158.608 183.563C152.258 184.11 134.797 186.233 134.238 193.575C137.654 202.506 152.055 193.122 158.1 191.109C155.54 201.124 153.554 211.254 152.15 221.46C152.112 226.056 145.509 242.281 154.925 240.932ZM153.655 237.016C151.052 236.772 153.541 230.419 153.617 228.773C155.522 218.72 157.236 208.632 159.287 198.596C157.344 211.395 154.766 224.118 153.725 236.993L153.655 237.016ZM183.238 204.245C174.653 202.948 169.066 195.361 164.43 189.206C170.717 194.279 179.288 197.456 183.778 204.105C183.611 204.183 183.43 204.23 183.244 204.245H183.238ZM139.083 194.355C138.01 194.35 136.981 193.96 136.219 193.267C141.299 190.318 147.68 189.59 153.465 188.438C148.976 190.818 144.271 193.669 139.089 194.372L139.083 194.355ZM161.116 182.923C161.116 176.524 159.846 169.95 161.116 163.667C164.291 169.909 163.853 176.675 161.116 182.923Z" fill="black"/>
<path d="M263.344 268.618C265.782 268.164 269.058 265.424 266.734 263.243C265.763 262.899 265.185 264.208 264.429 264.592C263.454 265.168 262.353 265.541 261.203 265.686C260.054 265.831 258.884 265.743 257.775 265.43C263.744 260.374 266.607 255.4 266.798 247.808C266.842 247.226 266.976 243.672 265.744 244.638C264.995 247.948 264.633 251.497 262.613 254.446C259.343 259.636 250.054 269.491 263.344 268.618Z" fill="black"/>
<path d="M263.268 281.9C264.423 281.9 270.792 276.082 268.773 275.442C264.087 278.095 263.56 281.15 258.207 276.833C257.509 276.519 256.48 274.773 255.921 276.042C255.09 278.415 261.007 281.848 263.268 281.9Z" fill="black"/>
<path d="M289.035 257.914C292.54 257.332 296.807 255.296 296.972 251.636C296.629 243.672 282.368 244.172 278.495 249.961C275.199 254.976 284.444 258.984 289.035 257.914ZM284.425 255.005C283.4 254.88 282.413 254.564 281.526 254.075C280.639 253.587 279.871 252.937 279.27 252.166C283.517 248.675 291.334 246.395 295.886 250.543C293.943 254.452 288.788 255.622 284.425 255.011V255.005Z" fill="black"/>
<path d="M251.554 254.417C253.249 254.138 256.328 254.01 256.106 251.84C256.786 250.63 255.56 249.321 255.065 248.221C253.052 242.642 244.607 239.82 239.223 243.026C236.181 244.649 235.978 247.645 237.953 250.141C241.045 253.905 246.696 254.882 251.554 254.417ZM248.982 251.915C245.172 252.218 239.362 250.432 238.188 246.743C243.547 242.863 252.455 245.045 255.16 250.723C253.395 251.904 251.077 251.904 248.982 251.904V251.915Z" fill="black"/>
<path d="M287.281 254.155C290.869 252.009 286.437 244.358 283.732 249.245C282.557 251.474 283.916 256.203 287.281 254.155Z" fill="black"/>
<path d="M246.202 251.718C250.126 251.107 250.088 243.695 245.897 243.864C241.579 244.812 241.122 251.945 246.202 251.718Z" fill="black"/>
<path d="M286.901 254.72C287.337 254.509 287.713 254.208 288 253.842C290.768 252.358 288.457 245.813 284.825 247.797C281.568 249.269 282.723 256.331 286.901 254.72ZM285.6 251.567C285.431 251.537 285.275 251.464 285.149 251.357C285.353 251.173 285.619 251.057 285.903 251.029C286.188 251 286.475 251.061 286.717 251.2C286.563 251.329 286.381 251.428 286.184 251.491C285.986 251.554 285.777 251.58 285.568 251.567H285.6Z" fill="black"/>
<path d="M296.432 249.623C297.226 248.576 301.715 245.406 299.963 244.388C299.69 244.248 299.499 244.562 299.461 244.795C298.426 246.377 295.213 247.122 295.594 249.187C295.67 249.519 296.051 249.938 296.432 249.623Z" fill="black"/>
<path d="M292.991 248.163C293.575 247.75 297.55 243.445 295.975 243.282C295.194 244.271 290.229 247.395 292.991 248.163Z" fill="black"/>
<path d="M289.124 247.058C289.518 246.086 293.981 241.938 291.626 241.822C290.838 243.195 286.629 245.795 288.584 247.354C288.819 247.418 289.01 247.25 289.124 247.058Z" fill="black"/>
<path d="M243.915 242.304C244.652 240.646 242.531 238.878 241.598 237.58C241.001 237.423 241.306 238.953 241.687 238.93C242.347 239.605 242.791 242.938 243.915 242.304Z" fill="black"/>
<path d="M241.07 243.556C242.124 242.485 239.616 238.035 238.365 237.674C237.73 237.755 237.73 239.064 238.276 239.268C239.171 239.983 239.705 244.661 241.07 243.556Z" fill="black"/>
<path d="M238.582 246.045C239.281 244.882 238.214 243.811 237.839 242.723C237.414 242.194 236.379 238.215 235.541 239.175C235.02 239.297 235.026 240.455 235.585 240.507C236.144 241.327 237.103 247.831 238.582 246.045Z" fill="black"/>
<path d="M275.593 242.369C282.819 237.714 293.372 236.592 300.756 241.438C301.341 241.915 302.452 242.13 302.026 241.071C295.194 233.915 282.343 232.926 275.002 239.948C274.291 240.501 274.368 242.671 275.593 242.369Z" fill="black"/>
<path d="M258.309 240.391C260.297 238.506 256.538 236.319 255.287 234.963C250.258 230.239 239.083 228.127 234.67 234.125C234.67 234.364 234.867 234.951 235.26 234.829C242.924 232.106 251.465 235.091 257.37 239.809C257.427 240.211 257.859 240.763 258.309 240.391Z" fill="black"/>
<path d="M292.172 269.037C293.334 268.234 291.168 265.721 290.775 264.737C290.406 264.249 290.305 263.388 289.67 263.161C288.019 264.679 291.302 267.001 291.784 268.647C291.829 268.839 291.918 269.101 292.172 269.037Z" fill="black"/>
<path d="M287.193 267.745C287.466 266.157 285.752 264.697 285.186 263.219C284.38 262.212 283.917 264.115 284.348 264.633C284.698 265.052 286.723 268.658 287.193 267.745Z" fill="black"/>
<path d="M281.073 267.309C281.892 266.686 280.679 265.564 280.438 264.906C279.93 264.255 279.803 263.161 279.06 262.76C278.514 262.882 278.507 263.69 278.742 264.063C279.523 265.075 280.012 266.582 281.073 267.309Z" fill="black"/>
<path d="M250.283 263.603C251.438 262.981 249.997 261.323 249.648 260.514C249.222 259.862 249.14 258.914 248.473 258.455C246.492 259.164 249.635 262.672 250.283 263.603Z" fill="black"/>
<path d="M244.422 262.376C244.282 261.369 243.349 260.456 242.981 259.543C242.707 259.147 242.669 258.426 242.117 258.292C240.72 259.036 242.339 260.532 242.917 261.334C243.247 261.608 244.212 263.481 244.422 262.376Z" fill="black"/>
<path d="M238.88 262.376C239.394 261.323 238.391 258.885 237.794 257.926C235.889 257.408 238.308 262.911 238.88 262.376Z" fill="black"/>
<path d="M301.442 319.593L301.359 319.674C301.994 320 302.629 319.395 302.826 318.796C302.475 318.816 302.123 318.816 301.772 318.796C301.742 319.084 301.628 319.359 301.442 319.593Z" fill="black"/>
<path d="M216.783 285.728C209.887 296.346 211.646 308.452 225.495 312.856C228.339 313.88 231.444 313.758 234.448 313.735C240.454 313.781 246.753 314.747 252.62 313.432C252.658 313.496 252.696 313.566 252.741 313.63C252.748 313.6 252.759 313.571 252.773 313.543C252.831 313.334 252.963 313.148 253.147 313.015C253.332 312.881 253.56 312.807 253.795 312.804C254.038 312.817 254.266 312.918 254.43 313.083C254.614 313.272 254.725 313.511 254.747 313.764C255.922 308.377 254.747 302.501 255.116 296.956C255.979 286.758 248.766 292.756 240.391 284.157C228.962 268.002 231.26 242.427 235.946 224.468C243.128 214.828 252.284 226.713 259.643 213.833C263.662 223.106 273.974 220.232 282.431 221.338C291.384 224.316 289.803 229.733 300.896 231.536C302.763 232.077 304.416 233.106 305.652 234.497C305.652 234.8 305.741 235.079 306.02 234.98C306.623 243.079 303.322 251.764 303.722 260.13C304.49 264.575 309.271 255.179 314.357 263.621C314.503 266.739 310.198 269.159 307.277 270.439C303.607 272.057 301.347 271.527 301.264 276.018C299.455 289.516 298.724 303.402 300.331 316.882C300.711 316.952 301.066 317.105 301.366 317.33C301.547 317.084 301.78 316.873 302.052 316.711C302.323 316.549 302.628 316.439 302.947 316.388C302.947 315.876 302.877 315.34 302.839 314.805C308.985 316.143 316.332 316.62 322.097 313.898C323.856 312.914 324.637 310.936 326.434 310.046C335.958 309.366 349.324 304.479 345.895 293.565C344.492 287.165 338.841 283.325 334.835 278.375C329.482 272.516 344.619 269.433 339.222 255.686C333.838 242.718 319.983 249.746 312.09 224.404C306.852 207.532 287.695 197.718 269.389 197.165C262.405 195.286 255.223 195.059 248.474 197.747C230.752 200.836 223.025 220.366 220.472 234.887C220.809 251.706 220.777 247.744 211.583 261.352C205.335 271.812 215.52 276.961 216.783 285.728Z" fill="black"/>
<path d="M374.195 387.508C378.1 397.753 381.681 408.179 385.066 418.569C389.51 437.186 390.101 408.051 391.009 403.693C393.212 383.384 393.339 362.882 397.06 342.794C399.225 334.369 396.692 317.574 405.949 313.065C411.264 311.576 417.087 312.285 422.655 312.251C423.29 312.251 423.874 312.251 424.478 312.216C428.287 311.395 426.046 310.499 422.135 309.766C421.157 309.58 420.071 309.406 418.96 309.249C418.147 309.132 417.322 309.022 416.496 308.923C412.413 308.428 408.508 308.149 407.956 308.26C394.476 311.285 396.05 328.406 394.152 338.401C389.447 364.953 390.342 391.843 387.225 418.534C384.412 407.556 380.875 396.66 376.964 386.002L376.881 386.054L376.805 386.095C376.734 386.343 376.583 386.566 376.373 386.735C375.656 387.008 374.925 387.27 374.195 387.508Z" fill="black"/>
<path d="M343.095 397.224C343.228 405.869 348.238 414.218 350.962 422.462C356.2 435.749 359.521 450.386 368.995 461.801C378.151 474.734 399.327 483.536 411.016 468.288C419.588 454.168 422.312 433.858 422.204 417.836C422.693 389.586 420.103 361.405 419.099 333.212C423.544 332.095 431.868 331.269 426.052 325.69C432.751 324.904 431.164 318.941 425.62 317.644C428.605 316.841 430.065 312.548 427.354 310.75C425.799 309.997 424.1 309.524 422.35 309.36C421.225 309.244 420.091 309.207 418.96 309.249C418.153 309.249 417.347 309.33 416.56 309.412C415.658 309.505 414.775 309.627 413.937 309.767C413.302 310.605 415.023 311.047 417.36 311.419C417.868 311.506 418.414 311.582 418.972 311.663C420.198 311.844 421.512 312.024 422.662 312.245C424.446 312.588 425.932 313.036 426.471 313.717C424.306 315.358 420.839 314.025 418.484 315.538C415.34 320.14 426.268 319.686 428.725 322.228C425.703 324.061 421.773 322.717 418.414 322.932C417.423 323.31 417.41 325.579 418.553 325.777C420.035 325.898 421.493 326.195 422.89 326.661C424.293 327.111 425.554 327.87 426.56 328.872C415.867 332.561 416.833 325.341 416.566 338.995C417.525 370.009 420.954 400.942 419.252 431.985C415.988 445.948 415.772 472.081 394.742 472.232C384.977 473 375.738 464.896 370.455 458.118C361.604 447.012 358.861 432.928 354.023 420.146C350.807 412.233 348.091 404.156 345.889 395.956C345.654 396.02 345.413 396.101 345.171 396.183C344.536 396.381 343.901 396.59 343.266 396.8V396.829C343.2 396.957 343.143 397.089 343.095 397.224Z" fill="black"/>
<path d="M171.631 401.256C171.957 400.282 172.264 399.303 172.552 398.318C173.831 393.872 174.863 389.369 175.644 384.827C177.155 376.362 178.139 367.728 179.657 359.339C183.949 328.046 190.007 296.776 190.115 265.25C189.772 261.515 189.918 257.477 189.48 253.614C189.423 253.091 189.353 252.567 189.27 252.055C188.762 248.838 187.753 245.766 185.613 243.113C174.99 232.589 176.927 243.997 179.695 251.787L179.962 252.509C180.439 253.827 181.003 255.117 181.651 256.372C184.965 257.14 179.517 244.69 179.841 242.648C191.759 246.72 185.67 267.588 185.848 276.862C185.13 283.261 185.334 289.661 184.279 296.014C180.819 329.791 176.438 363.435 170.698 396.893C170.215 398.202 169.218 401.419 171.631 401.256Z" fill="black"/>
<path d="M172.546 398.318C172.687 398.391 172.836 398.451 172.99 398.498C180.108 387.369 184.419 374.483 188.134 361.957C188.08 361.794 188.046 361.627 188.032 361.457C188.023 361.343 188.023 361.228 188.032 361.114C187.982 361.167 187.929 361.217 187.873 361.265C187.753 361.396 187.604 361.504 187.438 361.581C187.271 361.659 187.089 361.706 186.902 361.719H186.769C186.723 361.713 186.678 361.701 186.635 361.684C186.406 361.606 186.214 361.455 186.096 361.259C185.969 361.081 185.877 360.884 185.823 360.677C185.805 360.624 185.79 360.569 185.778 360.514V360.433C185.757 360.329 185.742 360.224 185.734 360.119C181.6 368.072 178.813 376.513 175.676 384.821C175.193 386.095 174.704 387.369 174.203 388.631C173.663 391.209 169.212 396.718 172.546 398.318Z" fill="black"/>
<path d="M142.271 425.853C153.065 440.427 178.146 440.747 192.433 430.403C198.725 425.376 202.592 418.517 207.24 412.269C208.231 410.756 215.393 400.226 215.914 396.218L215.863 396.166C215.666 395.95 215.469 395.729 215.285 395.508L215.114 395.31C214.974 395.136 214.828 394.955 214.694 394.775C210.853 402.629 203.487 408.517 198.706 415.847C194.052 421.996 188.033 428.035 179.804 429.85C165.834 433.515 146.678 430.606 142.119 416.138C137.039 397.73 138.22 378.23 141.243 359.595C149.332 325.789 163.091 292.541 167.669 258.228C167.491 256.473 167.142 254.736 166.628 253.038C165.993 251.247 165.003 250.24 163.453 252.457L163.415 252.55C162.349 255.144 164.342 257.826 163.923 260.462C157.929 298.579 140.868 334.684 135.985 372.947C134.887 390.418 132.804 410 142.271 425.853Z" fill="black"/>
<path d="M185.778 359.194C191.613 342.823 201.087 326.405 217.837 317.475C228.777 313.403 240.994 313.932 252.544 314.712C252.481 314.341 252.55 313.961 252.741 313.63L252.779 313.554C252.877 313.368 253.02 313.204 253.197 313.076C253.374 312.948 253.58 312.859 253.801 312.815C253.924 312.806 254.048 312.827 254.16 312.876C254.271 312.925 254.367 313 254.436 313.094C254.598 313.296 254.706 313.529 254.753 313.775C254.957 314.584 254.849 315.672 255.071 316.248C270.31 317.411 286.298 315.16 301.347 317.382C304.14 314.706 313.525 316.8 315.506 316.614C337.926 319.18 353.845 336.185 364.582 353.132C366.487 356.861 380.227 383.855 376.926 386.008C376.899 386.026 376.869 386.04 376.837 386.048L376.761 386.089C376.689 386.337 376.539 386.56 376.329 386.729C366.271 390.086 356.074 393.088 345.851 395.956C345.616 396.02 345.375 396.101 345.133 396.183C344.498 396.41 343.806 396.666 343.19 396.829C341.774 397.201 340.619 397.061 340.428 394.833C337.831 391.098 334.333 388.021 331.628 384.361C329.558 402.478 327.475 420.861 330.009 439.001C330.372 440.097 330.489 441.249 330.351 442.387C330.284 442.829 330.098 443.248 329.812 443.609L329.755 443.679C329.504 443.935 329.191 444.135 328.84 444.26C328.819 444.31 328.791 444.357 328.758 444.4C328.209 444.602 327.65 444.779 327.081 444.929C326.688 445.034 326.288 445.127 325.881 445.209C325.113 445.366 324.338 445.488 323.551 445.581C323.056 445.639 322.561 445.686 322.059 445.726C321.557 445.767 321.024 445.796 320.503 445.819C318.459 445.907 316.395 445.883 314.37 445.883H312.7C312.204 445.883 311.709 445.883 311.22 445.883C309.995 445.883 308.776 445.883 307.55 445.924C306.471 445.924 305.398 445.977 304.312 446.017L302.953 446.064L301.048 446.134L298.896 446.221C296.667 446.308 294.451 446.401 292.21 446.465C291.263 446.494 290.305 446.518 289.378 446.535C277.466 446.774 265.306 448.28 253.344 448.315C247.261 449.008 241.153 449.368 235.044 449.909C234.497 450.07 233.914 450.102 233.349 450.002C232.972 449.933 232.62 449.777 232.327 449.549C232.291 449.53 232.261 449.504 232.238 449.473C232.185 449.441 232.138 449.402 232.098 449.357C231.961 449.229 231.841 449.086 231.742 448.932C231.412 448.398 231.223 447.8 231.19 447.187C231.184 447.07 231.184 446.954 231.19 446.838C229.006 444.737 229.876 439.35 229.184 436.366C227.539 425.219 228.39 413.304 223.151 402.908C220.974 400.494 218.154 398.574 215.926 396.194L215.875 396.142C215.678 395.927 215.481 395.706 215.297 395.485L215.126 395.287C214.986 395.112 214.84 394.932 214.706 394.752C210.344 388.259 210.033 379.794 213.246 372.848C209.678 371.684 188.921 364.546 188.051 361.416C188.023 361.303 188.023 361.186 188.051 361.073L187.892 361.224C187.771 361.355 187.623 361.463 187.456 361.541C187.289 361.619 187.107 361.665 186.921 361.678H186.787C186.741 361.672 186.697 361.66 186.654 361.643C186.429 361.558 186.24 361.409 186.114 361.218C185.995 361.037 185.903 360.841 185.841 360.637C185.823 360.583 185.808 360.529 185.797 360.474V360.392C185.797 360.293 185.759 360.189 185.746 360.084C185.703 359.788 185.714 359.487 185.778 359.194ZM302.832 318.807C302.481 318.831 302.129 318.831 301.778 318.807C301.756 318.954 301.718 319.098 301.664 319.238C301.664 319.284 301.62 319.331 301.594 319.372C301.578 319.421 301.55 319.467 301.512 319.505C301.472 319.57 301.423 319.628 301.366 319.68C302.02 320.006 302.642 319.389 302.832 318.807Z" fill="#73D88B"/>
<path d="M210.853 779.756C215.494 778.33 222.707 780.832 228.676 782.915C225.914 730.451 220.961 678.12 219.247 625.552C215.069 565.693 211.221 503.653 230.155 445.558C230.314 446.097 230.679 446.565 231.184 446.878C231.177 446.994 231.177 447.111 231.184 447.227C231.204 447.842 231.394 448.443 231.736 448.973C231.835 449.127 231.955 449.27 232.092 449.397C232.132 449.442 232.179 449.481 232.232 449.514C232.255 449.545 232.285 449.57 232.321 449.589C232.618 449.812 232.968 449.968 233.343 450.043C233.907 450.143 234.49 450.111 235.038 449.95C241.146 449.409 247.255 449.048 253.338 448.356C265.3 448.309 277.466 446.814 289.371 446.576C290.318 446.576 291.276 446.535 292.203 446.506C294.432 446.448 296.648 446.355 298.89 446.262L301.042 446.174L302.947 446.104L304.306 446.058C305.391 446.017 306.465 445.988 307.544 445.965C308.769 445.965 309.995 445.93 311.214 445.93C311.703 445.93 312.198 445.93 312.694 445.895H314.395C316.421 445.895 318.491 445.895 320.529 445.831C321.05 445.831 321.57 445.779 322.085 445.738C322.599 445.697 323.081 445.651 323.577 445.592C324.364 445.499 325.139 445.377 325.907 445.22C326.33 445.139 326.73 445.046 327.107 444.941C327.675 444.791 328.235 444.614 328.783 444.412C328.817 444.368 328.845 444.321 328.866 444.272C329.24 444.19 329.566 443.982 329.78 443.69L329.837 443.62C330.1 443.242 330.281 442.822 330.371 442.381C355.528 480.697 362.227 526.505 359.617 570.592C359.242 589.79 357.306 608.919 352.455 627.605C350.924 639.491 349.07 644.017 355.833 655.001C371.605 686.201 389.581 716.808 407.969 746.798C412.414 756.107 418.763 765.112 420.548 775.247C423.03 780.314 414.833 786.58 411.398 789.873C390.946 808.908 377.91 812.637 395.898 782.793C395.422 782.403 394.965 781.978 394.521 781.553C394.14 781.676 393.936 781.507 394 781.053C381.777 769.458 372.043 755.856 362.252 742.522C351.096 728.758 340.422 714.725 330.422 700.21C327.729 695.242 322.535 690.71 321.265 685.346C293.556 641.591 286.444 590.657 281.009 541.166C278.914 594.02 270.139 646.391 264.233 698.965C260.246 727.123 258.786 755.502 255.42 783.717C254.36 787.482 254.627 797.68 251.242 799.6C248.944 803.765 230.257 798.599 226.066 796.883C221.215 795.958 200.623 783.572 210.853 779.756ZM390.47 799.745C400.496 793.061 410.306 785.416 418.116 776.591C417.658 774.452 416.956 772.364 416.02 770.36C411.461 775.276 405.556 779.36 400.267 783.688C397.206 788.913 392.673 793.951 390.47 799.745ZM249.509 797.482C249.439 796.962 249.452 796.434 249.547 795.917C241.775 791.845 233.228 789.303 224.961 786.207C220.371 785.044 215.672 782.507 210.814 783.165C221.38 791.752 236.276 794.114 249.522 797.482H249.509Z" fill="black"/>
<path d="M106.681 241.671C116.511 245.941 145.293 248.995 149.941 250.159C154.386 250.857 158.907 251.759 163.421 252.515C164.488 252.69 165.561 252.858 166.596 253.021C170.763 253.676 174.985 253.992 179.213 253.964C179.613 253.546 179.866 253.027 179.937 252.474C179.944 252.212 179.849 251.957 179.67 251.753C178.4 250.153 172.45 250.426 170.673 249.757C158.507 246.953 146.138 245.068 133.775 243.137C125.051 241.63 116.06 240.368 107.742 237.447C107.17 237.249 106.605 237.046 106.047 236.83C105.981 236.78 105.911 236.735 105.837 236.697C105.709 236.616 105.563 236.561 105.41 236.534C105.257 236.508 105.1 236.512 104.948 236.545C104.281 236.697 103.78 237.43 103.57 238.128C102.884 239.39 104.154 240.571 106.681 241.671Z" fill="black"/>
<path d="M100.496 240.624C102.363 240.856 105.074 242.299 106.68 241.671C107.315 241.415 107.785 240.839 107.95 239.722C108.149 238.969 108.087 238.178 107.772 237.459C107.612 237.187 107.347 236.98 107.03 236.877L105.868 236.702L104.979 236.551C102.94 236.173 100.921 235.702 98.864 235.388C99.0291 221.611 102.642 208.132 103.893 194.425C104.979 180.032 109.246 166.046 111.512 151.851C145.425 154.289 178.697 160.438 212.071 166.128C209.042 194.635 207.429 223.141 203.816 251.543C199.168 251.398 193.847 249.752 189.485 251.671C189.409 251.787 189.341 251.908 189.282 252.032C188.888 252.812 189.047 253.283 189.492 253.591C190.33 254.173 192.165 254.138 193.301 254.388C197.111 254.854 200.787 256.628 204.565 256.64C207.429 255.29 205.778 251.986 206.166 249.659C206.261 246.878 206.591 244.26 206.966 241.514C210.737 216.591 211.048 191.388 214.541 166.465C215.176 164.441 215.868 161.526 212.414 161.811C200 160.025 187.726 157.436 175.294 155.691C154.34 151.549 132.974 149.489 111.658 148.128C109.823 148.599 109.842 150.694 109.423 152.096C102.863 180.292 98.4081 208.865 96.0892 237.616C95.4225 240.211 98.629 240.083 100.496 240.624Z" fill="black"/>
<path d="M427.024 0.154245C463.357 -1.62016 507.118 11.8187 520.833 45.4451C538.097 97.5252 507.067 143.421 447.387 149.512C446.991 149.591 446.586 149.624 446.181 149.611C445.387 149.559 444.854 149.181 444.771 148.087C442.638 148.267 440.498 148.36 438.365 148.366C424.624 148.395 411.011 144.875 398.737 139.261C378.247 125.561 365.77 102.773 364.195 79.7172C357.604 43.63 385.581 3.02819 427.024 0.154245ZM399.327 125.927C419.322 137.475 423.976 140.326 447.857 138.808C503.416 144.492 539.348 74.2776 506.61 35.5957C487.688 15.6468 458.353 5.40763 429.78 6.37919C397.53 8.1245 373.072 32.9021 368.786 61.4612C367.986 85.8549 376.151 111.79 399.327 125.927Z" fill="black"/>
<path d="M416.496 308.917C416.496 309.092 416.535 309.255 416.56 309.406C416.627 310.128 416.903 310.821 417.36 311.413C417.433 311.542 417.538 311.654 417.667 311.739C417.795 311.824 417.943 311.881 418.1 311.904C418.256 311.928 418.417 311.918 418.568 311.875C418.72 311.833 418.858 311.758 418.973 311.658C419.184 311.546 419.376 311.407 419.544 311.245C420.528 311.826 421.398 311.245 422.16 309.796C422.23 309.668 422.3 309.534 422.363 309.389C425.538 302.687 426.941 281.906 427.837 278.991C431.012 258.583 434.326 238.267 437.133 217.841C439.063 194.997 442.083 172.269 446.193 149.658C446.422 148.366 446.663 147.081 446.905 145.789C447.736 143.334 446.225 139.192 444.365 143.858C442.961 140.739 439.92 143.177 439.171 145.405C438.755 146.368 438.496 147.381 438.402 148.413C438.244 149.757 438.218 151.124 437.952 152.45C436.517 166.238 433.367 179.869 432.84 193.721C428.243 219.808 424.967 246.028 421.303 272.219C422.49 278.084 415.563 300.68 416.496 308.917Z" fill="black"/>
<path d="M453.292 132.31C478.347 130.256 499.491 110.615 503.841 88.252C509.238 65.8422 507.079 31.0524 478.277 24.1991C461.933 11.6038 439.685 13.5294 419.861 15.0595C405.568 17.6367 394.882 27.5268 388.336 38.9121C378.665 54.1486 378.125 69.4085 382.17 86.2333C387.942 115.648 421.341 136.359 453.292 132.31ZM441.374 125.299C393.295 125.002 367.083 72.137 395.657 37.766C410.134 15.1235 453.362 18.7712 474.703 30.6742C481.77 34.6186 488.348 39.488 492.431 46.2075C494.266 47.5688 496.818 58.5701 498.977 55.9754C507.041 92.0859 484.989 128.028 441.374 125.299Z" fill="#73D88B"/>
<path d="M399.536 114.024C402.939 113.349 406.781 114.169 409.784 112.279C415.816 108.427 422.172 105.117 427.817 100.777C443.837 90.2761 459.488 78.7861 472.842 65.4985C474.842 62.2464 498.424 44.2464 492.563 42.3498C492.119 42.8036 491.294 42.6291 491.02 43.2516C491.031 42.8905 490.996 42.5295 490.919 42.1753C501.427 16.0363 450.612 64.8643 445.754 67.43C435.551 74.8417 426.28 83.1378 416.375 90.8346C412.654 93.4293 389.484 111.627 399.536 114.024ZM483.604 50.099C484.633 49.3543 485.331 48.1443 486.563 47.7196C485.579 48.534 484.633 49.3427 483.604 50.099Z" fill="#73D88B"/>
<path d="M441.132 131.768C465.953 130.465 489.389 117.114 498.647 95.5124C500.184 105.74 507.168 85.9947 507.028 83.4698C510.908 68.9255 507.352 52.9035 496.018 41.8674C489.237 32.431 479.395 24.6295 467.877 20.4466C426.992 6.97858 394.184 18.4046 383.618 58.7562C378.36 75.93 383.726 93.5984 394.114 108.148C402.825 123.763 422.084 133.136 441.132 131.768ZM452.371 123.373C429.417 128.83 404.114 120.418 394.73 99.5732C382.564 80.8634 384.862 53.8926 401.809 38.2895C415.556 25.3393 437.208 25.9792 455.292 28.5972C468.524 29.8596 480.951 34.9967 489.745 44.305C503.079 62.0257 502.057 86.879 488.183 104.227C479.973 115.188 466.22 120.761 452.365 123.373H452.371Z" fill="#73D88B"/>
<path d="M429.996 126.299C431.056 122.087 428.656 122.029 425.158 120.796C421.404 119.709 417.812 118.199 414.465 116.299C403.175 108.23 394.337 97.4379 389.657 85.0112C385.886 67.5581 386.927 47.5627 400.286 33.6293C401.461 32.1399 403.575 31.2556 404.42 29.6209C404.668 26.5142 398.705 33.0533 397.899 33.6933C376.812 55.6493 377.307 93.0339 399.169 114.379C404.579 120.418 410.96 126.875 419.875 127.934C423.202 127.888 429.012 130.616 429.996 126.299Z" fill="#73D88B"/>
<path d="M441.381 128.498C447.12 128.655 452.839 127.808 458.233 126.003C459.306 126.584 459.814 123.577 458.556 123.984C451.934 125.88 445.743 123.617 439.19 122.937C429.082 121.395 418.999 120.167 409.83 115.618C408.477 115.211 407.842 118.207 408.909 118.696C411.881 120.348 415.157 121.436 418.205 122.948C425.062 126.66 433.463 128.295 441.381 128.498Z" fill="#73D88B"/>
<path d="M217.184 367.531C218.866 365.1 220.327 362.412 220.796 359.532C220.835 358.014 222.53 349.805 219.781 350.305C218.79 350.049 218.733 352.33 219.52 352.562C219.254 355.611 219.006 358.601 217.863 361.458C217.425 363.407 215.399 365.204 216.003 367.223C216.149 367.718 216.828 368.061 217.184 367.531Z" fill="white"/>
<path d="M281.542 533.632C282.73 531.939 281.631 529.519 281.796 527.582C281.396 522.02 281.796 516.301 280.907 510.809C277.58 506.859 280.539 532.271 281.111 533.376L281.022 533.423C281.123 533.609 281.339 533.749 281.542 533.632Z" fill="white"/>
<path d="M312.553 509.076C316.116 507.202 319.436 504.945 323.037 503.142C323.222 503.148 323.403 503.088 323.541 502.974C323.678 502.859 323.762 502.701 323.773 502.531C323.932 499.936 318.967 504.084 317.741 504.387C315.912 505.597 313.296 506.225 311.88 507.749C311.709 508.174 311.855 509.308 312.553 509.076Z" fill="white"/>
<path d="M299.867 509.127C306.521 504.974 311.556 499.185 317.601 494.403C318.414 493.594 321.271 491.954 319.932 490.784C319.601 490.714 319.525 491.215 319.544 491.413C315.392 494.903 310.966 498.213 306.699 501.623C304.261 503.612 300.87 504.921 298.914 507.266C298.692 507.882 298.857 509.442 299.867 509.127Z" fill="white"/>
<path d="M260.399 511.223C261.256 511.292 261.205 509.646 260.335 509.797C255.071 508.82 249.763 507.79 244.696 506.15C243.712 506.115 243.693 507.552 243.959 508.168C248.62 510.338 254.976 509.995 260.214 511.153C260.237 511.177 260.265 511.196 260.297 511.208C260.329 511.22 260.364 511.225 260.399 511.223Z" fill="white"/>
<path d="M295.416 220.767C295.613 220.285 295.619 219.447 295.023 219.202C291.372 214.851 285.657 214.205 280.171 213.443C279.758 213.327 279.587 213.908 279.536 214.164C280.425 217.48 290.718 214.746 294.426 220.721C294.616 221.268 295.213 221.326 295.416 220.767Z" fill="white"/>
<path d="M294.28 214.159C294.616 213.92 294.559 212.791 293.969 212.995C289.619 210.633 284.641 209.743 279.955 208.149C279.219 207.707 279.047 209.045 279.53 209.312C284.26 211.32 289.803 211.866 294.28 214.159Z" fill="white"/>
<path d="M289.651 208.352C290.425 208.23 290.394 206.52 289.562 206.549C286.45 206.51 283.436 205.544 280.977 203.797C280.938 203.742 280.883 203.698 280.818 203.671C280.753 203.644 280.681 203.635 280.61 203.644C280.539 203.653 280.473 203.68 280.419 203.723C280.365 203.766 280.325 203.822 280.304 203.884C278.945 206.613 287.638 208.131 289.651 208.352Z" fill="white"/>
<path d="M245.566 212.925C248.741 212.181 253.503 211.11 254.525 207.945C254.341 207.171 253.833 207.945 253.471 208.126C252.03 210.139 242.341 210.197 245.566 212.925Z" fill="white"/>
<path d="M245.007 208.271C248.081 208.51 250.195 206.183 252.684 205.089C252.925 205.141 252.995 204.798 252.995 204.641C252.728 203.157 248.462 206.741 247.128 206.543C246.074 206.689 245.001 206.543 243.953 206.665C242.785 207.387 243.699 208.649 245.007 208.271Z" fill="white"/>
<path d="M244.466 203.669C245.362 203.146 251.724 201.127 250.308 200.179C248.276 200.871 246.498 202.227 244.358 202.611C243.971 202.744 243.977 203.693 244.466 203.669Z" fill="white"/>
<path d="M328.555 284.337C329.19 283.913 328.739 283.139 328.339 282.709C324.294 277.537 329.837 272.644 330.307 267.542C331.476 255.97 313.335 255.784 311.97 245.219C311.868 241.729 311.659 238.279 309.69 235.184C308.979 233.84 308.484 232.275 307.112 231.35C306.522 230.838 305.772 230.89 306.312 231.804C308.287 232.705 308.75 234.875 309.684 236.522C312.09 240.373 310.039 244.864 311.716 248.873C314.465 257.774 330.269 257.96 329.463 268.275C327.412 273.226 323.583 279.718 328.555 284.337Z" fill="white"/>
<path d="M331.749 298.16C333.521 290.458 318.516 289.12 322.225 277.461C324.072 273.156 325.596 267.681 322.548 263.539C321.99 262.829 321.539 263.475 321.475 264.063C321.437 264.435 321.533 265.226 322.11 265.226C326.13 272.318 315.761 280.643 322.206 287.956C324.745 291.493 330.593 293.018 331.241 297.538C331.285 297.753 331.4 298.259 331.749 298.16Z" fill="white"/>
<path d="M337.368 299.999C338.371 299.149 338.073 297.48 338.117 296.31C339.101 294.228 333.215 286.63 333.806 289.806C339.736 294.292 335.228 299.225 337.368 299.999Z" fill="white"/>
<path d="M314.268 286.467C315.392 285.431 314.103 283.727 314.44 282.394C314.541 279.276 316.694 276.28 316.008 273.15C315.773 272.568 315.373 273.22 315.551 273.54C316.224 276.082 310.598 285.065 314.268 286.467Z" fill="white"/>
<path d="M321.505 299.661C322.185 296.386 317.099 293.803 316.94 290.295C315.213 289.271 318.578 296.304 319.27 296.741C320.02 297.282 320.451 300.388 321.505 299.661Z" fill="white"/>
<path d="M331.418 256.238C331.983 249.204 320.478 249.838 319.233 243.869C318.783 243.107 318.338 244.23 318.599 244.632C319.741 249.414 325.494 250.42 328.758 253.591C329.767 254.039 330.307 257.314 331.418 256.238Z" fill="white"/>
<path d="M229.278 243.561C229.875 235.614 227.633 225.177 235.164 219.459C235.9 219.237 235.348 217.364 234.751 218.382C229.087 221.873 228.573 228.511 227.767 234.166C227.449 237.075 228.186 239.937 227.919 242.817C227.633 243.887 228.802 245.278 229.278 243.561Z" fill="white"/>
<path d="M218.079 263.44C220.815 258.867 225.781 255.563 226.378 249.949C226.962 248.908 226.155 246.551 225.819 249.001C225.127 254.586 218.834 256.633 216.637 261.369C216.028 262.218 216.879 265.005 218.079 263.44Z" fill="white"/>
<path d="M220.605 273.517C221.786 272.604 221.05 271.021 220.917 269.84C219.418 263.574 227.215 260.148 226.523 255.79C226.111 255.575 226.028 256.302 226.187 256.529C223.45 260.642 218.472 263.819 218.993 269.276C219.063 270.172 219.043 274.099 220.605 273.517Z" fill="white"/>
<path d="M230.491 295.729C234.212 285.972 222.078 278.584 227.577 269.153C227.577 268.641 227.12 268.571 227.037 269.153C222.421 277.455 228.224 281.539 229.45 289.277C229.571 290.69 229.837 292.186 229.336 293.576C228.301 294.373 229.298 297.608 230.491 295.729Z" fill="white"/>
<path d="M224.256 303.484C225.406 301.023 222.409 298.742 222.84 296.159C222.84 293.436 225.939 291.051 224.447 288.311C224.098 287.898 223.882 288.689 224.085 288.922C224.834 291.662 221.094 293.698 221.418 296.619C221.107 297.73 222.072 306.043 224.256 303.484Z" fill="white"/>
<path d="M236.816 300.295C238.029 299.033 236.708 296.851 237.298 295.257C237.26 294.507 237.851 293.099 237.019 292.639C236.562 292.517 236.435 293.221 236.428 293.483C236.568 294.67 235.146 300.226 236.816 300.295Z" fill="white"/>
<path d="M1458 392.207C849.704 373.073 883.121 614.212 19.0007 667.118" stroke="black" stroke-width="3"/>
<path d="M1399.5 434C798 434 855.938 722.183 -5.76887e-05 775" stroke="black" stroke-width="3" stroke-dasharray="20 20"/>
<path d="M1446.5 471C866.974 460.415 979.359 849.651 -3.49946 875.5" stroke="black" stroke-width="3"/>
<defs>
<clipPath id="clip0_881_18">
<rect width="186.645" height="425.33" fill="white" transform="translate(534.752 226)"/>
</clipPath>
</defs>
</svg>
